<?xml version="1.0" encoding="UTF-8"?>
<svg width="29px" height="32px" viewBox="0 0 29 32" version="1.1" xmlns="http://www.w3.org/2000/svg" xmlns:xlink="http://www.w3.org/1999/xlink">
    <!-- Generator: Sketch 43.2 (39069) - http://www.bohemiancoding.com/sketch -->
    <title>1498404090_statistic</title>
    <desc>Created with Sketch.</desc>
    <defs></defs>
    <g id="Page-1" stroke="none" stroke-width="1" fill="none" fill-rule="evenodd">
        <g id="1498404090_statistic" fill-rule="nonzero" fill="#fff">
            <g id="Group" transform="translate(1.621832, 12.538012)">
                <path d="M5.41442495,19.4557505 L1.1539961,19.4557505 C0.530214425,19.4557505 0.0249512671,18.9442495 0.0249512671,18.3267057 L0.0249512671,9.60623782 C0.0249512671,8.98245614 0.536452242,8.47719298 1.1539961,8.47719298 L5.41442495,8.47719298 C6.03820663,8.47719298 6.54346979,8.98869396 6.54346979,9.60623782 L6.54346979,18.3267057 C6.5497076,18.9504873 6.03820663,19.4557505 5.41442495,19.4557505 Z" id="Shape"></path>
                <path d="M14.7150097,19.4557505 L10.860039,19.4557505 C10.1302144,19.4557505 9.5251462,18.8569201 9.5251462,18.1208577 L9.5251462,5.53918129 C9.5251462,4.80935673 10.1239766,4.2042885 10.860039,4.2042885 L14.7150097,4.2042885 C15.4448343,4.2042885 16.0499025,4.80311891 16.0499025,5.53918129 L16.0499025,18.1208577 C16.0499025,18.8569201 15.4510721,19.4557505 14.7150097,19.4557505 Z" id="Shape"></path>
                <path d="M24.0467836,19.4557505 L20.5348928,19.4557505 C19.7052632,19.4557505 19.0315789,18.7758285 19.0315789,17.9524366 L19.0315789,1.51578947 C19.0315789,0.686159844 19.711501,0.0124756335 20.5348928,0.0124756335 L24.0467836,0.0124756335 C24.8764133,0.0124756335 25.5500975,0.692397661 25.5500975,1.51578947 L25.5500975,17.9524366 C25.5500975,18.7820663 24.8764133,19.4557505 24.0467836,19.4557505 Z" id="Shape"></path>
            </g>
            <path d="M26.2050682,0.0623781676 C24.8327485,0.118518519 23.7660819,1.27875244 23.8222222,2.65730994 L17.4846004,8.88888889 L12.0826511,4.16062378 L2.1957115,14.0787524 C0.923196881,14.2409357 -0.0311890838,15.3387914 0.0187134503,16.6424951 C0.0748538012,18.0148148 1.24132554,19.0814815 2.61364522,19.0253411 C3.98596491,18.9692008 5.05263158,17.802729 4.99649123,16.4304094 C4.99025341,16.3181287 4.96530214,16.2120858 4.94658869,16.0998051 L12.3883041,8.95750487 L17.6093567,13.5298246 L26.2612086,5.03391813 C26.3111111,5.03391813 26.3610136,5.04639376 26.4109162,5.04015595 C27.7832359,4.98401559 28.8499025,3.81754386 28.7937622,2.44522417 C28.7376218,1.07290448 27.5773879,0.00623781676 26.2050682,0.0623781676 Z" id="Shape"></path>
        </g>
    </g>
</svg>