<?xml version="1.0" encoding="UTF-8"?>
<svg width="32px" height="26px" viewBox="0 0 32 26" version="1.1" xmlns="http://www.w3.org/2000/svg" xmlns:xlink="http://www.w3.org/1999/xlink">
    <defs></defs>
    <g id="Page-1" stroke="none" stroke-width="1" fill="none" fill-rule="evenodd">
        <g id="1498403350_opencart-cms-ecommerce-shop-sale-store-page" fill-rule="nonzero" fill="#0C0E0B">
            <g id="Group">
                <path d="M31.8933333,7.25333333 C31.36,5.86666667 28.8533333,5.33333333 22.8266667,5.33333333 C7.94666667,5.33333333 4.69333333,4.64 0.906666667,0.693333333 C0.693333333,0.48 0.426666667,0.48 0.213333333,0.64 C-1.06512021e-15,0.8 -0.0533333333,1.12 0.106666667,1.33333333 C0.266666667,1.6 0.426666667,1.86666667 0.586666667,2.13333333 C2.08,4.69333333 4.32,8.53333333 17.4933333,8.53333333 L18.6133333,8.53333333 L19.84,8.53333333 C25.6533333,8.53333333 26.8266667,9.28 27.04,9.70666667 C27.3066667,10.3466667 25.92,11.7866667 24.6933333,13.0666667 C23.5733333,14.1866667 22.3466667,15.52 21.5466667,16.8533333 C21.44,17.0666667 21.4933333,17.3866667 21.6533333,17.5466667 C21.76,17.6 21.8666667,17.6533333 21.9733333,17.6533333 C22.08,17.6533333 22.24,17.6 22.3466667,17.4933333 C23.68,16.2666667 25.0133333,15.1466667 26.1866667,14.1866667 C30.1333333,10.88 32.48,8.85333333 31.8933333,7.25333333 Z" id="Shape"></path>
                <path d="M8.21333333,19.6266667 C6.72,19.6266667 5.49333333,20.8533333 5.49333333,22.3466667 C5.49333333,23.84 6.72,25.0666667 8.21333333,25.0666667 C9.70666667,25.0666667 10.9333333,23.84 10.9333333,22.3466667 C10.9333333,20.8533333 9.70666667,19.6266667 8.21333333,19.6266667 Z" id="Shape"></path>
                <path d="M18.24,19.6266667 C16.7466667,19.6266667 15.52,20.8533333 15.52,22.3466667 C15.52,23.84 16.7466667,25.0666667 18.24,25.0666667 C19.7333333,25.0666667 20.96,23.84 20.96,22.3466667 C21.0133333,20.8533333 19.7866667,19.6266667 18.24,19.6266667 Z" id="Shape"></path>
            </g>
        </g>
    </g>
</svg>