<?xml version="1.0" encoding="UTF-8"?>
<svg width="26px" height="32px" viewBox="0 0 26 32" version="1.1" xmlns="http://www.w3.org/2000/svg" xmlns:xlink="http://www.w3.org/1999/xlink">
    <defs></defs>
    <g id="Page-1" stroke="none" stroke-width="1" fill="none" fill-rule="evenodd">
        <g id="Projekt" transform="translate(-599.000000, -1443.000000)" fill-rule="nonzero" fill="#0C0E0B">
            <g id="Group-5" transform="translate(535.000000, 1408.000000)">
                <g id="design-32px-glyph-2_filter-organization" transform="translate(64.000000, 35.000000)">
                    <path d="M8,9 L8,7 L2,7 L2,1 C2,0.447 1.552,0 1,0 C0.448,0 0,0.447 0,1 L0,28 C0,28.553 0.448,29 1,29 L8,29 L8,27 L2,27 L2,19 L8,19 L8,17 L2,17 L2,9 L8,9 Z" id="Shape"></path>
                    <path d="M25,12 L11,12 C10.448,12 10,11.553 10,11 L10,5 C10,4.447 10.448,4 11,4 L25,4 C25.552,4 26,4.447 26,5 L26,11 C26,11.553 25.552,12 25,12 Z" id="Shape"></path>
                    <path d="M25,32 L11,32 C10.448,32 10,31.553 10,31 L10,25 C10,24.447 10.448,24 11,24 L25,24 C25.552,24 26,24.447 26,25 L26,31 C26,31.553 25.552,32 25,32 Z" id="Shape"></path>
                    <path d="M25,22 L11,22 C10.448,22 10,21.553 10,21 L10,15 C10,14.447 10.448,14 11,14 L25,14 C25.552,14 26,14.447 26,15 L26,21 C26,21.553 25.552,22 25,22 Z" id="Shape"></path>
                </g>
            </g>
        </g>
    </g>
</svg>