<?xml version="1.0" encoding="UTF-8"?>
<svg width="32px" height="32px" viewBox="0 0 32 32" version="1.1" xmlns="http://www.w3.org/2000/svg" xmlns:xlink="http://www.w3.org/1999/xlink">
    <defs></defs>
    <g id="Page-1" stroke="none" stroke-width="1" fill="none" fill-rule="evenodd">
        <g id="Projekt" transform="translate(-1029.000000, -1447.000000)" fill-rule="nonzero" fill="#fff">
            <g id="Group-2" transform="translate(995.000000, 1408.000000)">
                <g id="social-32px-glyph-1_logo-wordpress" transform="translate(34.000000, 39.000000)">
                    <path d="M0,16 C0,22.3 3.7,27.8 9,30.4 L1.4,9.5 C0.5,11.5 0,13.7 0,16 Z" id="Shape"></path>
                    <path d="M26.8,15.2 C26.8,13.2 26.1,11.9 25.5,10.8 C24.7,9.5 23.9,8.4 23.9,7 C23.9,5.5 25,4.2 26.6,4.2 L26.8,4.2 C24,1.6 20.2,0 16,0 C10.4,0 5.5,2.9 2.6,7.2 L3.6,7.2 C5.3,7.2 7.9,7 7.9,7 C8.8,7 8.9,8.2 8,8.3 L6.2,8.5 L12,25.8 L15.5,15.3 L13,8.5 C12.1,8.4 11.3,8.3 11.3,8.3 C10.5,8.3 10.6,7 11.5,7 C11.5,7 14.1,7.2 15.7,7.2 C17.4,7.2 20,7 20,7 C20.9,6.9 21,8.2 20.1,8.3 C20.1,8.3 19.2,8.4 18.3,8.5 L24,25.7 L25.6,20.4 C26.3,18.2 26.8,16.6 26.8,15.2 Z" id="Shape"></path>
                    <path d="M16.3,17.4 L11.5,31.3 C12.9,31.7 14.4,32 16,32 C17.9,32 19.7,31.7 21.3,31.1 C21.3,31 21.2,31 21.2,30.9 L16.3,17.4 Z" id="Shape"></path>
                    <path d="M30,8.3 C30.1,8.8 30.1,9.4 30.1,9.9 C30.1,11.5 29.8,13.3 28.9,15.6 L24,29.8 C28.8,27 32,21.9 32,16 C32,13.2 31.3,10.6 30,8.3 Z" id="Shape"></path>
                </g>
            </g>
        </g>
    </g>
</svg>