<?xml version="1.0" encoding="UTF-8"?>
<svg width="1440px" height="715px" viewBox="0 0 1440 715" version="1.1" xmlns="http://www.w3.org/2000/svg" xmlns:xlink="http://www.w3.org/1999/xlink">
    <!-- Generator: Sketch 43.2 (39069) - http://www.bohemiancoding.com/sketch -->
    <title>Page 1</title>
    <desc>Created with Sketch.</desc>
    <defs>
        <polygon id="path-1" points="0 376.701574 0 753.343845 2614.3268 753.343845 2614.3268 376.701574 2614.3268 0.0593025347 0 0.0593025347"></polygon>
        <polygon id="path-3" points="2614.3268 0.185296237 2614.3268 737.07992 0.000213588791 737.07992 0.000213588791 0.185296237 2614.3268 0.185296237"></polygon>
        <polygon id="path-5" points="1.19514035e-13 720.403085 1.19514035e-13 0.14141554 2614.32637 0.14141554 2614.32637 720.403085 0 720.403085"></polygon>
        <polygon id="path-7" points="1.38484675e-13 705.181379 1.38484675e-13 0.0252760874 2614.32594 0.0252760874 2614.32594 705.181379 0 705.181379"></polygon>
        <polygon id="path-9" points="2614.3268 0.293502773 2614.3268 691.409606 0.000640766373 691.409606 0.000640766373 0.293502773 2614.3268 0.293502773"></polygon>
        <polygon id="path-11" points="2614.3268 0.0783330126 2614.3268 676.070518 0.000640766373 676.070518 0.000640766373 0.0783330126"></polygon>
        <polygon id="path-13" points="2614.3268 0.177991472 2614.3268 663.041134 0.000640766372 663.041134 0.000640766372 0.177991472 2614.3268 0.177991472"></polygon>
        <polygon id="path-15" points="2614.3268 0.0136949204 2614.3268 649.605277 0.000854355163 649.605277 0.000854355163 0.0136949204"></polygon>
        <polygon id="path-17" points="2614.3268 0.459510731 2614.3268 675.129005 0.000213588791 675.129005 0.000213588791 0.459510731 2614.3268 0.459510731"></polygon>
        <polygon id="path-19" points="1.0054351e-13 698.447774 1.0054351e-13 0.00364809013 2614.32573 0.00364809013 2614.32573 698.447774 0 698.447774"></polygon>
        <polygon id="path-21" points="2613.75966 0.306917401 2613.75966 832.230553 0.00106771228 832.230553 0.00106771228 0.306917401 2613.75966 0.306917401"></polygon>
        <polygon id="path-23" points="0 888.901379 0 0.795020564 2614.32637 0.795020564 2614.32637 888.901379 7.58819819e-14 888.901379"></polygon>
        <polygon id="path-25" points="8.15731016e-14 916.992977 8.15731016e-14 0.147145845 2614.32616 0.147145845 2614.32616 916.992977 0 916.992977"></polygon>
    </defs>
    <g id="Page-1" stroke="none" stroke-width="1" fill="none" fill-rule="evenodd">
        <g id="Spletnibit-home" transform="translate(0.000000, -215.000000)">
            <g id="Page-1" transform="translate(1263.319329, 750.348775) rotate(-350.000000) translate(-1263.319329, -750.348775) translate(-44.180671, 210.848775)">
                <g id="Group-3" transform="translate(0.000000, 324.066179)">
                    <mask id="mask-2" fill="white">
                        <use xlink:href="#path-1"></use>
                    </mask>
                    <g id="Clip-2"></g>
                    <path d="M2475.58593,749.933912 C2384.28526,742.418254 2291.26307,701.86319 2191.20313,625.950129 C2090.80786,549.780633 1982.6828,437.539397 1860.65526,282.813431 C1763.47449,159.592539 1641.17355,75.1594522 1497.14636,31.8648167 C1361.2633,-8.98514631 1208.23548,-10.5130666 1054.60106,27.4413273 C912.602962,62.5279324 806.816706,164.180574 704.514083,262.486749 C685.739628,280.52903 666.324407,299.184616 647.159085,316.940545 C519.779002,434.975056 379.299518,535.926777 215.385073,475.925455 C199.242032,470.016785 183.87859,464.084608 169.019218,458.351167 C112.535662,436.549989 61.7463835,416.964829 0,411.543383 L0,413.69743 C61.4067774,419.125287 111.991011,438.629243 168.248162,460.342806 C183.116078,466.082657 198.492335,472.016971 214.650327,477.93419 C291.330839,506.005183 368.652117,500.914965 451.022634,462.362225 C526.840247,426.884558 596.442427,366.846908 648.611489,318.509067 C667.78749,300.740316 687.211255,282.076183 705.992117,264.027491 C808.093967,165.915778 913.670906,64.4640104 1055.11368,29.5163071 C1375.85569,-49.7303987 1668.86107,43.0774007 1858.97858,284.136204 C1981.11933,439.007483 2089.37041,551.372662 2189.91306,627.653279 C2290.3062,703.818501 2383.69362,744.514603 2475.41079,752.062316 C2485.76557,752.917096 2496.11181,753.344487 2506.47941,753.344487 C2542.18719,753.34235 2578.01457,748.228625 2614.3268,737.896465 L2614.3268,735.697542 C2567.51882,749.087679 2521.53956,753.714179 2475.58593,749.933912" id="Fill-1" fill="#F5F5F5" mask="url(#mask-2)"></path>
                </g>
                <g id="Group-6" transform="translate(0.000000, 312.088202)">
                    <mask id="mask-4" fill="white">
                        <use xlink:href="#path-3"></use>
                    </mask>
                    <g id="Clip-5"></g>
                    <path d="M2485.27453,734.426386 C2321.04184,725.826971 2146.07204,608.721095 1934.63622,365.897109 C1908.33062,335.689125 1881.06174,303.40019 1853.59209,269.923361 C1732.25443,122.024101 1569.82229,31.0305361 1383.8484,6.7769802 C1275.09326,-7.46493342 1160.06928,1.39727145 1041.98031,33.1114877 C901.528597,70.8314075 796.652229,172.977506 695.231728,271.760752 C677.194154,289.331333 658.539309,307.497999 640.136499,324.837838 C562.315423,398.156133 468.633244,476.19823 363.848719,499.110063 C313.839039,510.125861 263.914795,507.547104 215.462178,491.444299 C198.985939,485.981266 183.274347,480.464822 168.077505,475.127843 C111.820353,455.369485 61.2638865,437.621573 0.000213588791,432.867859 L0.000213588791,435.023588 C60.9605904,439.787985 111.322691,457.458982 167.370526,477.142563 C182.573776,482.481678 198.296047,488.004533 214.789373,493.471838 C263.609363,509.692151 313.913795,512.296546 364.305799,501.197424 C469.598665,478.174493 563.567053,399.912336 641.601718,326.395347 C660.01948,309.040552 678.67646,290.869614 696.720441,273.292623 C797.946577,174.701662 902.620036,72.7499851 1042.53351,35.1753474 C1160.35336,3.53377215 1275.09112,-5.30706772 1383.57287,8.89425238 C1568.99784,33.0773037 1730.95581,123.808079 1851.93891,271.280039 C1879.42565,304.769687 1906.70521,337.077851 1933.02576,367.298653 C2144.86953,610.590533 2320.31563,727.927151 2485.16133,736.56075 C2491.77831,736.906863 2498.39102,737.07992 2505.00586,737.07992 C2541.28819,737.07992 2577.59615,731.815582 2614.32701,721.169399 L2614.32701,718.919664 C2570.91936,731.569885 2528.12044,736.667575 2485.27453,734.426386" id="Fill-4" fill="#F5F5F5" mask="url(#mask-4)"></path>
                </g>
                <g id="Group-9" transform="translate(0.000000, 300.541943)">
                    <mask id="mask-6" fill="white">
                        <use xlink:href="#path-5"></use>
                    </mask>
                    <g id="Clip-8"></g>
                    <path d="M2487.61909,717.935777 C2322.52137,711.016218 2145.10384,594.719818 1929.27664,351.939769 C1902.39221,321.717389 1874.55305,289.764053 1846.5302,256.967648 C1722.36249,111.567266 1557.80087,24.2531888 1370.63729,4.46137186 C1262.58913,-7.07051503 1147.76379,4.51259624 1029.35871,38.8841503 C890.429883,79.212672 786.44418,181.819359 685.882305,281.049506 C668.602972,298.098685 650.73627,315.728407 633.115195,332.602569 C556.592739,405.861959 464.49966,484.18189 361.633162,509.616926 C312.537643,521.906506 263.388726,520.918303 215.536293,506.682196 C198.498316,501.645133 182.224986,496.507755 166.487763,491.541125 C110.670605,473.922075 60.5306361,458.110819 -0.000427177582,453.997929 L-0.000427177582,456.138681 C60.246563,460.25584 110.219932,476.018006 165.842725,493.577294 C181.590627,498.546058 197.874636,503.68557 214.929701,508.729037 C263.149507,523.073995 312.685019,524.07287 362.147911,511.689378 C465.499255,486.134819 557.867864,407.599319 634.593229,334.145703 C652.22712,317.2566 670.10023,299.624744 687.381699,282.569163 C787.755615,183.524704 891.544816,81.1122425 1029.95462,40.9331252 C1148.09486,6.64054205 1262.64252,-4.91695703 1370.41302,6.58291463 C1557.02128,26.3171042 1721.09805,113.377194 1844.90479,258.35284 C1872.93832,291.159917 1900.78816,323.12606 1927.67899,353.359111 C2143.91842,596.59591 2321.81439,713.122821 2487.52939,720.067992 C2492.84348,720.292099 2498.14689,720.403085 2503.45884,720.403085 C2540.3264,720.40095 2577.14484,714.975436 2614.32637,704.004882 L2614.32637,701.780891 C2571.80512,714.397027 2529.77725,719.707287 2487.61909,717.935777" id="Fill-7" fill="#F5F5F5" mask="url(#mask-6)"></path>
                </g>
                <g id="Group-12" transform="translate(0.000000, 288.563966)">
                    <mask id="mask-8" fill="white">
                        <use xlink:href="#path-7"></use>
                    </mask>
                    <g id="Clip-11"></g>
                    <path d="M2489.94892,702.856221 C2324.00325,697.608068 2144.14226,581.962941 1923.91299,338.912383 C1896.00975,308.138732 1867.59817,276.476867 1839.46639,244.808597 C1712.44941,101.707814 1545.76258,17.948741 1357.42853,2.58860508 C1250.06385,-6.31489324 1135.43716,8.00116341 1016.73946,45.1396406 C879.320703,88.1369186 776.210714,191.383337 676.494651,291.232761 C659.988509,307.758679 642.920629,324.850407 626.091968,341.252487 C551.032595,414.382875 460.650363,492.955714 359.415683,521.252612 C311.054909,534.770129 262.674912,535.378642 215.614894,523.043987 C197.739648,518.408617 180.648273,513.621652 164.118637,508.990552 C108.99137,493.547146 59.4900315,479.685872 -0.000854355163,476.184256 L-0.000854355163,478.327928 C59.2401327,481.829544 108.585551,495.65025 163.541947,511.046683 C180.080127,515.679919 197.182181,520.471154 215.074514,525.110795 C262.497634,537.53726 311.255683,536.935153 359.990237,523.308744 C461.69054,494.883738 552.329079,416.099521 627.582818,342.781241 C644.422158,326.368485 661.496446,309.272487 678.00686,292.740164 C777.539236,193.074361 880.459131,90.0179694 1017.37809,47.176556 C1135.81094,10.1192138 1250.17492,-4.17122122 1357.25339,4.71733118 C1545.03211,20.0326294 1711.22555,103.546163 1837.86875,246.226324 C1866.0048,277.898865 1894.42279,309.567135 1922.33244,340.347191 C2142.97393,583.854667 2323.31549,699.721848 2489.88057,704.991352 C2493.90245,705.11946 2497.90724,705.181379 2501.92057,705.181379 C2539.37977,705.179244 2576.70228,699.587335 2614.32594,688.273273 L2614.32594,686.080493 C2572.67186,698.675633 2531.41078,704.180002 2489.94892,702.856221" id="Fill-10" fill="#F5F5F5" mask="url(#mask-8)"></path>
                </g>
                <g id="Group-15" transform="translate(0.000000, 275.720075)">
                    <mask id="mask-10" fill="white">
                        <use xlink:href="#path-9"></use>
                    </mask>
                    <g id="Clip-14"></g>
                    <path d="M2500.3885,689.271917 C2497.68874,689.271917 2494.96762,689.241989 2492.26572,689.186409 C2325.48705,685.607917 2143.18688,570.525398 1918.55341,327.012627 L1895.73999,302.309487 C1875.04324,279.897949 1853.92785,257.033221 1832.40237,233.702477 C1702.5233,92.7902556 1533.71126,12.5242873 1344.21529,1.58359201 C1237.50846,-4.75893297 1123.06545,12.3062429 1004.11786,52.3109657 C868.196358,98.0233197 765.947132,202.036882 667.066201,302.628002 C651.346066,318.620058 635.091959,335.157225 619.068528,351.065911 C545.341949,424.245438 456.574448,503.233068 357.197991,534.20819 C309.695844,549.015966 262.086902,551.211373 215.684738,540.734556 C196.611259,536.495518 178.362232,532.032022 160.711255,527.718164 C108.736558,515.0096 58.9191087,502.83332 0.000640766373,499.776424 L0.000640766373,501.920527 C58.7055199,504.97956 108.371321,517.121637 160.205049,529.793861 C177.86457,534.111994 196.128548,538.577628 215.216978,542.818804 C261.995059,553.383266 309.973509,551.168619 357.83235,536.249684 C457.648799,505.135612 546.661928,425.944901 620.574329,352.58367 C636.604168,336.666434 652.864682,320.122854 668.589089,304.126523 C767.294877,203.714968 869.360416,99.887385 1004.79707,54.3374955 C1123.48409,14.4225556 1237.62807,-2.60627957 1344.09354,3.71700621 C1533.02351,14.6256361 1701.33788,94.6543209 1830.83249,235.149693 C1852.35797,258.482575 1873.47336,281.34944 1894.17439,303.760978 L1916.98353,328.461981 C2142.03777,572.43008 2324.82279,687.730643 2492.223,691.321961 C2494.95053,691.379679 2497.66738,691.409606 2500.39277,691.409606 C2538.43721,691.407469 2576.26592,685.644258 2614.32744,673.983161 L2614.32744,671.745 C2576.25737,683.474503 2538.42866,689.271917 2500.3885,689.271917" id="Fill-13" fill="#F5F5F5" mask="url(#mask-10)"></path>
                </g>
                <g id="Group-18" transform="translate(0.000000, 261.334882)">
                    <mask id="mask-12" fill="white">
                        <use xlink:href="#path-11"></use>
                    </mask>
                    <g id="Clip-17"></g>
                    <path d="M2498.86988,673.935089 C2497.43884,673.935089 2495.99925,673.926547 2494.56821,673.909464 C2326.97362,672.013203 2142.23427,557.757097 1913.1902,314.341728 C1885.83161,285.2999 1857.09537,255.104939 1825.34113,222.035692 C1692.58288,83.6342952 1521.64563,7.04501364 1331.00909,0.544769036 C1224.84051,-3.28618984 1110.65381,16.4964205 991.499031,59.3352533 C857.047023,107.672815 755.645744,212.268242 657.582859,313.419223 C642.665817,328.807122 627.242571,344.716065 612.043593,360.061254 C539.645536,433.124943 452.484222,512.347208 354.978803,545.933229 C308.540329,561.927589 261.698171,565.709433 215.757358,557.180531 C195.558266,553.428583 176.190034,549.386217 157.458297,545.476247 C106.41912,534.820459 57.5051509,524.606704 0.000640766373,522.131742 L0.000640766373,524.273577 C57.3214646,526.754945 106.10728,536.936668 157.022576,547.566832 C175.764993,551.478937 195.143904,555.525574 215.368626,559.279658 C261.681084,567.881164 308.886342,564.069424 355.675103,547.951209 C453.594884,514.222115 540.98901,434.80339 613.562209,361.562461 C628.767595,346.210865 644.195113,330.295515 659.116426,314.905482 C757.008441,213.929606 858.236712,109.51569 992.220961,61.3446916 C1111.11943,18.5976823 1225.10536,-1.15289669 1330.9322,2.68019762 C1521.00487,9.15908794 1691.43377,85.522014 1823.79902,223.513409 C1855.55112,256.580521 1884.28309,286.769075 1911.63527,315.806632 C2028.04543,439.522687 2131.10416,528.330891 2226.70009,587.315699 C2321.90943,646.057069 2409.52356,675.081814 2494.54471,676.044892 C2495.99071,676.061976 2497.42602,676.070518 2498.87202,676.070518 C2537.5081,676.068382 2575.8366,670.148974 2614.32744,658.160678 L2614.32744,655.922749 C2575.82592,667.979379 2537.49742,673.935089 2498.86988,673.935089" id="Fill-16" fill="#F5F5F5" mask="url(#mask-12)"></path>
                </g>
                <g id="Group-21" transform="translate(0.000000, 247.788623)">
                    <mask id="mask-14" fill="white">
                        <use xlink:href="#path-13"></use>
                    </mask>
                    <g id="Clip-20"></g>
                    <path d="M2497.35981,660.903025 L2496.86001,660.903025 C2328.45807,660.680662 2141.29021,546.997432 1907.82698,303.133328 C1879.81695,273.907522 1849.68811,243.116622 1818.27774,211.611593 C1682.62537,75.4098044 1509.56078,2.31642676 1317.79863,0.240323397 C1210.68171,-1.15158524 1099.8569,20.7554746 978.878069,67.2315393 C845.872057,118.325918 745.295231,223.798811 648.029032,325.801554 C633.940715,340.578022 619.371824,355.854807 605.022929,370.620585 C533.923492,443.752448 448.351279,523.401267 352.761752,559.655035 C307.235301,576.922399 261.162063,582.30188 215.825706,575.650224 C193.471503,572.370366 172.022917,568.65861 151.279174,565.07514 C102.093947,556.569744 54.9420854,548.417136 0.000640766372,546.469319 L0.000640766372,548.613842 C54.7861656,550.565935 101.833369,558.692886 150.916073,567.181177 C171.672631,570.771061 193.136169,574.480679 215.516002,577.764814 C261.217596,584.467784 307.649663,579.051955 353.51572,561.654166 C449.498251,525.252869 535.290461,445.413759 606.554361,372.112985 C620.911799,357.336517 635.482826,342.055455 649.575415,327.278987 C746.677151,225.447293 847.085241,120.149725 979.640581,69.2263946 C1100.36524,22.852959 1211.01491,0.984385159 1317.77086,2.37843191 C1508.967,4.44812095 1681.51471,77.3234115 1816.76554,213.123236 C1848.16736,244.615436 1878.28552,275.395646 1906.28701,304.610761 C2024.96335,428.578292 2129.71583,517.356834 2226.53136,576.024393 C2322.97311,634.465313 2411.39673,662.927814 2496.85574,663.041134 L2497.35981,663.041134 C2536.58753,663.041134 2575.4137,656.949662 2614.32744,644.614914 L2614.32744,642.369901 C2575.40515,654.779482 2536.57898,660.903025 2497.35981,660.903025" id="Fill-19" fill="#F5F5F5" mask="url(#mask-14)"></path>
                </g>
                <g id="Group-24" transform="translate(0.000000, 234.674081)">
                    <mask id="mask-16" fill="white">
                        <use xlink:href="#path-15"></use>
                    </mask>
                    <g id="Clip-23"></g>
                    <path d="M2499.13068,647.451269 C2498.04564,647.461964 2496.98624,647.466242 2495.89908,647.466242 C2327.53771,647.466242 2138.82561,534.328435 1902.46612,291.789743 C1873.73842,262.350213 1843.03504,231.849722 1811.21244,201.137466 C1672.65526,67.2510258 1497.57439,-2.30181633 1304.58837,0.0725118416 C1197.98834,1.11422159 1087.32158,25.6981438 966.255185,75.223207 C834.665267,129.056285 734.895807,235.379129 638.411342,338.200373 C625.170973,352.309443 611.482068,366.901936 598.000343,381.032397 C528.195255,454.1724 444.205734,534.18512 350.540642,573.077043 C305.936895,591.601081 260.636848,598.578611 215.892132,593.817121 C190.577589,591.121937 166.262641,587.782905 142.750787,584.555102 C96.1606639,578.155111 51.4672094,572.033195 0.000854355163,570.570095 L0.000854355163,572.711269 C51.3454638,574.174368 95.9534827,580.287728 142.460306,586.672746 C165.989247,589.904827 190.321282,593.245999 215.665728,595.943321 C260.773545,600.743314 306.419605,593.712308 351.358687,575.053511 C445.389016,536.007577 529.585718,455.8109 599.54459,382.512609 C613.030586,368.371453 626.723764,353.77896 639.968405,339.665611 C736.294813,237.009073 835.904082,130.859491 967.064687,77.2039528 C1087.87478,27.7815633 1198.28523,3.25111694 1304.60973,2.21154623 C1496.83537,-0.18203325 1671.58304,69.188991 1809.728,202.675432 C1841.53991,233.374853 1872.22622,263.860371 1900.94109,293.284928 C2021.88575,417.391704 2128.33199,506.063235 2226.3607,564.364756 C2322.77468,621.703712 2410.95268,649.607416 2495.82005,649.605277 C2496.92644,649.605277 2498.04137,649.600999 2499.14776,649.590303 C2537.84364,649.258753 2576.08031,643.008495 2614.32765,630.6791 L2614.32765,628.424558 C2576.06749,640.828819 2537.82228,647.119719 2499.13068,647.451269" id="Fill-22" fill="#F5F5F5" mask="url(#mask-16)"></path>
                </g>
                <path d="M2501.38745,852.515665 C2499.07429,852.560492 2496.78248,852.579703 2494.46077,852.579703 C2326.21688,852.579703 2136.11431,740.269154 1897.10418,499.866858 C1867.78485,470.413463 1836.50691,440.28126 1804.14607,410.307018 C1662.66699,279.077391 1485.32849,213.26299 1291.37919,220.033984 C1185.18071,223.468577 1074.70404,250.652879 953.633369,303.145157 C823.438186,359.595008 724.465412,466.549812 628.749867,569.982504 C616.374532,583.353723 603.576292,597.183883 590.978825,610.608467 C522.442454,683.584495 440.020676,763.773382 348.322736,805.178478 C304.6481,824.90444 260.119109,833.470644 215.955355,830.601723 C186.599711,828.704052 158.339778,825.805247 131.011092,823.0025 C89.8119506,818.775965 47.5619519,814.461912 0,813.383932 L0,815.516411 C47.4701088,816.59439 89.6560308,820.904175 130.791096,825.124306 C158.141141,827.929188 186.422432,830.832262 215.818658,832.732068 C260.330562,835.605257 305.201295,826.994227 349.202722,807.125245 C441.240268,765.564322 523.858548,685.198263 592.538023,612.066408 C605.137626,598.637555 617.938002,584.807395 630.317609,571.429772 C725.883641,468.159311 824.702631,361.375276 954.485588,305.102597 C1075.30209,252.721319 1185.52458,225.592517 1291.45181,222.168597 C1484.79879,215.423219 1661.63749,281.032696 1802.69367,411.869555 C1835.03528,441.82672 1866.28973,471.939711 1895.58984,501.371761 C2018.80708,625.307415 2126.94708,713.641986 2226.19111,771.432375 C2325.08699,829.01784 2415.13176,856.212815 2501.4259,854.650278 C2539.41694,853.952259 2576.90391,847.580438 2614.3268,835.353373 L2614.3268,833.097087 C2576.88255,845.403133 2539.38276,851.817646 2501.38745,852.515665" id="Fill-25" fill="#F5F5F5"></path>
                <g id="Group-29" transform="translate(0.000000, 205.147366)" fill="#F5F5F5">
                    <path d="M2503.62565,621.518108 C2332.97675,626.297806 2138.48493,514.792925 1891.74076,270.512978 C1861.86823,240.975091 1830.02,211.090757 1797.08247,181.691877 C1652.67082,52.6122538 1473.25837,-9.70130971 1278.17064,1.46628685 C1172.28614,7.25966469 1062.0017,37.154692 941.012194,92.8600836 C812.175435,152.177515 713.980124,260.239302 619.016412,364.744653 C607.529607,377.387861 595.647663,390.463059 583.955812,403.17684 C516.6668,476.300859 435.787132,556.98899 346.105471,601.04133 C303.351402,622.042057 259.621233,632.21522 216.021354,631.246449 C181.22774,630.480843 149.063404,628.218239 115.013078,625.823044 C78.5919179,623.258902 41.2694126,620.645573 -0.000213588791,619.954816 L-0.000213588791,622.093383 C41.2010642,622.786279 78.4829876,625.39533 114.86143,627.957334 C148.941658,630.354667 181.129489,632.617271 215.974364,633.385016 C259.890355,634.360203 303.983625,624.11219 347.047397,602.961763 C437.043034,558.753307 518.102116,477.894091 585.527826,404.626788 C597.221812,391.906592 609.105892,378.831393 620.596969,366.18177 C715.415441,261.83895 813.463376,153.939694 941.904995,94.8019024 C1062.6446,39.2119934 1172.67487,9.3811231 1278.29025,3.60271523 C1472.78634,-7.53066427 1651.67977,54.5925668 1795.65997,183.287248 C1828.57187,212.662604 1860.39446,242.521275 1890.23923,272.033499 C2015.73118,396.275684 2125.56708,484.619884 2226.01789,542.119534 C2326.13977,599.426712 2416.94918,626.09678 2503.68546,623.654537 C2540.97165,622.6045 2577.71533,616.111811 2614.32659,603.941227 L2614.32659,601.680762 C2577.68756,613.928334 2540.9268,620.468072 2503.62565,621.518108" id="Fill-27"></path>
                </g>
                <g id="Group-32" transform="translate(0.000000, 189.193891)" fill="#F5F5F5">
                    <path d="M2505.84911,608.604642 C2334.35867,614.999052 2137.55155,504.355666 1886.38395,260.141344 C1855.95182,230.592843 1823.52904,201.033656 1790.01696,172.282319 C1716.01699,108.712221 1632.67464,61.9359993 1542.30736,33.2551888 C1454.16354,5.28178138 1360.84232,-5.04715728 1264.96018,2.56757652 C1159.29567,10.6824079 1049.20346,43.2143972 928.393368,102.022882 C800.878724,164.099098 703.445925,273.060532 609.219094,378.437932 C598.445676,390.485155 587.695752,402.504595 576.930877,414.427862 C510.87,487.525459 431.519628,568.528446 343.886283,615.090951 C302.072006,637.308961 259.07231,649.05698 216.083294,650.010158 C174.016982,650.946238 134.727324,649.309166 93.1415863,647.578059 C63.3673089,646.340638 32.8988679,645.081846 -0.000213588791,644.703567 L-0.000213588791,646.834325 C32.8668295,647.214741 63.3053681,648.477808 93.051879,649.713091 C134.676063,651.446336 173.993487,653.083407 216.130284,652.147327 C259.45677,651.187738 302.776849,639.354232 344.888015,616.978071 C432.813976,570.26169 512.328811,489.094141 578.517842,415.857628 C589.284853,403.934361 600.034776,391.912784 610.810331,379.863424 C704.898329,274.6399 802.190159,165.836616 929.328887,103.946334 C1049.89122,45.2553938 1159.73139,12.7917939 1265.12678,4.6983342 C1460.66731,-10.8239256 1641.70731,47.6874923 1788.62649,173.906567 C1822.10654,202.625847 1854.49514,232.155113 1884.8931,261.673694 C2012.66191,385.903064 2124.18944,474.031373 2225.84702,531.095927 C2327.18636,587.98096 2418.76255,614.030915 2505.93027,610.739674 C2542.51376,609.359063 2578.51629,602.712467 2614.32659,590.639598 L2614.32659,588.387022 C2578.48211,600.54324 2542.45396,607.221894 2505.84911,608.604642" id="Fill-30"></path>
                </g>
                <g id="Group-35" transform="translate(0.000000, 174.079349)">
                    <mask id="mask-18" fill="white">
                        <use xlink:href="#path-17"></use>
                    </mask>
                    <g id="Clip-34"></g>
                    <path d="M2508.05591,597.327012 C2335.85636,605.461698 2136.625,495.402799 1881.01903,250.893777 C1850.02516,221.283349 1817.02996,192.00233 1782.95187,163.865686 C1707.56784,101.534698 1623.00163,56.2730747 1531.60699,29.3364195 C1442.33328,3.02435771 1348.17266,-5.36273232 1251.75441,4.40616342 C1146.20951,14.8253207 1036.30953,50.0463929 915.772834,112.077918 C789.548266,177.037759 692.863028,287.126605 599.360263,393.591953 C589.533043,404.781157 579.727181,415.946832 569.908505,427.037641 C501.780088,503.933203 426.97275,581.840521 341.665387,630.809062 C300.793036,654.271952 258.56226,667.625842 216.14139,670.498543 C164.497757,673.997977 115.387286,673.080338 63.3890949,672.102807 C42.8802992,671.717784 21.9336465,671.337039 0.000213588791,671.18089 L0.000213588791,673.319908 C21.9186953,673.476057 42.8503968,673.856802 63.348513,674.241825 C115.393694,675.219356 164.551154,676.139134 216.286631,672.633284 C259.03002,669.739192 301.570499,656.289046 342.729059,632.66573 C428.301272,583.543179 503.255987,505.48613 571.506149,428.457949 C581.326961,417.365001 591.134959,406.197187 600.964315,395.005844 C694.334655,288.690227 790.885332,178.755391 916.748934,113.981644 C1037.04214,52.0720431 1146.69222,16.9258364 1251.96586,6.53448644 C1448.56794,-13.3840502 1631.72032,41.5951324 1781.59131,165.517008 C1815.63095,193.621567 1848.58557,222.866223 1879.54313,252.440287 C2009.59093,376.841303 2122.81008,464.881149 2225.67231,521.595075 C2321.06747,574.191392 2407.66277,599.90239 2489.7364,599.898112 C2495.8963,599.898112 2502.04552,599.754797 2508.1563,599.463891 C2544.03708,597.763371 2579.30486,590.980545 2614.32701,578.995627 L2614.32701,576.732545 C2579.26641,588.805164 2543.96446,595.626492 2508.05591,597.327012" id="Fill-33" fill="#F5F5F5" mask="url(#mask-18)"></path>
                </g>
                <g id="Group-38" transform="translate(0.000000, 158.396525)">
                    <mask id="mask-20" fill="white">
                        <use xlink:href="#path-19"></use>
                    </mask>
                    <g id="Clip-37"></g>
                    <path d="M2510.24391,584.598947 C2337.30321,594.438905 2135.69675,485.171338 1875.65666,240.792419 C1844.12455,211.195602 1810.5548,182.246375 1775.8872,154.744076 C1699.11271,93.7572779 1613.32478,50.084447 1520.90918,24.9374113 C1430.50559,0.337514937 1335.50343,-6.09992103 1238.5448,5.80463353 C1133.01912,18.4957008 1023.31137,56.3444902 903.15059,121.511774 C778.173381,189.292931 682.220753,300.389996 589.424967,407.832341 C580.571711,418.084791 571.733407,428.320143 562.888695,438.49779 C495.973463,515.42002 422.592898,593.680177 339.447054,645.034331 C299.523037,669.69407 258.056909,684.631401 216.20205,689.427419 C152.268517,696.756094 92.4316172,696.497485 23.1348699,696.196131 C15.5247013,696.161935 7.8162818,696.132013 -0.00106794395,696.108503 L-0.00106794395,698.245766 C7.81414591,698.269276 15.5182936,698.299198 23.1284622,698.333394 C92.4828785,698.632611 152.381719,698.891219 216.443405,691.551858 C258.614376,686.719507 300.375256,671.681725 340.570531,646.855279 C423.957731,595.347242 497.474992,516.9503 564.497019,439.899834 C573.346003,429.720051 582.188579,419.484698 591.041834,409.230111 C683.711603,301.9331 779.533942,190.985643 904.169409,123.390428 C1024.0867,58.3556546 1133.54668,20.585944 1238.80324,7.92693562 C1436.46685,-16.3374105 1621.72309,35.0103316 1774.56082,156.41969 C1809.18356,183.883519 1842.70632,212.796412 1874.19358,242.348346 C2006.52038,366.70499 2121.43329,454.508026 2225.49588,510.77361 C2329.26586,566.8789 2422.45038,591.70962 2510.36566,586.734072 C2545.54373,584.735731 2580.08318,577.851607 2614.32573,565.974837 L2614.32573,563.709339 C2580.03832,575.671599 2545.4583,582.598468 2510.24391,584.598947" id="Fill-36" fill="#F5F5F5" mask="url(#mask-20)"></path>
                </g>
                <g id="Group-41" transform="translate(0.000000, 141.145418)" fill="#F5F5F5">
                    <path d="M2512.41739,572.910313 C2338.79747,584.350892 2134.77746,475.969721 1870.29473,231.717529 C1838.22224,202.132624 1804.07793,173.508753 1768.82083,146.640371 C1690.65588,86.9964503 1603.64621,44.9074217 1510.20966,21.5457471 C1418.67405,-1.34181737 1322.82822,-5.8309151 1225.33561,8.20018486 C1119.72236,23.1538777 1010.20685,63.6283688 890.53091,131.938683 C766.749798,202.59392 671.506285,314.787194 579.398255,423.283688 C571.548867,432.535245 563.710158,441.769716 555.865042,450.96361 C490.128819,527.959538 418.140853,606.60631 337.231284,660.274733 C298.268416,686.120147 257.571208,702.637122 216.263136,709.368633 C145.917668,720.830568 79.6111636,722.013708 0.000213588791,722.041472 L0.000213588791,724.181375 C79.7094144,724.160018 146.094946,722.9662 216.604878,711.476502 C258.21411,704.695871 299.195392,688.067843 338.410294,662.05585 C419.541996,608.242203 491.649572,529.463023 557.488316,452.349635 C565.333433,443.153605 573.174277,433.916998 581.027937,424.667578 C673.016357,316.309899 768.13599,204.261849 891.590311,133.792411 C1011.02703,65.6187775 1120.29478,25.2297117 1225.63891,10.3144602 C1424.33415,-18.2837833 1611.7156,29.4433129 1767.52649,148.338198 C1802.73019,175.168139 1836.8211,203.749297 1868.84874,233.287219 C2003.45453,357.600201 2120.05692,445.16537 2225.31561,500.982239 C2330.2945,556.653885 2424.26076,580.889033 2512.55623,575.039538 C2547.03586,572.760819 2580.85338,565.79866 2614.32701,554.042008 L2614.32701,551.771831 C2580.79998,563.616044 2546.93975,570.629459 2512.41739,572.910313" id="Fill-39"></path>
                </g>
                <g id="Group-44" transform="translate(0.000000, 123.894311)" fill="#F5F5F5">
                    <path d="M2514.57208,562.992289 C2340.2879,576.161585 2133.85646,468.339317 1864.93536,223.706506 C1832.3289,194.078799 1797.61218,165.721402 1761.75489,139.419167 C1682.1952,80.9871023 1593.96167,40.3949632 1499.51057,18.7676358 C1406.84294,-2.45336399 1310.15343,-5.00467435 1212.13113,11.1842774 C1106.31069,28.4318198 996.985272,71.6201791 877.911657,143.221539 C755.277517,216.963604 660.734575,330.562141 569.299349,440.422464 C562.477323,448.621729 555.659569,456.810302 548.841815,464.971074 C484.231206,542.265299 413.608072,621.507758 335.013805,677.508272 C297.012087,704.582529 257.077391,722.717577 216.318242,731.410852 C149.155247,745.734973 83.5557214,749.808943 -0.000213588791,750.106204 L-0.000213588791,752.234078 C83.6710593,751.934679 149.435048,747.862847 216.764643,733.50237 C257.81,724.751354 298.009547,706.496547 336.25262,679.249065 C415.041253,623.109545 485.777589,543.747325 550.482177,466.344034 C557.299931,458.181124 564.115549,449.990412 570.941847,441.791147 C662.261735,332.069831 756.689339,218.610301 879.013775,145.054291 C997.850307,73.596215 1106.92583,30.4955369 1212.475,13.295043 C1412.19761,-19.6944907 1601.69572,24.5182423 1760.49044,141.142852 C1796.2922,167.402315 1830.94911,195.712664 1863.50005,225.289045 C2000.39124,349.81566 2118.68098,437.325819 2225.13363,492.817354 C2331.32357,548.167743 2426.05661,571.824571 2514.73227,565.124441 C2548.51347,562.575269 2581.61119,555.543661 2614.32659,543.884194 L2614.32659,541.604481 C2581.55139,553.353768 2548.40241,560.43884 2514.57208,562.992289" id="Fill-42"></path>
                </g>
                <g id="Group-47" transform="translate(0.000000, 106.643205)" fill="#F5F5F5">
                    <path d="M2516.70796,551.469593 C2341.75525,566.2618 2132.93376,459.37011 1859.57215,215.058451 C1826.42744,185.46763 1791.14043,157.457036 1754.68724,131.801835 C1673.73281,74.7534995 1584.27755,35.7710041 1488.81404,15.9348824 C1395.00371,-3.5531621 1297.4748,-4.15962765 1198.92279,14.1389756 C1092.79266,33.6312911 983.659468,79.4130341 865.292832,154.100121 C743.758674,230.785982 649.892808,345.546776 559.117572,456.532108 C553.346403,463.585473 547.583777,470.632432 541.819016,477.662307 C478.259263,555.119063 408.945429,634.794543 332.798889,692.818776 C295.769,721.034372 256.601088,740.735961 216.378047,751.379004 C153.43343,768.035452 88.6711729,775.565021 -0.000213588791,776.062579 L-0.000213588791,778.198021 C88.8740823,777.698328 153.796531,770.14954 216.924834,753.443977 C257.419133,742.728328 296.841216,722.902884 334.091101,694.516452 C410.412784,636.359822 479.827005,556.573299 543.470057,479.016178 C549.236954,471.984167 554.99958,464.939343 560.768613,457.883843 C651.437055,347.033044 745.191854,232.404648 866.43126,155.906705 C984.565084,81.3669636 1093.45051,35.6813155 1199.31366,16.2381152 C1400.04014,-21.0296202 1591.66346,19.5352378 1753.45696,133.546491 C1789.84395,159.156848 1825.06688,187.116192 1858.14965,216.649356 C1997.32197,341.036722 2117.30333,428.239636 2224.94568,483.242218 C2332.33598,538.114538 2427.80377,561.128197 2516.88952,553.596493 C2549.97015,550.799064 2582.35875,543.722209 2614.32659,532.203634 L2614.32659,529.93793 C2582.29467,541.548329 2549.85054,548.667892 2516.70796,551.469593" id="Fill-45"></path>
                </g>
                <g id="Group-50" transform="translate(0.000000, 89.392098)" fill="#F5F5F5">
                    <path d="M2518.82933,541.070681 C2343.19527,557.518852 2132.00935,451.334349 1854.2115,206.857437 C1820.53922,177.253721 1784.67553,149.530284 1747.62215,124.460605 C1665.26444,68.6782716 1574.59173,31.2243889 1478.11581,13.1395203 C1383.17132,-4.65262305 1284.79446,-3.31719738 1185.71703,17.1201571 C1079.15117,38.9143042 970.210209,87.3806411 852.672297,165.281897 C732.195404,245.133942 638.998071,361.367256 548.870009,473.773774 L534.796643,491.315926 C476.497583,563.862658 407.828787,646.537259 330.582265,709.533028 C294.53702,738.927349 256.133756,760.23647 216.436143,772.868528 C152.417175,793.243919 84.4297267,802.976501 0.000213588791,803.579045 L0.000213588791,805.698633 C84.6390437,805.093952 152.859303,795.344276 217.083317,774.904785 C257.039372,762.189396 295.67972,740.754212 331.932146,711.188955 C409.338859,648.06285 478.093091,565.287825 536.4605,492.655625 L550.536001,475.111336 C640.561541,362.830882 733.652079,246.730043 853.853443,167.063889 C971.156407,89.3143374 1079.85174,40.9526979 1186.14634,19.2119679 C1385.00605,-21.8080354 1583.98109,16.2013843 1746.42391,126.229776 C1783.40681,151.250312 1819.19575,178.918195 1852.80181,208.462084 C1994.25953,332.953671 2115.92825,420.025561 2224.75815,474.65195 C2333.35096,529.156548 2429.61115,551.587426 2519.0301,543.196679 C2551.41871,540.160455 2583.09606,532.994027 2614.32701,521.594833 L2614.32701,519.321405 C2583.02771,530.816749 2551.28201,538.028047 2518.82933,541.070681" id="Fill-48"></path>
                </g>
                <g id="Group-53" transform="translate(0.000000, 73.709274)">
                    <mask id="mask-22" fill="white">
                        <use xlink:href="#path-21"></use>
                    </mask>
                    <g id="Clip-52"></g>
                    <path d="M2520.38288,529.990658 C2431.03885,539.174484 2334.4237,517.437365 2225.02804,463.547249 C2115.20315,409.447875 1992.02332,322.719335 1848.45019,198.403518 C1814.25564,168.819257 1777.82956,141.419385 1740.17989,116.966195 C1656.43922,62.5209058 1564.56044,26.6439844 1467.09967,10.3283341 C1371.03759,-5.74816525 1271.84071,-2.4705153 1172.25733,20.0780081 C1065.17006,44.1682014 956.447049,95.2546997 839.869952,176.260697 C720.403625,259.273855 627.873544,376.934014 538.390713,490.722917 L527.660205,504.36093 C470.17244,577.351098 402.62042,660.641842 328.296968,725.368489 C293.256787,755.885865 255.6242,778.776033 216.447701,793.400544 C151.554284,817.62953 81.9864227,829.490993 0.00106771228,830.114494 L0.00106771228,832.230553 C82.2362674,831.604917 152.06465,819.719966 217.192964,795.403434 C256.610766,780.68497 294.463302,757.664551 329.697807,726.978487 C404.160061,662.13013 471.791092,578.747569 529.336513,505.682667 L540.069157,492.044653 C629.453758,378.379597 721.883474,260.845418 841.089279,178.013759 C957.433616,97.1679078 1065.91318,46.1881733 1172.72498,22.159903 C1372.52385,-23.0780721 1573.63173,11.2294209 1739.01609,118.757692 C1776.58461,143.1575 1812.93167,170.497585 1847.05362,200.017787 C1990.76342,324.45318 2114.09273,411.279942 2224.08205,465.462592 C2333.84927,519.534207 2430.83599,541.335384 2520.60283,532.115258 C2552.29253,528.861097 2583.26046,521.63532 2613.76072,510.37387 L2613.76072,508.095529 C2583.18785,519.453067 2552.14518,526.727955 2520.38288,529.990658" id="Fill-51" fill="#F5F5F5" mask="url(#mask-22)"></path>
                </g>
                <path d="M2523.01759,575.29474 C2433.28894,585.33677 2335.90954,564.166392 2225.29831,510.598921 C2114.27059,456.830438 1989.37881,370.160194 1843.48913,245.639881 C1808.77454,216.027013 1771.76387,188.892576 1733.4909,164.989295 C1648.32664,111.768249 1555.20833,77.3909764 1456.72041,62.8133536 C1359.50547,48.423912 1259.43271,53.6502154 1159.30442,78.3554047 C1051.55315,104.816239 942.996647,158.638182 827.434432,242.898424 C708.860615,329.354826 616.931999,448.800663 528.029937,564.309666 L520.752967,573.765768 C461.321886,650.915757 397.341363,731.784462 326.152219,798.037052 C291.935295,829.884571 255.061326,854.403718 216.555539,870.920889 C150.701843,899.455993 81.1188869,913.29586 0,913.759897 L0,915.876935 C81.4115035,915.406482 151.282805,901.536677 217.399215,872.886099 C256.12927,856.274837 293.208284,831.616693 327.606759,799.604516 C398.917649,733.23645 462.957976,652.292901 522.44459,575.072344 L529.72156,565.616242 C618.531779,450.224852 710.36428,330.903043 828.690334,244.626269 C944.024009,160.532824 1052.33489,106.826355 1159.8149,80.4318125 C1360.6204,30.8867132 1563.95693,61.5623768 1732.35888,166.804816 C1770.54642,190.650359 1807.46738,217.722782 1842.10293,247.26722 C1988.13359,371.907285 2113.17274,458.673758 2224.37134,512.5235 C2335.35421,566.270599 2433.12021,587.494437 2523.25467,577.420331 C2554.2635,573.953949 2584.54184,566.676899 2614.3268,555.537859 L2614.3268,553.247609 C2584.46281,564.487155 2554.10544,571.819804 2523.01759,575.29474" id="Fill-54" fill="#F5F5F5"></path>
                <g id="Group-58" transform="translate(0.000000, 36.070496)">
                    <mask id="mask-24" fill="white">
                        <use xlink:href="#path-23"></use>
                    </mask>
                    <g id="Clip-57"></g>
                    <path d="M2525.08684,510.86059 C2345.09343,532.55557 2133.23471,431.745263 1838.12548,183.981161 C1802.87265,154.393019 1765.28957,127.592585 1726.42282,104.323245 C1639.85314,52.4612208 1545.51311,19.6709552 1446.02345,6.86459406 C1347.66154,-5.79650723 1246.75152,1.37249158 1146.10207,28.1665178 C1037.58829,56.9664111 929.226151,113.389166 814.815179,200.656132 C697.119212,290.42883 605.810004,411.428115 517.508126,528.445572 L513.727604,533.454899 C449.638152,618.357121 391.119095,694.037482 323.939012,760.429759 C290.975854,793.21148 254.866533,819.304841 216.612781,837.981408 C150.872287,870.295307 79.702366,886.35506 -0.000427177581,886.792976 L-0.000427177581,888.901379 C80.0398363,888.469872 151.521597,872.35885 217.554707,839.899692 C256.015641,821.118453 292.317192,794.892649 325.442677,761.946442 C392.721011,695.458037 451.289193,619.713592 515.434179,534.745148 L519.212564,529.733685 C607.429007,412.829445 698.646372,291.949786 816.109527,202.35439 C930.294095,115.260454 1038.41488,58.9594611 1146.651,30.2300616 C1348.42406,-23.4904337 1553.93278,3.47875881 1725.32711,106.153946 C1764.09774,129.367745 1801.58685,156.101958 1836.75211,185.615334 C1985.0703,310.139305 2111.79467,396.620159 2224.168,450.003139 C2336.34483,503.289991 2434.86266,523.899794 2525.34101,512.979675 C2555.65994,509.324682 2585.25053,502.036057 2614.32637,491.053988 L2614.32637,488.759738 C2585.16723,499.846479 2555.49334,507.194916 2525.08684,510.86059" id="Fill-56" fill="#F5F5F5" mask="url(#mask-24)"></path>
                </g>
                <g id="Group-61" transform="translate(0.000000, 18.819389)">
                    <mask id="mask-26" fill="white">
                        <use xlink:href="#path-25"></use>
                    </mask>
                    <g id="Clip-60"></g>
                    <path d="M2527.13494,500.919233 C2436.71426,512.618488 2337.84615,492.675895 2224.86195,439.943756 C2111.48261,387.025676 1983.22681,300.792288 1832.76419,176.315116 C1796.99234,146.725018 1758.83897,120.216822 1719.35922,97.5236002 C1631.37559,46.9436618 1535.81383,15.6907911 1435.32458,4.63484498 C1335.82637,-6.31637636 1234.07267,2.79895522 1132.8978,31.7222336 C1023.52966,62.9430457 915.357617,122.048437 802.198276,212.423797 C685.298994,305.782745 594.585699,428.646301 506.860511,547.464061 L506.706727,547.67351 C452.100617,621.619901 390.211129,705.429658 321.728155,777.696178 C289.747505,811.556482 254.404968,839.259396 216.680916,860.035513 C151.359056,896.127096 78.604306,914.518053 -0.000640766373,914.877109 L-0.000640766373,916.992977 C78.9652711,916.629646 152.072442,898.174573 217.710414,861.907736 C255.628832,841.024757 291.148648,813.185059 323.280945,779.164462 C391.849355,706.806041 453.781561,622.938579 508.423981,548.943031 L508.577765,548.735719 C596.221789,430.026959 686.849649,307.276677 803.528934,214.092982 C916.464007,123.899288 1024.39469,64.9178561 1133.48517,33.7782591 C1336.20229,-24.1794341 1543.89603,-0.881373263 1718.29555,99.3787251 C1757.67064,122.009967 1795.72576,148.449772 1831.40577,177.962928 C1982.00509,302.557649 2110.41467,388.885075 2223.96061,441.880096 C2337.32713,494.789627 2436.58184,514.787788 2527.40834,503.039376 C2557.04378,499.203029 2585.95089,491.915038 2614.32616,481.072816 L2614.32616,478.771008 C2585.85904,489.717954 2556.86437,497.0722 2527.13494,500.919233" id="Fill-59" fill="#F5F5F5" mask="url(#mask-26)"></path>
                </g>
                <g id="Group-64" fill="#F5F5F5">
                    <path d="M2529.1666,491.946694 C2438.4234,504.485363 2338.80986,485.134245 2224.64024,432.781452 C2110.08617,380.255461 1980.14943,294.178265 1827.40354,169.636179 C1727.27952,87.9979807 1613.95999,35.1170409 1490.59324,12.4580575 C1369.25345,-9.83314779 1244.46633,-1.81472862 1119.69417,36.2823845 C1009.36701,69.9661597 901.387201,131.759305 789.579877,225.19634 C673.404662,322.279083 583.263785,447.126938 496.093927,567.862948 C440.567249,644.76921 383.150311,724.290546 319.517938,795.958107 C233.809028,892.491321 122.586937,943.377278 -0.000213588791,943.839139 L-0.000213588791,946.154858 C47.6535815,946.099264 93.5901228,938.452899 137.298933,923.247838 C206.482478,899.179751 268.327113,856.831807 321.115582,797.377902 C384.816303,725.631225 442.267416,646.062848 497.821861,569.11596 C584.919098,448.486862 674.980947,323.750195 790.948981,226.836374 C902.534173,133.587505 1010.2705,71.9269305 1120.31571,38.3265468 C1371.22274,-38.2760842 1628.4584,10.1829647 1826.05793,171.295457 C1978.94479,295.950871 2109.03104,382.122149 2223.74958,434.725116 C2338.29725,487.253246 2438.29098,506.662097 2529.45922,494.063556 C2558.41331,490.060762 2586.64334,482.767208 2614.32659,472.073844 L2614.32659,469.790198 C2586.54723,480.588336 2558.22322,487.93107 2529.1666,491.946694" id="Fill-62"></path>
                </g>
            </g>
            <g id="Page-1" transform="translate(384.239598, -228.823776) rotate(-210.000000) translate(-384.239598, 228.823776) translate(-229.760402, -473.823776)" fill="#F5F5F5">
                <path d="M1227.86487,78.5384434 C1107.30197,7.33107404 931.384346,-6.53361013 718.973067,40.443433 C431.129272,104.101271 253.17659,92.5993722 154.583281,71.736604 C47.7987194,49.1429581 8.55175289,11.0243983 8.16711339,10.6397587 L6.77966375,12.0291708 C7.16822814,12.4177352 46.6742376,50.8620612 153.904274,73.5989657 C252.71149,94.5520065 431.0233,106.136328 719.396955,42.3587807 C931.896544,-4.64181175 1107.71605,9.35043143 1227.86487,80.8227311 L1227.86487,78.5384434 Z" id="Fill-1"></path>
                <path d="M1227.86487,94.5943953 C1108.56971,20.4394313 931.894582,3.795923 717.136217,48.4710164 C428.701725,108.468892 251.202369,94.8416636 153.082009,72.8406764 C46.8194586,49.0126516 8.23972391,10.5192645 7.86097174,10.1326626 L6.45782253,11.5024502 C6.83853714,11.8929771 45.6714275,50.7180176 152.381416,74.6932259 C250.701945,96.786448 428.564354,110.503949 717.534594,50.3922515 C932.410705,5.69164627 1109.00145,22.4607512 1227.86487,96.8943825 L1227.86487,94.5943953 Z" id="Fill-3"></path>
                <path d="M1227.86487,110.809502 C1109.91399,33.6441448 932.479391,14.159014 715.299367,56.4968337 C426.276142,112.832784 249.218336,97.0821887 151.5827,73.9429826 C45.8382354,48.880579 7.92769492,10.0162895 7.55679254,9.62380022 L6.13401887,10.9778883 C6.50688369,11.3703776 44.6686173,50.5722078 150.856595,75.7857198 C248.696325,99.0191233 426.113259,114.863916 715.674195,58.4239561 C933.011214,16.0606246 1110.36142,35.6968637 1227.86487,113.164437 L1227.86487,110.809502 Z" id="Fill-5"></path>
                <path d="M1227.86487,127.202798 C1111.33872,46.9564002 933.142698,24.5668487 713.460555,64.5242209 C423.850558,117.202171 247.242152,99.3223213 150.083391,75.0468587 C44.8570122,48.7520387 7.61370349,9.512922 7.2506509,9.11847026 L5.80825276,10.4509714 C6.17523024,10.8473856 43.6638448,50.4260056 149.333736,76.8797837 C246.688742,101.255331 423.656276,119.231341 713.813795,66.4552682 C933.658821,26.462572 1111.7999,49.0051943 1227.86487,129.577358 L1227.86487,127.202798 Z" id="Fill-7"></path>
                <path d="M1227.86487,143.764865 C1112.84784,60.3667781 933.868803,35.008045 711.625668,72.5496456 C421.417124,121.57352 245.258119,101.564416 148.582119,76.1487724 C43.8777514,48.6234985 7.3016745,9.00955448 6.94450925,8.6131403 L5.48444909,9.92405453 C5.84553924,10.3243936 42.6629971,50.2798033 147.808915,77.97581 C244.690972,103.493501 421.203218,123.598765 711.951434,74.4846178 C934.422213,36.9037683 1113.33649,62.4450088 1227.86487,146.202223 L1227.86487,143.764865 Z" id="Fill-9"></path>
                <path d="M1227.86487,160.535736 C1114.45509,73.9035374 934.694993,45.4951626 709.788818,80.5778178 C418.99154,125.939767 243.27801,103.809259 147.08281,77.2534335 C42.8984906,48.4918183 6.98964552,8.5050095 6.6383676,8.10467043 L5.16064543,9.39596019 C5.51388579,9.80022416 41.6601869,50.134386 146.284094,79.066734 C202.492486,94.6112723 285.749276,108.654539 403.184034,108.650614 C487.157118,108.648652 588.621487,101.464135 710.091034,82.5167149 C935.24644,47.3908859 1114.96532,75.9817682 1227.86487,162.992719 L1227.86487,160.535736 Z" id="Fill-11"></path>
                <path d="M1227.86487,177.500104 C1116.16438,87.5494088 935.609493,56.0227066 707.950005,88.6032425 C416.565957,130.307192 241.299864,106.051354 145.583501,78.3553472 C41.9172674,48.3613157 6.67957898,8.00164199 6.3341884,7.59737802 L4.83880421,8.86708087 C5.18419478,9.27526973 40.6573768,49.9862213 144.761236,80.1588355 C240.677769,107.956889 416.295139,132.328512 708.230635,90.5460645 C936.172715,57.9184299 1116.70209,89.6610012 1227.86487,180.03166 L1227.86487,177.500104 Z" id="Fill-13"></path>
                <path d="M1227.86487,194.694471 C1117.98749,101.333044 936.622115,66.6036291 706.115118,96.6310222 C414.13841,134.676972 239.321718,108.293841 144.08223,79.4596158 C40.9380066,48.2331679 6.36558755,7.50062941 6.0300092,7.09244055 L4.51500055,8.34251894 C4.85450378,8.75267024 39.6545667,49.8404115 143.238378,81.2532919 C238.672148,110.195452 413.838156,136.696329 706.368273,98.5777691 C937.197112,68.4954275 1118.5566,103.442674 1227.86487,197.249577 L1227.86487,194.694471 Z" id="Fill-15"></path>
                <path d="M1227.86487,212.136107 C1119.93424,115.256013 937.74071,77.2277255 704.278268,104.656839 C411.708902,139.046751 237.34161,110.534367 142.58292,80.5638844 C39.9567834,48.1030577 6.05159611,6.99765438 5.71994267,6.58750308 L4.19119688,7.81403211 C4.52285033,8.23007075 38.6517565,49.6965642 141.713557,82.3457858 C205.858081,102.668881 306.370664,122.326707 455.226152,122.322782 C526.723963,122.322782 609.401832,117.785606 704.507874,106.607511 C938.341218,79.1273736 1120.53671,117.406854 1227.86487,214.779522 L1227.86487,212.136107 Z" id="Fill-17"></path>
                <path d="M1227.86487,229.805778 C1122.01443,129.303008 938.979014,87.8914632 702.441418,112.686974 C409.281355,143.412998 235.361501,112.779209 141.081649,81.6665831 C38.9775226,47.97334 5.74152958,6.49507185 5.41772591,6.0790332 L3.86935566,7.28593777 C4.19512177,7.70393886 37.6509088,49.547222 140.190698,83.4386722 C234.660908,114.663158 408.928115,145.422543 702.64355,114.637646 C939.620734,89.8048485 1122.66204,131.498986 1227.86487,232.539466 L1227.86487,229.805778 Z" id="Fill-19"></path>
                <path d="M1227.86487,247.82241 C1124.25358,143.551743 940.366463,98.6313439 700.602606,120.712791 C406.857734,147.77689 233.37943,115.017772 139.580377,82.7708517 C37.9962994,47.8451922 5.42753814,5.99209682 5.10962182,5.57409573 L3.545552,6.75745094 C3.86346832,7.17937693 36.6461363,49.4014123 138.665877,84.5311662 C208.218904,108.480863 321.444215,132.719039 494.897007,132.715114 C555.844706,132.713151 624.259514,129.718458 700.783151,122.66935 C941.012108,100.536879 1124.93848,145.753608 1227.86487,250.593385 L1227.86487,247.82241 Z" id="Fill-21"></path>
                <path d="M1227.86487,266.124578 C1126.6615,157.95453 941.905021,109.401643 698.765756,128.743515 C404.420375,152.149614 231.399322,117.265165 138.081068,83.8761015 C37.0150762,47.7160633 5.11550916,5.49010302 4.80544262,5.07013948 L3.22174834,6.22994533 C3.53377732,6.65579621 35.6433261,49.2546213 137.143019,85.6246413 C230.65163,119.131452 404.012187,154.149346 698.922752,130.698111 C942.603652,111.330727 1127.40331,160.211344 1227.86487,269.011337 L1227.86487,266.124578 Z" id="Fill-23"></path>
                <path d="M1227.86487,284.760166 C1129.25193,172.545516 943.575063,120.260055 696.930869,136.770117 C401.996754,156.526065 229.421176,119.506476 136.579797,84.9791927 C36.033853,47.5887005 4.79955528,4.98987542 4.49537608,4.56402454 L2.89794467,5.70224348 C3.20212387,6.13201926 34.640516,49.1056716 135.618198,86.7159578 C228.646009,121.36295 401.565016,158.512061 697.062352,138.728638 C944.344342,122.17344 1130.06439,174.853353 1227.86487,287.772521 L1227.86487,284.760166 Z" id="Fill-25"></path>
                <path d="M1227.86487,303.834557 C1132.07393,187.373172 945.490411,131.168706 695.094019,144.799859 C399.575095,160.889957 227.441067,121.750926 135.078525,86.0854237 C35.0545922,47.4566278 4.4875263,4.4869004 4.19119688,4.05712463 L2.5780659,5.17375666 C2.87635776,5.60549487 33.6396683,48.9578994 134.093377,87.8084517 C226.642352,123.597588 399.108033,162.885766 695.199991,146.758381 C946.265577,133.093866 1132.94918,189.714371 1227.86487,306.93326 L1227.86487,303.834557 Z" id="Fill-27"></path>
                <path d="M1227.86487,323.357367 C1135.14712,202.445154 947.603966,142.158799 693.257169,152.826658 C397.145587,165.264643 225.458996,123.994394 133.579216,87.1887111 C34.0714065,47.3294613 4.17353486,3.9849066 3.88309279,3.55120593 L2.25229979,4.6442886 C2.54470431,5.07995171 32.6368582,48.8111084 132.570519,88.898002 C224.634769,125.833207 396.664787,167.234939 693.337629,154.789104 C948.45763,144.058447 1136.10283,204.819714 1227.86487,326.567929 L1227.86487,323.357367 Z" id="Fill-29"></path>
                <path d="M1227.86487,346.780342 L1227.86487,343.397085 C1138.51468,217.786775 949.966751,153.222287 691.420319,160.856203 C394.723928,169.630301 223.478888,126.236686 132.077945,88.2927835 C33.0901833,47.2011173 3.86150588,3.48173533 3.57891359,3.04607222 L1.93045857,4.11364308 C2.21501331,4.55323109 31.634048,48.6631399 131.04766,89.9902997 C222.633074,128.063723 394.192105,171.59471 691.47723,162.81865 C950.867514,155.153334 1139.57048,220.239833 1227.86487,346.780342" id="Fill-31"></path>
                <path d="M1227.86487,367.627411 L1227.86487,364.043984 C1142.2394,233.437285 952.706326,164.310109 689.581507,168.886534 C392.314043,174.016369 221.49878,128.483687 130.574711,89.4015658 C32.1089601,47.0735583 3.54751445,2.98131148 3.2708095,2.54368592 L1.60861735,3.58574499 C1.88728475,4.03122033 30.6332003,48.5159564 129.522839,91.0833824 C220.625491,130.29895 391.758671,175.976853 689.616831,170.848981 C953.609052,166.29218 1143.41099,235.982578 1227.86487,367.627411" id="Fill-33"></path>
                <path d="M1227.86487,389.237283 L1227.86487,385.422287 C1146.38213,249.477734 955.738306,175.613212 687.744657,176.914314 C389.943408,178.35475 219.518671,130.726174 129.077364,90.5038719 C31.1277368,46.9454105 3.23548546,2.48226135 2.9627054,2.03678601 L1.28677614,3.05725816 C1.55759375,3.50469595 29.6303902,48.3681842 127.999981,92.1739139 C218.621833,132.531625 389.217303,180.277947 687.756431,178.87676 C690.09763,178.864986 692.407429,178.859098 694.738816,178.859098 C960.134186,178.859098 1148.40737,253.310392 1227.86487,389.237283" id="Fill-35"></path>
                <path d="M1227.86487,411.841918 L1227.86487,407.695269 C1151.05275,265.965424 959.223611,186.961255 685.909769,184.94386 C387.429514,182.73807 217.5366,132.970428 127.57413,91.6099067 C30.1445512,46.8170665 2.91953158,1.97909008 2.65460131,1.53165229 L0.962972473,2.52661264 C1.22790274,2.97797532 28.6275801,48.2182533 126.477122,93.2642491 C216.616213,134.764104 386.84078,184.696592 685.89407,186.906306 C960.522751,188.933513 1152.58738,268.750135 1227.86487,411.841918" id="Fill-37"></path>
                <path d="M1226.29334,432.324953 C1226.82909,433.439623 1227.34325,434.564105 1227.86526,435.684661 L1227.86526,431.0788 C1156.39885,283.002403 963.305892,198.442548 684.071349,192.971247 C385.000398,187.107457 215.556884,135.216448 126.073251,92.7157453 C29.1637204,46.6885263 2.60593264,1.47768501 2.34885215,1.02828478 L0.643486191,1.99773332 C0.902529122,2.45105845 27.6271249,48.0681262 124.954657,94.3563506 C214.610985,136.996387 384.386152,189.058129 684.034063,194.933694 C962.740708,200.395182 1155.3195,284.703844 1226.29334,432.324953" id="Fill-39"></path>
                <path d="M1221.70141,446.914957 C1223.89543,451.642491 1225.9403,456.423011 1227.86546,461.236892 L1227.86546,456.046221 C1226.46623,452.708099 1225.01206,449.385678 1223.48135,446.088768 C1154.26783,296.931063 962.046198,209.892638 682.232733,201.000793 C382.571085,191.479003 213.575009,137.460702 124.572176,93.8217801 C28.180731,46.5621448 2.29017501,0.980401083 2.04094431,0.52315106 L0.319878771,1.46905025 C0.573034363,1.92826272 26.624511,47.9221201 123.430032,95.4466858 C212.607523,139.228866 381.93329,193.421825 682.171897,202.963239 C961.206271,211.829572 1152.81365,298.463733 1221.70141,446.914957" id="Fill-41"></path>
                <path d="M1217.10968,461.478076 C1221.19549,470.607377 1224.77303,479.899561 1227.86389,489.325191 L1227.86389,483.200396 C1225.20085,475.595916 1222.21793,468.083671 1218.90139,460.675436 C1151.7661,310.695466 960.521769,221.327617 680.396276,209.028965 C380.143932,195.849175 211.593331,139.705544 123.069334,94.9284037 C27.1999003,46.4343895 1.97657606,0.477818547 1.7332327,0.0186060781 L0.00039248929,0.938993463 C0.243735849,1.40213082 25.6240558,47.772778 121.907566,96.5376098 C210.602296,141.461934 379.480625,197.784147 680.311891,210.991412 C959.656331,223.252777 1150.29427,312.210475 1217.10968,461.478076" id="Fill-43"></path>
            </g>
        </g>
    </g>
</svg>