<?xml version="1.0" encoding="UTF-8"?>
<svg width="397px" height="218px" viewBox="0 0 397 218" version="1.1" xmlns="http://www.w3.org/2000/svg" xmlns:xlink="http://www.w3.org/1999/xlink">
    <!-- Generator: Sketch 43.2 (39069) - http://www.bohemiancoding.com/sketch -->
    <title>header-top-left</title>
    <desc>Created with Sketch.</desc>
    <defs></defs>
    <g id="Page-1" stroke="none" stroke-width="1" fill="none" fill-rule="evenodd">
        <g id="Spletnibit-home" fill="#F5F5F5">
            <g id="Page-1" transform="translate(384.239598, -228.823776) rotate(-210.000000) translate(-384.239598, 228.823776) translate(-229.760402, -473.823776)">
                <path d="M1227.86487,78.5384434 C1107.30197,7.33107404 931.384346,-6.53361013 718.973067,40.443433 C431.129272,104.101271 253.17659,92.5993722 154.583281,71.736604 C47.7987194,49.1429581 8.55175289,11.0243983 8.16711339,10.6397587 L6.77966375,12.0291708 C7.16822814,12.4177352 46.6742376,50.8620612 153.904274,73.5989657 C252.71149,94.5520065 431.0233,106.136328 719.396955,42.3587807 C931.896544,-4.64181175 1107.71605,9.35043143 1227.86487,80.8227311 L1227.86487,78.5384434 Z" id="Fill-1"></path>
                <path d="M1227.86487,94.5943953 C1108.56971,20.4394313 931.894582,3.795923 717.136217,48.4710164 C428.701725,108.468892 251.202369,94.8416636 153.082009,72.8406764 C46.8194586,49.0126516 8.23972391,10.5192645 7.86097174,10.1326626 L6.45782253,11.5024502 C6.83853714,11.8929771 45.6714275,50.7180176 152.381416,74.6932259 C250.701945,96.786448 428.564354,110.503949 717.534594,50.3922515 C932.410705,5.69164627 1109.00145,22.4607512 1227.86487,96.8943825 L1227.86487,94.5943953 Z" id="Fill-3"></path>
                <path d="M1227.86487,110.809502 C1109.91399,33.6441448 932.479391,14.159014 715.299367,56.4968337 C426.276142,112.832784 249.218336,97.0821887 151.5827,73.9429826 C45.8382354,48.880579 7.92769492,10.0162895 7.55679254,9.62380022 L6.13401887,10.9778883 C6.50688369,11.3703776 44.6686173,50.5722078 150.856595,75.7857198 C248.696325,99.0191233 426.113259,114.863916 715.674195,58.4239561 C933.011214,16.0606246 1110.36142,35.6968637 1227.86487,113.164437 L1227.86487,110.809502 Z" id="Fill-5"></path>
                <path d="M1227.86487,127.202798 C1111.33872,46.9564002 933.142698,24.5668487 713.460555,64.5242209 C423.850558,117.202171 247.242152,99.3223213 150.083391,75.0468587 C44.8570122,48.7520387 7.61370349,9.512922 7.2506509,9.11847026 L5.80825276,10.4509714 C6.17523024,10.8473856 43.6638448,50.4260056 149.333736,76.8797837 C246.688742,101.255331 423.656276,119.231341 713.813795,66.4552682 C933.658821,26.462572 1111.7999,49.0051943 1227.86487,129.577358 L1227.86487,127.202798 Z" id="Fill-7"></path>
                <path d="M1227.86487,143.764865 C1112.84784,60.3667781 933.868803,35.008045 711.625668,72.5496456 C421.417124,121.57352 245.258119,101.564416 148.582119,76.1487724 C43.8777514,48.6234985 7.3016745,9.00955448 6.94450925,8.6131403 L5.48444909,9.92405453 C5.84553924,10.3243936 42.6629971,50.2798033 147.808915,77.97581 C244.690972,103.493501 421.203218,123.598765 711.951434,74.4846178 C934.422213,36.9037683 1113.33649,62.4450088 1227.86487,146.202223 L1227.86487,143.764865 Z" id="Fill-9"></path>
                <path d="M1227.86487,160.535736 C1114.45509,73.9035374 934.694993,45.4951626 709.788818,80.5778178 C418.99154,125.939767 243.27801,103.809259 147.08281,77.2534335 C42.8984906,48.4918183 6.98964552,8.5050095 6.6383676,8.10467043 L5.16064543,9.39596019 C5.51388579,9.80022416 41.6601869,50.134386 146.284094,79.066734 C202.492486,94.6112723 285.749276,108.654539 403.184034,108.650614 C487.157118,108.648652 588.621487,101.464135 710.091034,82.5167149 C935.24644,47.3908859 1114.96532,75.9817682 1227.86487,162.992719 L1227.86487,160.535736 Z" id="Fill-11"></path>
                <path d="M1227.86487,177.500104 C1116.16438,87.5494088 935.609493,56.0227066 707.950005,88.6032425 C416.565957,130.307192 241.299864,106.051354 145.583501,78.3553472 C41.9172674,48.3613157 6.67957898,8.00164199 6.3341884,7.59737802 L4.83880421,8.86708087 C5.18419478,9.27526973 40.6573768,49.9862213 144.761236,80.1588355 C240.677769,107.956889 416.295139,132.328512 708.230635,90.5460645 C936.172715,57.9184299 1116.70209,89.6610012 1227.86487,180.03166 L1227.86487,177.500104 Z" id="Fill-13"></path>
                <path d="M1227.86487,194.694471 C1117.98749,101.333044 936.622115,66.6036291 706.115118,96.6310222 C414.13841,134.676972 239.321718,108.293841 144.08223,79.4596158 C40.9380066,48.2331679 6.36558755,7.50062941 6.0300092,7.09244055 L4.51500055,8.34251894 C4.85450378,8.75267024 39.6545667,49.8404115 143.238378,81.2532919 C238.672148,110.195452 413.838156,136.696329 706.368273,98.5777691 C937.197112,68.4954275 1118.5566,103.442674 1227.86487,197.249577 L1227.86487,194.694471 Z" id="Fill-15"></path>
                <path d="M1227.86487,212.136107 C1119.93424,115.256013 937.74071,77.2277255 704.278268,104.656839 C411.708902,139.046751 237.34161,110.534367 142.58292,80.5638844 C39.9567834,48.1030577 6.05159611,6.99765438 5.71994267,6.58750308 L4.19119688,7.81403211 C4.52285033,8.23007075 38.6517565,49.6965642 141.713557,82.3457858 C205.858081,102.668881 306.370664,122.326707 455.226152,122.322782 C526.723963,122.322782 609.401832,117.785606 704.507874,106.607511 C938.341218,79.1273736 1120.53671,117.406854 1227.86487,214.779522 L1227.86487,212.136107 Z" id="Fill-17"></path>
                <path d="M1227.86487,229.805778 C1122.01443,129.303008 938.979014,87.8914632 702.441418,112.686974 C409.281355,143.412998 235.361501,112.779209 141.081649,81.6665831 C38.9775226,47.97334 5.74152958,6.49507185 5.41772591,6.0790332 L3.86935566,7.28593777 C4.19512177,7.70393886 37.6509088,49.547222 140.190698,83.4386722 C234.660908,114.663158 408.928115,145.422543 702.64355,114.637646 C939.620734,89.8048485 1122.66204,131.498986 1227.86487,232.539466 L1227.86487,229.805778 Z" id="Fill-19"></path>
                <path d="M1227.86487,247.82241 C1124.25358,143.551743 940.366463,98.6313439 700.602606,120.712791 C406.857734,147.77689 233.37943,115.017772 139.580377,82.7708517 C37.9962994,47.8451922 5.42753814,5.99209682 5.10962182,5.57409573 L3.545552,6.75745094 C3.86346832,7.17937693 36.6461363,49.4014123 138.665877,84.5311662 C208.218904,108.480863 321.444215,132.719039 494.897007,132.715114 C555.844706,132.713151 624.259514,129.718458 700.783151,122.66935 C941.012108,100.536879 1124.93848,145.753608 1227.86487,250.593385 L1227.86487,247.82241 Z" id="Fill-21"></path>
                <path d="M1227.86487,266.124578 C1126.6615,157.95453 941.905021,109.401643 698.765756,128.743515 C404.420375,152.149614 231.399322,117.265165 138.081068,83.8761015 C37.0150762,47.7160633 5.11550916,5.49010302 4.80544262,5.07013948 L3.22174834,6.22994533 C3.53377732,6.65579621 35.6433261,49.2546213 137.143019,85.6246413 C230.65163,119.131452 404.012187,154.149346 698.922752,130.698111 C942.603652,111.330727 1127.40331,160.211344 1227.86487,269.011337 L1227.86487,266.124578 Z" id="Fill-23"></path>
                <path d="M1227.86487,284.760166 C1129.25193,172.545516 943.575063,120.260055 696.930869,136.770117 C401.996754,156.526065 229.421176,119.506476 136.579797,84.9791927 C36.033853,47.5887005 4.79955528,4.98987542 4.49537608,4.56402454 L2.89794467,5.70224348 C3.20212387,6.13201926 34.640516,49.1056716 135.618198,86.7159578 C228.646009,121.36295 401.565016,158.512061 697.062352,138.728638 C944.344342,122.17344 1130.06439,174.853353 1227.86487,287.772521 L1227.86487,284.760166 Z" id="Fill-25"></path>
                <path d="M1227.86487,303.834557 C1132.07393,187.373172 945.490411,131.168706 695.094019,144.799859 C399.575095,160.889957 227.441067,121.750926 135.078525,86.0854237 C35.0545922,47.4566278 4.4875263,4.4869004 4.19119688,4.05712463 L2.5780659,5.17375666 C2.87635776,5.60549487 33.6396683,48.9578994 134.093377,87.8084517 C226.642352,123.597588 399.108033,162.885766 695.199991,146.758381 C946.265577,133.093866 1132.94918,189.714371 1227.86487,306.93326 L1227.86487,303.834557 Z" id="Fill-27"></path>
                <path d="M1227.86487,323.357367 C1135.14712,202.445154 947.603966,142.158799 693.257169,152.826658 C397.145587,165.264643 225.458996,123.994394 133.579216,87.1887111 C34.0714065,47.3294613 4.17353486,3.9849066 3.88309279,3.55120593 L2.25229979,4.6442886 C2.54470431,5.07995171 32.6368582,48.8111084 132.570519,88.898002 C224.634769,125.833207 396.664787,167.234939 693.337629,154.789104 C948.45763,144.058447 1136.10283,204.819714 1227.86487,326.567929 L1227.86487,323.357367 Z" id="Fill-29"></path>
                <path d="M1227.86487,346.780342 L1227.86487,343.397085 C1138.51468,217.786775 949.966751,153.222287 691.420319,160.856203 C394.723928,169.630301 223.478888,126.236686 132.077945,88.2927835 C33.0901833,47.2011173 3.86150588,3.48173533 3.57891359,3.04607222 L1.93045857,4.11364308 C2.21501331,4.55323109 31.634048,48.6631399 131.04766,89.9902997 C222.633074,128.063723 394.192105,171.59471 691.47723,162.81865 C950.867514,155.153334 1139.57048,220.239833 1227.86487,346.780342" id="Fill-31"></path>
                <path d="M1227.86487,367.627411 L1227.86487,364.043984 C1142.2394,233.437285 952.706326,164.310109 689.581507,168.886534 C392.314043,174.016369 221.49878,128.483687 130.574711,89.4015658 C32.1089601,47.0735583 3.54751445,2.98131148 3.2708095,2.54368592 L1.60861735,3.58574499 C1.88728475,4.03122033 30.6332003,48.5159564 129.522839,91.0833824 C220.625491,130.29895 391.758671,175.976853 689.616831,170.848981 C953.609052,166.29218 1143.41099,235.982578 1227.86487,367.627411" id="Fill-33"></path>
                <path d="M1227.86487,389.237283 L1227.86487,385.422287 C1146.38213,249.477734 955.738306,175.613212 687.744657,176.914314 C389.943408,178.35475 219.518671,130.726174 129.077364,90.5038719 C31.1277368,46.9454105 3.23548546,2.48226135 2.9627054,2.03678601 L1.28677614,3.05725816 C1.55759375,3.50469595 29.6303902,48.3681842 127.999981,92.1739139 C218.621833,132.531625 389.217303,180.277947 687.756431,178.87676 C690.09763,178.864986 692.407429,178.859098 694.738816,178.859098 C960.134186,178.859098 1148.40737,253.310392 1227.86487,389.237283" id="Fill-35"></path>
                <path d="M1227.86487,411.841918 L1227.86487,407.695269 C1151.05275,265.965424 959.223611,186.961255 685.909769,184.94386 C387.429514,182.73807 217.5366,132.970428 127.57413,91.6099067 C30.1445512,46.8170665 2.91953158,1.97909008 2.65460131,1.53165229 L0.962972473,2.52661264 C1.22790274,2.97797532 28.6275801,48.2182533 126.477122,93.2642491 C216.616213,134.764104 386.84078,184.696592 685.89407,186.906306 C960.522751,188.933513 1152.58738,268.750135 1227.86487,411.841918" id="Fill-37"></path>
                <path d="M1226.29334,432.324953 C1226.82909,433.439623 1227.34325,434.564105 1227.86526,435.684661 L1227.86526,431.0788 C1156.39885,283.002403 963.305892,198.442548 684.071349,192.971247 C385.000398,187.107457 215.556884,135.216448 126.073251,92.7157453 C29.1637204,46.6885263 2.60593264,1.47768501 2.34885215,1.02828478 L0.643486191,1.99773332 C0.902529122,2.45105845 27.6271249,48.0681262 124.954657,94.3563506 C214.610985,136.996387 384.386152,189.058129 684.034063,194.933694 C962.740708,200.395182 1155.3195,284.703844 1226.29334,432.324953" id="Fill-39"></path>
                <path d="M1221.70141,446.914957 C1223.89543,451.642491 1225.9403,456.423011 1227.86546,461.236892 L1227.86546,456.046221 C1226.46623,452.708099 1225.01206,449.385678 1223.48135,446.088768 C1154.26783,296.931063 962.046198,209.892638 682.232733,201.000793 C382.571085,191.479003 213.575009,137.460702 124.572176,93.8217801 C28.180731,46.5621448 2.29017501,0.980401083 2.04094431,0.52315106 L0.319878771,1.46905025 C0.573034363,1.92826272 26.624511,47.9221201 123.430032,95.4466858 C212.607523,139.228866 381.93329,193.421825 682.171897,202.963239 C961.206271,211.829572 1152.81365,298.463733 1221.70141,446.914957" id="Fill-41"></path>
                <path d="M1217.10968,461.478076 C1221.19549,470.607377 1224.77303,479.899561 1227.86389,489.325191 L1227.86389,483.200396 C1225.20085,475.595916 1222.21793,468.083671 1218.90139,460.675436 C1151.7661,310.695466 960.521769,221.327617 680.396276,209.028965 C380.143932,195.849175 211.593331,139.705544 123.069334,94.9284037 C27.1999003,46.4343895 1.97657606,0.477818547 1.7332327,0.0186060781 L0.00039248929,0.938993463 C0.243735849,1.40213082 25.6240558,47.772778 121.907566,96.5376098 C210.602296,141.461934 379.480625,197.784147 680.311891,210.991412 C959.656331,223.252777 1150.29427,312.210475 1217.10968,461.478076" id="Fill-43"></path>
            </g>
        </g>
    </g>
</svg>