<?xml version="1.0" encoding="UTF-8"?>
<svg width="320px" height="57px" viewBox="0 0 320 57" version="1.1" xmlns="http://www.w3.org/2000/svg" xmlns:xlink="http://www.w3.org/1999/xlink">
    <!-- Generator: Sketch 43.2 (39069) - http://www.bohemiancoding.com/sketch -->
    <title>logo</title>
    <desc>Created with Sketch.</desc>
    <defs>
        <polygon id="path-1" points="31.0647059 0.388379352 0 0.388379352 0 56.4014406 62.1294118 56.4014406 62.1294118 0.388379352 31.0647059 0.388379352"></polygon>
    </defs>
    <g id="Page-1" stroke="none" stroke-width="1" fill="none" fill-rule="evenodd">
        <g id="Kontakt" transform="translate(-150.000000, -37.000000)">
            <g id="logo" transform="translate(150.000000, 37.000000)">
                <path d="M96.0099191,21.4145962 C95.2556759,20.1461032 93.1815073,18.9410349 90.7930707,18.9410349 C87.7132445,18.9410349 86.236185,20.2412402 86.236185,21.890281 C86.236185,23.8247328 88.4989144,24.3638423 91.1387654,24.6809655 C95.7270779,25.2517874 100,26.4557231 100,31.7528138 C100,36.6999363 95.6642243,38.8235294 90.7616439,38.8235294 C86.2676118,38.8235294 82.8106641,37.4281872 81.1764706,33.3690097 L84.6334183,31.5614072 C85.6076491,34.0043888 88.1532197,35.0826078 90.8244975,35.0826078 C93.4329217,35.0826078 95.8830895,34.1629504 95.8830895,31.7528138 C95.8830895,29.6598004 93.7157629,28.8035676 90.7930707,28.4853118 C86.2990386,27.9462023 82.1507013,26.7422666 82.1507013,21.7634317 C82.1507013,17.1968571 86.6133066,15.32583 90.6673635,15.2941176 C94.0928844,15.2941176 97.6441126,16.2771997 99.3097328,19.7021307 L96.0099191,21.4145962" id="Fill-1" fill="#0A0A08"></path>
                <path d="M113.645748,29.5734867 L119.996722,29.5734867 C125.416358,29.5734867 125.385427,21.6639144 119.996722,21.6639144 L113.645748,21.6639144 L113.645748,29.5734867 Z M119.996722,33.4320369 L113.645748,33.4320369 L113.645748,40 L109.411765,40 L109.411765,17.6778088 C112.940084,17.6778088 116.468403,17.6470588 119.996722,17.6470588 C130.965441,17.6470588 130.997517,33.4320369 119.996722,33.4320369 L119.996722,33.4320369 Z" id="Fill-2" fill="#0A0A08"></path>
                <polyline id="Fill-3" fill="#0A0A08" points="141.750657 17.6470588 141.750657 36.1042017 152.941176 36.1042017 152.941176 40 137.647059 40 137.647059 17.6470588 141.750657 17.6470588"></polyline>
                <path d="M181.176471,40 L163.529412,40 L163.529412,17.6470588 L181.176471,17.6470588 L181.176471,21.7344538 L167.941477,21.7344538 L167.941477,26.8767707 L180.704952,26.8767707 L180.704952,30.8045018 L167.941477,30.8045018 L167.941477,35.84988 L181.176471,35.84988 L181.176471,40" id="Fill-4" fill="#0A0A08"></path>
                <path d="M195.491363,21.4801321 L188.235294,21.4801321 L188.235294,17.6470588 L207.058824,17.6470588 L207.058824,21.4801321 L199.805089,21.4801321 L199.805089,40 L195.491363,40 L195.491363,21.4801321" id="Fill-5" fill="#0A0A08"></path>
                <polyline id="Fill-6" fill="#0A0A08" points="229.847238 17.6470588 234.117647 17.6470588 234.117647 39.9681582 231.465535 39.9681582 231.465535 40 219.562217 24.9388302 219.562217 39.9681582 215.294118 39.9681582 215.294118 17.6789006 218.754801 17.6789006 229.847238 31.4993775 229.847238 17.6470588"></polyline>
                <polygon id="Fill-7" fill="#0A0A08" points="245.882353 40 250.588235 40 250.588235 17.6470588 245.882353 17.6470588"></polygon>
                <path d="M270.199423,27.4328929 C272.678,27.4328929 275.629771,26.9168274 275.629771,23.8546868 C275.629771,20.8758931 272.78342,19.766124 269.964623,19.766124 L262.489359,19.766124 L262.489359,27.4328929 L270.199423,27.4328929 Z M269.964623,37.6902646 C272.885247,37.6902646 276.368911,37.2301443 276.368911,34.0104439 C276.336567,30.7610583 273.160777,29.7106596 270.199423,29.7106596 L262.489359,29.7106596 L262.489359,37.6902646 L269.964623,37.6902646 Z M260,40 L260,17.6470588 L269.964623,17.6470588 C273.679494,17.6470588 278.019699,19.1096248 278.019699,23.8546868 C278.019699,25.9577677 276.82174,27.5938779 274.836722,28.5027011 C277.287746,29.4743199 278.823529,31.4997626 278.823529,34.0424126 C278.823529,37.9654234 275.59503,40 269.964623,40 L260,40 L260,40 Z" id="Fill-8" fill="#2FB08E"></path>
                <polygon id="Fill-9" fill="#2FB08E" points="288.235294 40 291.764706 40 291.764706 17.6470588 288.235294 17.6470588"></polygon>
                <polyline id="Fill-10" fill="#2FB08E" points="309.384391 40 309.384391 19.8331879 301.176471 19.8331879 301.176471 17.6470588 320 17.6470588 320 19.8331879 311.792079 19.8331879 311.792079 40 309.384391 40"></polyline>
                <g id="Group-19"></g>
                <g id="Group">
                    <polyline id="Fill-11" fill="#2FB08E" points="13.7711414 24.5175092 12.1790996 26.0695773 10.5882353 27.623943 28.0971629 44.7058824 31.280069 41.5994486 29.6880272 40.0473805 37.6470588 32.281296 34.4641527 29.1760111 26.505121 36.9409467 16.9552251 27.623943 36.0561945 8.98878673 32.8721109 5.88235294 13.7711414 24.5175092"></polyline>
                    <polyline id="Fill-12" fill="#2FB08E" points="39.7055831 5.88235294 36.4705882 9.11824541 46.1767698 18.8235294 49.4117647 15.5876369 39.7055831 5.88235294"></polyline>
                    <polyline id="Fill-13" fill="#2FB08E" points="62.3529412 28.5288134 52.647358 18.8235294 49.4117647 22.0582252 59.1161513 31.7647059 62.3529412 28.5288134"></polyline>
                    <polyline id="Fill-14" fill="#2FB08E" points="41.1764706 23.808714 44.4277825 27.0588235 49.4117647 22.0748413 46.1616552 18.8235294 41.1764706 23.808714"></polyline>
                    <mask id="mask-2" fill="white">
                        <use xlink:href="#path-1"></use>
                    </mask>
                    <g id="Clip-16"></g>
                    <path d="M41.4541176,26.8707803 C37.0694118,22.5767107 29.9364706,22.5767107 25.5517647,26.8707803 L22.3717647,29.9870348 L25.5517647,33.1021369 L28.7329412,29.9870348 C31.3635294,27.4089796 35.6435294,27.4089796 38.2741176,29.9870348 C40.9058824,32.5639376 40.9058824,36.7577431 38.2741176,39.3346459 L28.7329412,48.679952 C26.1023529,51.2580072 21.8211765,51.2580072 19.1917647,48.679952 L17.6011765,47.1229772 L14.42,50.2392317 L16.0094118,51.7973589 C20.3952941,56.0902761 27.5282353,56.0902761 31.9129412,51.7973589 L41.4541176,42.4497479 C45.84,38.1556783 45.8388235,31.1671549 41.4541176,26.8707803" id="Fill-15" fill="#0A0A08" mask="url(#mask-2)"></path>
                    <polyline id="Fill-17" fill="#2FB08E" mask="url(#mask-2)" points="38.2741176 48.6811044 35.0941176 51.7973589 36.6835294 53.3543337 38.2741176 54.912461 39.8647059 56.4705882 62.1294118 34.6591116 58.9470588 31.5451621 39.8647059 50.2392317 38.2741176 48.6811044"></polyline>
                    <path d="M19.1917647,39.3346459 L16.0094118,36.2183914 C13.38,38.7964466 9.09882353,38.7952941 6.46823529,36.2183914 C3.83882353,33.6414886 3.83764706,29.4476831 6.46823529,26.8707803 L30.3223529,3.50463385 L27.1423529,0.388379352 L3.28823529,23.7545258 C-1.09647059,28.0509004 -1.09647059,35.0394238 3.28823529,39.3346459 C7.67176471,43.6298679 14.8058824,43.6298679 19.1917647,39.3346459" id="Fill-18" fill="#0A0A08" mask="url(#mask-2)"></path>
                </g>
            </g>
        </g>
    </g>
</svg>