<?xml version="1.0" encoding="UTF-8"?>
<svg width="272px" height="48px" viewBox="0 0 272 48" version="1.1" xmlns="http://www.w3.org/2000/svg" xmlns:xlink="http://www.w3.org/1999/xlink">
    <!-- Generator: Sketch 43.2 (39069) - http://www.bohemiancoding.com/sketch -->
    <title>logo_black</title>
    <desc>Created with Sketch.</desc>
    <defs>
        <polygon id="path-1" points="26.405 0.330122449 0 0.330122449 0 47.9412245 52.81 47.9412245 52.81 0.330122449 26.405 0.330122449"></polygon>
    </defs>
    <g id="Page-1" stroke="none" stroke-width="1" fill="none" fill-rule="evenodd">
        <g id="Projekt" transform="translate(-150.000000, -37.000000)">
            <g id="logo_black" transform="translate(150.000000, 37.000000)">
                <path d="M81.6084312,18.2024067 C80.9673245,17.1241877 79.2042812,16.0998797 77.1741101,16.0998797 C74.5562578,16.0998797 73.3007573,17.2050542 73.3007573,18.6067389 C73.3007573,20.2510229 75.2240773,20.7092659 77.4679506,20.9788207 C81.3680162,21.4640193 85,22.4873646 85,26.9898917 C85,31.1949458 81.3145907,33 77.1473973,33 C73.32747,33 70.3890645,31.8139591 69,28.3636582 L71.9384056,26.8271961 C72.7665017,28.9037304 74.9302367,29.8202166 77.2008228,29.8202166 C79.4179834,29.8202166 81.5006261,29.0385078 81.5006261,26.9898917 C81.5006261,25.2108303 79.6583984,24.4830325 77.1741101,24.212515 C73.3541828,23.754272 69.8280961,22.7309266 69.8280961,18.498917 C69.8280961,14.6173285 73.6213106,13.0269555 77.067259,13 C79.9789518,13 82.9974957,13.8356197 84.4132729,16.7468111 L81.6084312,18.2024067" id="Fill-1" fill="#0C0E0B"></path>
                <path d="M96.5988855,25.1374637 L101.997214,25.1374637 C106.603904,25.1374637 106.577613,18.4143272 101.997214,18.4143272 L96.5988855,18.4143272 L96.5988855,25.1374637 Z M101.997214,28.4172314 L96.5988855,28.4172314 L96.5988855,34 L93,34 L93,15.0261375 C95.9990712,15.0261375 98.9981424,15 101.997214,15 C111.320625,15 111.347889,28.4172314 101.997214,28.4172314 L101.997214,28.4172314 Z" id="Fill-2" fill="#0C0E0B"></path>
                <polyline id="Fill-3" fill="#0C0E0B" points="120.488058 15 120.488058 30.6885714 130 30.6885714 130 34 117 34 117 15 120.488058 15"></polyline>
                <path d="M154,34 L139,34 L139,15 L154,15 L154,18.4742857 L142.750256,18.4742857 L142.750256,22.8452551 L153.599209,22.8452551 L153.599209,26.1838265 L142.750256,26.1838265 L142.750256,30.472398 L154,30.472398 L154,34" id="Fill-4" fill="#0C0E0B"></path>
                <path d="M166.167659,18.2581122 L160,18.2581122 L160,15 L176,15 L176,18.2581122 L169.834325,18.2581122 L169.834325,34 L166.167659,34 L166.167659,18.2581122" id="Fill-5" fill="#0C0E0B"></path>
                <polyline id="Fill-6" fill="#0C0E0B" points="195.370152 15 199 15 199 33.9729345 196.745704 33.9729345 196.745704 34 186.627884 21.1980057 186.627884 33.9729345 183 33.9729345 183 15.0270655 185.941581 15.0270655 195.370152 26.7744709 195.370152 15"></polyline>
                <polygon id="Fill-7" fill="#0C0E0B" points="209 34 213 34 213 15 209 15"></polygon>
                <path d="M229.669509,23.3179589 C231.7763,23.3179589 234.285305,22.8793033 234.285305,20.2764838 C234.285305,17.7445091 231.865907,16.8012054 229.469929,16.8012054 L223.115955,16.8012054 L223.115955,23.3179589 L229.669509,23.3179589 Z M229.469929,32.0367249 C231.95246,32.0367249 234.913575,31.6456226 234.913575,28.9088773 C234.886082,26.1468996 232.186661,25.2540607 229.669509,25.2540607 L223.115955,25.2540607 L223.115955,32.0367249 L229.469929,32.0367249 Z M221,34 L221,15 L229.469929,15 C232.62757,15 236.316744,16.2431811 236.316744,20.2764838 C236.316744,22.0641026 235.298479,23.4547962 233.611214,24.2272959 C235.694584,25.0531719 237,26.7747982 237,28.9360507 C237,32.2706099 234.255775,34 229.469929,34 L221,34 L221,34 Z" id="Fill-8" fill="#0C0E0B"></path>
                <polygon id="Fill-9" fill="#0C0E0B" points="245 34 248 34 248 15 245 15"></polygon>
                <polyline id="Fill-10" fill="#0C0E0B" points="262.976733 34 262.976733 16.8582097 256 16.8582097 256 15 272 15 272 16.8582097 265.023267 16.8582097 265.023267 34 262.976733 34"></polyline>
                <g id="Group-19"></g>
                <g id="Group">
                    <polyline id="Fill-11" fill="#0C0E0B" points="11.7054702 20.8398828 10.3522346 22.1591407 9 23.4803515 23.8825885 38 26.5880587 35.3595313 25.2348231 34.0402734 32 27.4391016 29.2945298 24.7996094 22.5293529 31.3998047 14.4119413 23.4803515 30.6477654 7.64046872 27.9412942 5 11.7054702 20.8398828"></polyline>
                    <polyline id="Fill-12" fill="#0C0E0B" points="33.7497457 5 31 7.7505086 39.2502543 16 42 13.2494914 33.7497457 5"></polyline>
                    <polyline id="Fill-13" fill="#0C0E0B" points="53 24.2494914 44.7502543 16 42 18.7494914 50.2487286 27 53 24.2494914"></polyline>
                    <polyline id="Fill-14" fill="#0C0E0B" points="35 20.2374069 37.7636151 23 42 18.7636151 39.2374069 16 35 20.2374069"></polyline>
                    <mask id="mask-2" fill="white">
                        <use xlink:href="#path-1"></use>
                    </mask>
                    <g id="Clip-16"></g>
                    <path d="M35.236,22.8401633 C31.509,19.1902041 25.446,19.1902041 21.719,22.8401633 L19.016,25.4889796 L21.719,28.1368163 L24.423,25.4889796 C26.659,23.2976327 30.297,23.2976327 32.533,25.4889796 C34.77,27.6793469 34.77,31.2440816 32.533,33.434449 L24.423,41.3779592 C22.187,43.5693061 18.548,43.5693061 16.313,41.3779592 L14.961,40.0545306 L12.257,42.7033469 L13.608,44.0277551 C17.336,47.6767347 23.399,47.6767347 27.126,44.0277551 L35.236,36.0822857 C38.964,32.4323265 38.963,26.4920816 35.236,22.8401633" id="Fill-15" fill="#0C0E0B" mask="url(#mask-2)"></path>
                    <polyline id="Fill-17" fill="#0C0E0B" mask="url(#mask-2)" points="32.533 41.3789388 29.83 44.0277551 31.181 45.3511837 32.533 46.6755918 33.885 48 52.81 29.4602449 50.105 26.8133878 33.885 42.7033469 32.533 41.3789388"></polyline>
                    <path d="M16.313,33.434449 L13.608,30.7856327 C11.373,32.9769796 7.734,32.976 5.498,30.7856327 C3.263,28.5952653 3.262,25.0305306 5.498,22.8401633 L25.774,2.97893878 L23.071,0.330122449 L2.795,20.1913469 C-0.932,23.8432653 -0.932,29.7835102 2.795,33.434449 C6.521,37.0853878 12.585,37.0853878 16.313,33.434449" id="Fill-18" fill="#0C0E0B" mask="url(#mask-2)"></path>
                </g>
            </g>
        </g>
    </g>
</svg>