<?xml version="1.0" encoding="UTF-8"?>
<svg width="272px" height="48px" viewBox="0 0 272 48" version="1.1" xmlns="http://www.w3.org/2000/svg" xmlns:xlink="http://www.w3.org/1999/xlink">
    <!-- Generator: Sketch 43.2 (39069) - http://www.bohemiancoding.com/sketch -->
    <title>Spletni_Bit_logo_barva_horizontalno_vektor</title>
    <desc>Created with Sketch.</desc>
    <defs>
        <polygon id="path-1" points="2613.75966 0.306917401 2613.75966 832.230553 0.00106771228 832.230553 0.00106771228 0.306917401 2613.75966 0.306917401"></polygon>
        <polygon id="path-3" points="0 888.901379 0 0.795020564 2614.32637 0.795020564 2614.32637 888.901379 7.58819819e-14 888.901379"></polygon>
        <polygon id="path-5" points="8.15731016e-14 916.992977 8.15731016e-14 0.147145845 2614.32616 0.147145845 2614.32616 916.992977 0 916.992977"></polygon>
        <polygon id="path-7" points="26.405 0.330122449 0 0.330122449 0 47.9412245 52.81 47.9412245 52.81 0.330122449 26.405 0.330122449"></polygon>
    </defs>
    <g id="Page-1" stroke="none" stroke-width="1" fill="none" fill-rule="evenodd">
        <g id="Spletnibit-home" transform="translate(-150.000000, -37.000000)">
            <g id="Page-1" transform="translate(1263.319329, 750.348775) rotate(-350.000000) translate(-1263.319329, -750.348775) translate(-44.180671, 210.848775)">
                <g id="Group-50" transform="translate(0.000000, 89.392098)" fill="#F5F5F5">
                    <path d="M2518.82933,541.070681 C2343.19527,557.518852 2132.00935,451.334349 1854.2115,206.857437 C1820.53922,177.253721 1784.67553,149.530284 1747.62215,124.460605 C1665.26444,68.6782716 1574.59173,31.2243889 1478.11581,13.1395203 C1383.17132,-4.65262305 1284.79446,-3.31719738 1185.71703,17.1201571 C1079.15117,38.9143042 970.210209,87.3806411 852.672297,165.281897 C732.195404,245.133942 638.998071,361.367256 548.870009,473.773774 L534.796643,491.315926 C476.497583,563.862658 407.828787,646.537259 330.582265,709.533028 C294.53702,738.927349 256.133756,760.23647 216.436143,772.868528 C152.417175,793.243919 84.4297267,802.976501 0.000213588791,803.579045 L0.000213588791,805.698633 C84.6390437,805.093952 152.859303,795.344276 217.083317,774.904785 C257.039372,762.189396 295.67972,740.754212 331.932146,711.188955 C409.338859,648.06285 478.093091,565.287825 536.4605,492.655625 L550.536001,475.111336 C640.561541,362.830882 733.652079,246.730043 853.853443,167.063889 C971.156407,89.3143374 1079.85174,40.9526979 1186.14634,19.2119679 C1385.00605,-21.8080354 1583.98109,16.2013843 1746.42391,126.229776 C1783.40681,151.250312 1819.19575,178.918195 1852.80181,208.462084 C1994.25953,332.953671 2115.92825,420.025561 2224.75815,474.65195 C2333.35096,529.156548 2429.61115,551.587426 2519.0301,543.196679 C2551.41871,540.160455 2583.09606,532.994027 2614.32701,521.594833 L2614.32701,519.321405 C2583.02771,530.816749 2551.28201,538.028047 2518.82933,541.070681" id="Fill-48"></path>
                </g>
                <g id="Group-53" transform="translate(0.000000, 73.709274)">
                    <mask id="mask-2" fill="white">
                        <use xlink:href="#path-1"></use>
                    </mask>
                    <g id="Clip-52"></g>
                    <path d="M2520.38288,529.990658 C2431.03885,539.174484 2334.4237,517.437365 2225.02804,463.547249 C2115.20315,409.447875 1992.02332,322.719335 1848.45019,198.403518 C1814.25564,168.819257 1777.82956,141.419385 1740.17989,116.966195 C1656.43922,62.5209058 1564.56044,26.6439844 1467.09967,10.3283341 C1371.03759,-5.74816525 1271.84071,-2.4705153 1172.25733,20.0780081 C1065.17006,44.1682014 956.447049,95.2546997 839.869952,176.260697 C720.403625,259.273855 627.873544,376.934014 538.390713,490.722917 L527.660205,504.36093 C470.17244,577.351098 402.62042,660.641842 328.296968,725.368489 C293.256787,755.885865 255.6242,778.776033 216.447701,793.400544 C151.554284,817.62953 81.9864227,829.490993 0.00106771228,830.114494 L0.00106771228,832.230553 C82.2362674,831.604917 152.06465,819.719966 217.192964,795.403434 C256.610766,780.68497 294.463302,757.664551 329.697807,726.978487 C404.160061,662.13013 471.791092,578.747569 529.336513,505.682667 L540.069157,492.044653 C629.453758,378.379597 721.883474,260.845418 841.089279,178.013759 C957.433616,97.1679078 1065.91318,46.1881733 1172.72498,22.159903 C1372.52385,-23.0780721 1573.63173,11.2294209 1739.01609,118.757692 C1776.58461,143.1575 1812.93167,170.497585 1847.05362,200.017787 C1990.76342,324.45318 2114.09273,411.279942 2224.08205,465.462592 C2333.84927,519.534207 2430.83599,541.335384 2520.60283,532.115258 C2552.29253,528.861097 2583.26046,521.63532 2613.76072,510.37387 L2613.76072,508.095529 C2583.18785,519.453067 2552.14518,526.727955 2520.38288,529.990658" id="Fill-51" fill="#F5F5F5" mask="url(#mask-2)"></path>
                </g>
                <path d="M2523.01759,575.29474 C2433.28894,585.33677 2335.90954,564.166392 2225.29831,510.598921 C2114.27059,456.830438 1989.37881,370.160194 1843.48913,245.639881 C1808.77454,216.027013 1771.76387,188.892576 1733.4909,164.989295 C1648.32664,111.768249 1555.20833,77.3909764 1456.72041,62.8133536 C1359.50547,48.423912 1259.43271,53.6502154 1159.30442,78.3554047 C1051.55315,104.816239 942.996647,158.638182 827.434432,242.898424 C708.860615,329.354826 616.931999,448.800663 528.029937,564.309666 L520.752967,573.765768 C461.321886,650.915757 397.341363,731.784462 326.152219,798.037052 C291.935295,829.884571 255.061326,854.403718 216.555539,870.920889 C150.701843,899.455993 81.1188869,913.29586 0,913.759897 L0,915.876935 C81.4115035,915.406482 151.282805,901.536677 217.399215,872.886099 C256.12927,856.274837 293.208284,831.616693 327.606759,799.604516 C398.917649,733.23645 462.957976,652.292901 522.44459,575.072344 L529.72156,565.616242 C618.531779,450.224852 710.36428,330.903043 828.690334,244.626269 C944.024009,160.532824 1052.33489,106.826355 1159.8149,80.4318125 C1360.6204,30.8867132 1563.95693,61.5623768 1732.35888,166.804816 C1770.54642,190.650359 1807.46738,217.722782 1842.10293,247.26722 C1988.13359,371.907285 2113.17274,458.673758 2224.37134,512.5235 C2335.35421,566.270599 2433.12021,587.494437 2523.25467,577.420331 C2554.2635,573.953949 2584.54184,566.676899 2614.3268,555.537859 L2614.3268,553.247609 C2584.46281,564.487155 2554.10544,571.819804 2523.01759,575.29474" id="Fill-54" fill="#F5F5F5"></path>
                <g id="Group-58" transform="translate(0.000000, 36.070496)">
                    <mask id="mask-4" fill="white">
                        <use xlink:href="#path-3"></use>
                    </mask>
                    <g id="Clip-57"></g>
                    <path d="M2525.08684,510.86059 C2345.09343,532.55557 2133.23471,431.745263 1838.12548,183.981161 C1802.87265,154.393019 1765.28957,127.592585 1726.42282,104.323245 C1639.85314,52.4612208 1545.51311,19.6709552 1446.02345,6.86459406 C1347.66154,-5.79650723 1246.75152,1.37249158 1146.10207,28.1665178 C1037.58829,56.9664111 929.226151,113.389166 814.815179,200.656132 C697.119212,290.42883 605.810004,411.428115 517.508126,528.445572 L513.727604,533.454899 C449.638152,618.357121 391.119095,694.037482 323.939012,760.429759 C290.975854,793.21148 254.866533,819.304841 216.612781,837.981408 C150.872287,870.295307 79.702366,886.35506 -0.000427177581,886.792976 L-0.000427177581,888.901379 C80.0398363,888.469872 151.521597,872.35885 217.554707,839.899692 C256.015641,821.118453 292.317192,794.892649 325.442677,761.946442 C392.721011,695.458037 451.289193,619.713592 515.434179,534.745148 L519.212564,529.733685 C607.429007,412.829445 698.646372,291.949786 816.109527,202.35439 C930.294095,115.260454 1038.41488,58.9594611 1146.651,30.2300616 C1348.42406,-23.4904337 1553.93278,3.47875881 1725.32711,106.153946 C1764.09774,129.367745 1801.58685,156.101958 1836.75211,185.615334 C1985.0703,310.139305 2111.79467,396.620159 2224.168,450.003139 C2336.34483,503.289991 2434.86266,523.899794 2525.34101,512.979675 C2555.65994,509.324682 2585.25053,502.036057 2614.32637,491.053988 L2614.32637,488.759738 C2585.16723,499.846479 2555.49334,507.194916 2525.08684,510.86059" id="Fill-56" fill="#F5F5F5" mask="url(#mask-4)"></path>
                </g>
                <g id="Group-61" transform="translate(0.000000, 18.819389)">
                    <mask id="mask-6" fill="white">
                        <use xlink:href="#path-5"></use>
                    </mask>
                    <g id="Clip-60"></g>
                    <path d="M2527.13494,500.919233 C2436.71426,512.618488 2337.84615,492.675895 2224.86195,439.943756 C2111.48261,387.025676 1983.22681,300.792288 1832.76419,176.315116 C1796.99234,146.725018 1758.83897,120.216822 1719.35922,97.5236002 C1631.37559,46.9436618 1535.81383,15.6907911 1435.32458,4.63484498 C1335.82637,-6.31637636 1234.07267,2.79895522 1132.8978,31.7222336 C1023.52966,62.9430457 915.357617,122.048437 802.198276,212.423797 C685.298994,305.782745 594.585699,428.646301 506.860511,547.464061 L506.706727,547.67351 C452.100617,621.619901 390.211129,705.429658 321.728155,777.696178 C289.747505,811.556482 254.404968,839.259396 216.680916,860.035513 C151.359056,896.127096 78.604306,914.518053 -0.000640766373,914.877109 L-0.000640766373,916.992977 C78.9652711,916.629646 152.072442,898.174573 217.710414,861.907736 C255.628832,841.024757 291.148648,813.185059 323.280945,779.164462 C391.849355,706.806041 453.781561,622.938579 508.423981,548.943031 L508.577765,548.735719 C596.221789,430.026959 686.849649,307.276677 803.528934,214.092982 C916.464007,123.899288 1024.39469,64.9178561 1133.48517,33.7782591 C1336.20229,-24.1794341 1543.89603,-0.881373263 1718.29555,99.3787251 C1757.67064,122.009967 1795.72576,148.449772 1831.40577,177.962928 C1982.00509,302.557649 2110.41467,388.885075 2223.96061,441.880096 C2337.32713,494.789627 2436.58184,514.787788 2527.40834,503.039376 C2557.04378,499.203029 2585.95089,491.915038 2614.32616,481.072816 L2614.32616,478.771008 C2585.85904,489.717954 2556.86437,497.0722 2527.13494,500.919233" id="Fill-59" fill="#F5F5F5" mask="url(#mask-6)"></path>
                </g>
                <g id="Group-64" fill="#F5F5F5">
                    <path d="M2529.1666,491.946694 C2438.4234,504.485363 2338.80986,485.134245 2224.64024,432.781452 C2110.08617,380.255461 1980.14943,294.178265 1827.40354,169.636179 C1727.27952,87.9979807 1613.95999,35.1170409 1490.59324,12.4580575 C1369.25345,-9.83314779 1244.46633,-1.81472862 1119.69417,36.2823845 C1009.36701,69.9661597 901.387201,131.759305 789.579877,225.19634 C673.404662,322.279083 583.263785,447.126938 496.093927,567.862948 C440.567249,644.76921 383.150311,724.290546 319.517938,795.958107 C233.809028,892.491321 122.586937,943.377278 -0.000213588791,943.839139 L-0.000213588791,946.154858 C47.6535815,946.099264 93.5901228,938.452899 137.298933,923.247838 C206.482478,899.179751 268.327113,856.831807 321.115582,797.377902 C384.816303,725.631225 442.267416,646.062848 497.821861,569.11596 C584.919098,448.486862 674.980947,323.750195 790.948981,226.836374 C902.534173,133.587505 1010.2705,71.9269305 1120.31571,38.3265468 C1371.22274,-38.2760842 1628.4584,10.1829647 1826.05793,171.295457 C1978.94479,295.950871 2109.03104,382.122149 2223.74958,434.725116 C2338.29725,487.253246 2438.29098,506.662097 2529.45922,494.063556 C2558.41331,490.060762 2586.64334,482.767208 2614.32659,472.073844 L2614.32659,469.790198 C2586.54723,480.588336 2558.22322,487.93107 2529.1666,491.946694" id="Fill-62"></path>
                </g>
            </g>
            <g id="Spletni_Bit_logo_barva_horizontalno_vektor" transform="translate(150.000000, 37.000000)">
                <path d="M81.6084312,18.2024067 C80.9673245,17.1241877 79.2042812,16.0998797 77.1741101,16.0998797 C74.5562578,16.0998797 73.3007573,17.2050542 73.3007573,18.6067389 C73.3007573,20.2510229 75.2240773,20.7092659 77.4679506,20.9788207 C81.3680162,21.4640193 85,22.4873646 85,26.9898917 C85,31.1949458 81.3145907,33 77.1473973,33 C73.32747,33 70.3890645,31.8139591 69,28.3636582 L71.9384056,26.8271961 C72.7665017,28.9037304 74.9302367,29.8202166 77.2008228,29.8202166 C79.4179834,29.8202166 81.5006261,29.0385078 81.5006261,26.9898917 C81.5006261,25.2108303 79.6583984,24.4830325 77.1741101,24.212515 C73.3541828,23.754272 69.8280961,22.7309266 69.8280961,18.498917 C69.8280961,14.6173285 73.6213106,13.0269555 77.067259,13 C79.9789518,13 82.9974957,13.8356197 84.4132729,16.7468111 L81.6084312,18.2024067" id="Fill-1" fill="#0A0A08"></path>
                <path d="M96.5988855,25.1374637 L101.997214,25.1374637 C106.603904,25.1374637 106.577613,18.4143272 101.997214,18.4143272 L96.5988855,18.4143272 L96.5988855,25.1374637 Z M101.997214,28.4172314 L96.5988855,28.4172314 L96.5988855,34 L93,34 L93,15.0261375 C95.9990712,15.0261375 98.9981424,15 101.997214,15 C111.320625,15 111.347889,28.4172314 101.997214,28.4172314 L101.997214,28.4172314 Z" id="Fill-2" fill="#0A0A08"></path>
                <polyline id="Fill-3" fill="#0A0A08" points="120.488058 15 120.488058 30.6885714 130 30.6885714 130 34 117 34 117 15 120.488058 15"></polyline>
                <path d="M154,34 L139,34 L139,15 L154,15 L154,18.4742857 L142.750256,18.4742857 L142.750256,22.8452551 L153.599209,22.8452551 L153.599209,26.1838265 L142.750256,26.1838265 L142.750256,30.472398 L154,30.472398 L154,34" id="Fill-4" fill="#0A0A08"></path>
                <path d="M166.167659,18.2581122 L160,18.2581122 L160,15 L176,15 L176,18.2581122 L169.834325,18.2581122 L169.834325,34 L166.167659,34 L166.167659,18.2581122" id="Fill-5" fill="#0A0A08"></path>
                <polyline id="Fill-6" fill="#0A0A08" points="195.370152 15 199 15 199 33.9729345 196.745704 33.9729345 196.745704 34 186.627884 21.1980057 186.627884 33.9729345 183 33.9729345 183 15.0270655 185.941581 15.0270655 195.370152 26.7744709 195.370152 15"></polyline>
                <polygon id="Fill-7" fill="#0A0A08" points="209 34 213 34 213 15 209 15"></polygon>
                <path d="M229.669509,23.3179589 C231.7763,23.3179589 234.285305,22.8793033 234.285305,20.2764838 C234.285305,17.7445091 231.865907,16.8012054 229.469929,16.8012054 L223.115955,16.8012054 L223.115955,23.3179589 L229.669509,23.3179589 Z M229.469929,32.0367249 C231.95246,32.0367249 234.913575,31.6456226 234.913575,28.9088773 C234.886082,26.1468996 232.186661,25.2540607 229.669509,25.2540607 L223.115955,25.2540607 L223.115955,32.0367249 L229.469929,32.0367249 Z M221,34 L221,15 L229.469929,15 C232.62757,15 236.316744,16.2431811 236.316744,20.2764838 C236.316744,22.0641026 235.298479,23.4547962 233.611214,24.2272959 C235.694584,25.0531719 237,26.7747982 237,28.9360507 C237,32.2706099 234.255775,34 229.469929,34 L221,34 L221,34 Z" id="Fill-8" fill="#2FB08E"></path>
                <polygon id="Fill-9" fill="#2FB08E" points="245 34 248 34 248 15 245 15"></polygon>
                <polyline id="Fill-10" fill="#2FB08E" points="262.976733 34 262.976733 16.8582097 256 16.8582097 256 15 272 15 272 16.8582097 265.023267 16.8582097 265.023267 34 262.976733 34"></polyline>
                <g id="Group-19"></g>
                <g id="Group">
                    <polyline id="Fill-11" fill="#2FB08E" points="11.7054702 20.8398828 10.3522346 22.1591407 9 23.4803515 23.8825885 38 26.5880587 35.3595313 25.2348231 34.0402734 32 27.4391016 29.2945298 24.7996094 22.5293529 31.3998047 14.4119413 23.4803515 30.6477654 7.64046872 27.9412942 5 11.7054702 20.8398828"></polyline>
                    <polyline id="Fill-12" fill="#2FB08E" points="33.7497457 5 31 7.7505086 39.2502543 16 42 13.2494914 33.7497457 5"></polyline>
                    <polyline id="Fill-13" fill="#2FB08E" points="53 24.2494914 44.7502543 16 42 18.7494914 50.2487286 27 53 24.2494914"></polyline>
                    <polyline id="Fill-14" fill="#2FB08E" points="35 20.2374069 37.7636151 23 42 18.7636151 39.2374069 16 35 20.2374069"></polyline>
                    <mask id="mask-8" fill="white">
                        <use xlink:href="#path-7"></use>
                    </mask>
                    <g id="Clip-16"></g>
                    <path d="M35.236,22.8401633 C31.509,19.1902041 25.446,19.1902041 21.719,22.8401633 L19.016,25.4889796 L21.719,28.1368163 L24.423,25.4889796 C26.659,23.2976327 30.297,23.2976327 32.533,25.4889796 C34.77,27.6793469 34.77,31.2440816 32.533,33.434449 L24.423,41.3779592 C22.187,43.5693061 18.548,43.5693061 16.313,41.3779592 L14.961,40.0545306 L12.257,42.7033469 L13.608,44.0277551 C17.336,47.6767347 23.399,47.6767347 27.126,44.0277551 L35.236,36.0822857 C38.964,32.4323265 38.963,26.4920816 35.236,22.8401633" id="Fill-15" fill="#0A0A08" mask="url(#mask-8)"></path>
                    <polyline id="Fill-17" fill="#2FB08E" mask="url(#mask-8)" points="32.533 41.3789388 29.83 44.0277551 31.181 45.3511837 32.533 46.6755918 33.885 48 52.81 29.4602449 50.105 26.8133878 33.885 42.7033469 32.533 41.3789388"></polyline>
                    <path d="M16.313,33.434449 L13.608,30.7856327 C11.373,32.9769796 7.734,32.976 5.498,30.7856327 C3.263,28.5952653 3.262,25.0305306 5.498,22.8401633 L25.774,2.97893878 L23.071,0.330122449 L2.795,20.1913469 C-0.932,23.8432653 -0.932,29.7835102 2.795,33.434449 C6.521,37.0853878 12.585,37.0853878 16.313,33.434449" id="Fill-18" fill="#0A0A08" mask="url(#mask-8)"></path>
                </g>
            </g>
        </g>
    </g>
</svg>