<?xml version="1.0" encoding="UTF-8"?>
<svg width="1440px" height="1009px" viewBox="0 0 1440 1009" version="1.1" xmlns="http://www.w3.org/2000/svg" xmlns:xlink="http://www.w3.org/1999/xlink">
    <!-- Generator: Sketch 43.2 (39069) - http://www.bohemiancoding.com/sketch -->
    <title>middle_bg</title>
    <desc>Created with Sketch.</desc>
    <defs>
        <polygon id="path-1" points="0 304.265658 0 608.483417 2111.61811 608.483417 2111.61811 304.265658 2111.61811 0.047899255 0 0.047899255"></polygon>
        <polygon id="path-3" points="2111.61811 0.149665638 2111.61811 595.34688 0.000172517819 595.34688 0.000172517819 0.149665638 2111.61811 0.149665638"></polygon>
        <polygon id="path-5" points="9.65326904e-14 581.876833 9.65326904e-14 0.114222757 2111.61776 0.114222757 2111.61776 581.876833 0 581.876833"></polygon>
        <polygon id="path-7" points="1.11855468e-13 569.582108 1.11855468e-13 0.0204157505 2111.61742 0.0204157505 2111.61742 569.582108 0 569.582108"></polygon>
        <polygon id="path-9" points="2111.61811 0.237065148 2111.61811 558.458508 0.000517553458 558.458508 0.000517553458 0.237065148 2111.61811 0.237065148"></polygon>
        <polygon id="path-11" points="2111.61811 0.0632703638 2111.61811 546.068971 0.000517553458 546.068971 0.000517553458 0.0632703638"></polygon>
        <polygon id="path-13" points="2111.61811 0.143765506 2111.61811 535.545007 0.000517553457 535.545007 0.000517553457 0.143765506 2111.61811 0.143765506"></polygon>
        <polygon id="path-15" points="2111.61811 0.0110615253 2111.61811 524.692729 0.000690071277 524.692729 0.000690071277 0.0110615253"></polygon>
        <polygon id="path-17" points="2111.61811 0.371151449 2111.61811 545.308502 0.000172517819 545.308502 0.000172517819 0.371151449 2111.61811 0.371151449"></polygon>
        <polygon id="path-19" points="8.12100066e-14 564.143307 8.12100066e-14 0.00294659917 2111.61724 0.00294659917 2111.61724 564.143307 0 564.143307"></polygon>
        <polygon id="path-21" points="2111.16002 0.247900278 2111.16002 672.201006 0.000862401969 672.201006 0.000862401969 0.247900278 2111.16002 0.247900278"></polygon>
        <polygon id="path-23" points="0 717.974603 0 0.642146123 2111.61776 0.642146123 2111.61776 717.974603 6.12906416e-14 717.974603"></polygon>
        <polygon id="path-25" points="6.58874163e-14 740.66447 6.58874163e-14 0.118851182 2111.61759 0.118851182 2111.61759 740.66447 0 740.66447"></polygon>
    </defs>
    <g id="Page-1" stroke="none" stroke-width="1" fill="none" fill-rule="evenodd">
        <g id="Spletnibit-home" transform="translate(0.000000, -2591.000000)">
            <g id="Page-1-Copy" transform="translate(629.580769, 3023.256252) rotate(-350.000000) translate(-629.580769, -3023.256252) translate(-426.419231, 2587.756252)">
                <g id="Group-3" transform="translate(0.000000, 261.751519)">
                    <mask id="mask-2" fill="white">
                        <use xlink:href="#path-1"></use>
                    </mask>
                    <g id="Clip-2"></g>
                    <path d="M1999.55571,605.72918 C1925.81124,599.658707 1850.67628,566.901973 1769.85686,505.586228 C1688.76658,444.063358 1601.43288,353.404981 1502.87,228.431259 C1424.37612,128.904502 1325.59242,60.7070471 1209.2602,25.7375336 C1099.50609,-7.25739324 975.903975,-8.49150983 851.811907,22.1646367 C737.118611,50.5044412 651.673985,132.610304 569.043126,212.013193 C553.878809,226.586125 538.19694,241.65443 522.716916,255.996073 C419.830739,351.333737 306.364044,432.873459 173.968694,384.409787 C160.929797,379.637294 148.52059,374.845815 136.518526,370.214857 C90.8961885,352.605826 49.8731763,336.786695 0,332.407739 L0,334.147584 C49.598873,338.531719 90.4562681,354.28526 135.895736,371.823524 C147.904702,376.45966 160.32426,381.252865 173.375233,386.032262 C235.310855,408.705487 297.764031,404.594066 364.295528,373.454629 C425.534178,344.79896 481.75256,296.305945 523.890037,257.262984 C539.378687,242.910985 555.067457,227.835776 570.236949,213.257666 C652.705642,134.011846 737.9812,52.0682309 852.22595,23.8406188 C1111.29251,-40.1677443 1347.9559,34.7940508 1501.51574,229.499676 C1600.17005,354.590769 1687.60554,445.349256 1768.81485,506.96188 C1849.9034,568.481297 1925.33336,601.351949 1999.41424,607.448313 C2007.77791,608.138727 2016.13467,608.483935 2024.50868,608.483935 C2053.35021,608.482209 2082.28835,604.351802 2111.61811,596.006412 L2111.61811,594.23032 C2073.81083,605.045669 2036.67292,608.782539 1999.55571,605.72918" id="Fill-1" fill="#F5F5F5" mask="url(#mask-2)"></path>
                </g>
                <g id="Group-6" transform="translate(0.000000, 252.076787)">
                    <mask id="mask-4" fill="white">
                        <use xlink:href="#path-3"></use>
                    </mask>
                    <g id="Clip-5"></g>
                    <path d="M2007.38129,593.203594 C1874.72889,586.25776 1733.40401,491.670164 1562.62517,295.538783 C1541.37788,271.13949 1519.35253,245.059392 1497.16501,218.019819 C1399.15936,98.5600959 1267.96129,25.0636767 1117.7483,5.47383521 C1029.90568,-6.02950196 936.999654,1.12859024 841.618002,26.7444824 C728.173735,57.2112417 643.464035,139.715675 561.545674,219.503898 C546.976544,233.695834 531.908838,248.369233 517.044702,262.374796 C454.187835,321.594721 378.519794,384.63011 293.884277,403.136229 C253.490955,412.033799 213.16664,409.950912 174.030973,396.944513 C160.722948,392.531967 148.032538,388.076279 135.757895,383.765548 C90.3184264,367.806522 49.4834586,353.471356 0.000172517819,349.631733 L0.000172517819,351.372937 C49.2384833,355.221188 89.9164598,369.494231 135.186861,385.392857 C147.466679,389.705315 160.165716,394.16618 173.487542,398.582177 C212.91994,411.683488 253.551336,413.787083 294.253466,404.822211 C379.299575,386.226358 455.198789,323.013225 518.228175,263.632812 C533.104386,249.615169 548.173818,234.938319 562.748123,220.741206 C644.509493,141.108293 729.055301,58.7608962 842.064823,28.4114826 C937.229103,2.85426338 1029.90395,-4.28657209 1117.52575,7.1839773 C1267.29537,26.7168716 1398.11046,100.001033 1495.82972,219.115622 C1518.03104,246.165548 1540.06502,272.261178 1561.32439,296.670824 C1732.43274,493.180128 1874.14233,587.954097 2007.28985,594.927542 C2012.63445,595.207101 2017.97561,595.34688 2023.31848,595.34688 C2052.62409,595.34688 2081.95039,591.094822 2111.61828,582.495793 L2111.61828,580.678659 C2076.55748,590.896369 2041.98836,595.013826 2007.38129,593.203594" id="Fill-4" fill="#F5F5F5" mask="url(#mask-4)"></path>
                </g>
                <g id="Group-9" transform="translate(0.000000, 242.750756)">
                    <mask id="mask-6" fill="white">
                        <use xlink:href="#path-5"></use>
                    </mask>
                    <g id="Clip-8"></g>
                    <path d="M2009.27502,579.883964 C1875.92392,574.294966 1732.62199,480.361191 1558.29618,284.265299 C1536.58137,259.854378 1514.09539,234.045346 1491.46106,207.555359 C1391.16955,90.1140055 1258.25147,19.5895451 1107.07755,3.60349502 C1019.80596,-5.71092625 927.060385,3.64486946 831.423407,31.4071201 C719.209191,63.9808736 635.218891,146.857329 553.994051,227.006519 C540.03736,240.777312 525.606244,255.017016 511.373524,268.646447 C449.565565,327.818795 375.181057,391.078593 292.09475,411.622727 C252.439804,421.549146 212.741729,420.750964 174.090837,409.252317 C160.32909,405.18383 147.184958,401.034318 134.473845,397.022721 C89.3897629,382.791637 48.8912049,370.020726 -0.000345035639,366.698703 L-0.000345035639,368.42781 C48.6617562,371.753281 89.0257503,384.484541 133.952841,398.667355 C146.67258,402.680676 159.825338,406.831912 173.600886,410.90557 C212.548509,422.492138 252.558841,423.29894 292.510518,413.296668 C375.98844,392.655994 450.595496,329.222078 512.567347,269.892852 C526.810419,256.251354 541.24671,242.009926 555.205126,228.233961 C636.27815,148.234753 720.109734,65.5151758 831.904731,33.0620978 C927.327787,5.36363274 1019.84909,-3.97147575 1106.89641,5.3170865 C1257.62178,21.2565903 1390.14824,91.5759025 1490.1482,208.674193 C1512.79116,235.172799 1535.28576,260.992175 1557.00575,285.411716 C1731.66452,481.87653 1875.35288,575.99649 2009.20256,581.606175 C2013.4948,581.787188 2017.77842,581.876833 2022.06894,581.876833 C2051.84724,581.875109 2081.58586,577.492866 2111.61776,568.631839 L2111.61776,566.835499 C2077.27291,577.025679 2043.32658,581.31483 2009.27502,579.883964" id="Fill-7" fill="#F5F5F5" mask="url(#mask-6)"></path>
                </g>
                <g id="Group-12" transform="translate(0.000000, 233.076024)">
                    <mask id="mask-8" fill="white">
                        <use xlink:href="#path-7"></use>
                    </mask>
                    <g id="Clip-11"></g>
                    <path d="M2011.15684,567.704054 C1877.12085,563.465068 1731.84531,470.057333 1553.96392,273.742947 C1531.42619,248.88676 1508.47787,223.313152 1485.75555,197.734371 C1383.16265,82.1504268 1248.52802,14.497379 1096.40871,2.09084241 C1009.68917,-5.10060292 917.104036,6.46262033 821.230709,36.4597427 C710.236194,71.1890775 626.953217,154.58225 546.411548,235.231637 C533.079371,248.579787 519.293472,262.384948 505.700793,275.633073 C445.074581,334.701225 372.071941,398.165299 290.30367,421.020988 C251.242185,431.939224 212.165174,432.430725 174.154323,422.4679 C159.716307,418.723865 145.911431,414.857385 132.560277,411.116799 C88.0334278,398.643004 48.0506981,387.447114 -0.000690071276,384.618823 L-0.000690071276,386.350289 C47.8488522,389.178579 87.705644,400.341703 132.094479,412.777557 C145.452534,416.519868 159.266035,420.389797 173.717853,424.137281 C212.021984,434.174263 251.404352,433.687935 290.767743,422.681747 C372.912103,399.722583 446.121764,336.087777 506.904968,276.867863 C520.506272,263.611115 534.297347,249.802505 547.632974,236.449181 C628.026278,155.948107 711.155714,72.7084212 821.746537,38.1049798 C917.405943,8.17339102 1009.77888,-3.36913743 1096.26724,3.81023594 C1247.93801,16.1805567 1382.17412,83.6352791 1484.46511,198.879484 C1507.19089,224.461714 1530.14438,250.040495 1552.68728,274.901856 C1730.90164,471.5853 1876.56534,565.172389 2011.10163,569.428621 C2014.35014,569.532095 2017.58485,569.582108 2020.82646,569.582108 C2051.08264,569.580383 2081.2284,565.063741 2111.61742,555.92526 L2111.61742,554.154129 C2077.97299,564.327351 2044.646,568.773286 2011.15684,567.704054" id="Fill-10" fill="#F5F5F5" mask="url(#mask-8)"></path>
                </g>
                <g id="Group-15" transform="translate(0.000000, 222.701884)">
                    <mask id="mask-10" fill="white">
                        <use xlink:href="#path-9"></use>
                    </mask>
                    <g id="Clip-14"></g>
                    <path d="M2019.58899,556.731874 C2017.40837,556.731874 2015.21049,556.707702 2013.02814,556.662809 C1878.31933,553.772425 1731.07364,460.819115 1549.63493,264.131395 L1531.2083,244.178419 C1514.49132,226.076395 1497.43621,207.608324 1480.04986,188.763846 C1375.14523,74.9476247 1238.79405,10.1159931 1085.73624,1.27908323 C999.548059,-3.84383813 907.111287,9.93987646 811.036113,42.2520943 C701.250949,79.1744233 618.663218,163.187226 538.796094,244.435688 C526.098783,257.352632 512.970176,270.709869 500.02789,283.559474 C440.478189,342.667316 368.779783,406.466421 288.512418,431.485339 C250.144455,443.445729 211.690233,445.218982 174.210736,436.756751 C158.804895,433.332837 144.064973,429.727627 129.8081,426.24328 C87.8276141,415.978445 47.589558,406.143541 0.000517553458,403.674455 L0.000517553458,405.406268 C47.4170401,407.877081 87.5326086,417.684359 129.399233,427.919841 C143.663006,431.407641 158.415005,435.014578 173.832922,438.440219 C211.61605,446.973241 250.368728,445.184449 289.024795,433.134274 C369.647548,408.003125 441.544349,344.03999 501.24414,284.785384 C514.191603,271.928872 527.325384,258.566456 540.026146,245.646058 C619.751806,164.542633 702.191171,80.6800477 811.58472,43.8889428 C907.449422,11.6492435 999.644669,-2.10511828 1085.6379,3.00226338 C1238.23854,11.8132737 1374.18776,76.4532491 1478.78186,189.932777 C1496.1682,208.778981 1513.22332,227.248779 1529.94374,245.350804 L1548.36692,265.302053 C1730.1455,462.357545 1877.7828,555.486972 2012.99364,558.387716 C2015.19669,558.434335 2017.39112,558.458508 2019.59244,558.458508 C2050.32132,558.456781 2080.87595,553.801778 2111.61862,544.382992 L2111.61862,542.575207 C2080.86905,552.049245 2050.31442,556.731874 2019.58899,556.731874" id="Fill-13" fill="#F5F5F5" mask="url(#mask-10)"></path>
                </g>
                <g id="Group-18" transform="translate(0.000000, 211.082818)">
                    <mask id="mask-12" fill="white">
                        <use xlink:href="#path-11"></use>
                    </mask>
                    <g id="Clip-17"></g>
                    <path d="M2018.36239,544.344164 C2017.20652,544.344164 2016.04375,544.337265 2014.88788,544.323466 C1879.52005,542.791838 1730.30421,450.506029 1545.303,253.896982 C1523.2052,230.439605 1499.99465,206.050831 1474.34643,179.340467 C1367.11625,67.5522632 1229.04851,5.69032853 1075.06946,0.440015442 C989.316028,-2.65428866 897.086276,13.3243251 800.843761,47.9256822 C692.245519,86.9684177 610.342684,171.451199 531.136303,253.151866 C519.087658,265.580826 506.630147,278.43064 494.353779,290.825104 C435.877139,349.839382 365.476067,413.828004 286.719957,440.955772 C249.211133,453.874577 211.37625,456.929211 174.269393,450.040331 C157.954382,447.009845 142.310467,443.744785 127.180654,440.586663 C85.9557958,431.979875 46.44749,423.730122 0.000517553458,421.731071 L0.000517553458,423.461052 C46.2991247,425.465278 85.7039197,433.689159 126.828717,442.275249 C141.967156,445.435096 157.619698,448.703606 173.95541,451.735817 C211.362449,458.68334 249.490612,455.604559 287.282365,442.585714 C366.37316,415.342385 436.962276,351.195081 495.58038,292.037644 C507.861924,279.638005 520.322886,266.783017 532.374981,254.352331 C611.443348,172.793099 693.206443,88.4569263 801.426871,49.5487257 C897.462365,15.0215354 989.52995,-0.931206274 1075.00735,2.16482263 C1228.53096,7.39788764 1366.1881,69.0769927 1473.10085,180.534033 C1498.74735,207.242673 1521.95444,231.626272 1544.04707,255.0802 C1638.07274,355.006905 1721.31431,426.738186 1798.52811,474.38081 C1875.42965,521.826806 1946.19646,545.270386 2014.86891,546.048274 C2016.03685,546.062072 2017.19617,546.068971 2018.36412,546.068971 C2049.57086,546.067247 2080.52919,541.286081 2111.61862,531.603013 L2111.61862,529.795416 C2080.52056,539.533677 2049.56224,544.344164 2018.36239,544.344164" id="Fill-16" fill="#F5F5F5" mask="url(#mask-12)"></path>
                </g>
                <g id="Group-21" transform="translate(0.000000, 200.141368)">
                    <mask id="mask-14" fill="white">
                        <use xlink:href="#path-13"></use>
                    </mask>
                    <g id="Clip-20"></g>
                    <path d="M2017.14269,533.818035 L2016.739,533.818035 C1880.71905,533.63843 1729.54168,441.815339 1540.97108,244.843844 C1518.3471,221.237867 1494.01173,196.367746 1468.64126,170.920816 C1359.07347,60.9092591 1219.28746,1.87100124 1064.39923,0.19411163 C977.879821,-0.930147009 888.365501,16.764406 790.649683,54.3035919 C683.219386,95.5730369 601.98247,180.764556 523.419581,263.153199 C512.040305,275.088301 500.272865,287.427515 488.683118,299.353982 C431.255386,358.423325 362.137847,422.756479 284.929222,452.039012 C248.157049,465.986037 210.943231,470.331098 174.324598,464.958488 C156.268883,462.309314 138.944644,459.311291 122.189713,456.416886 C82.4623099,449.546992 44.3772762,442.962049 0.000517553457,441.388777 L0.000517553457,443.12093 C44.2513382,444.697655 82.2518382,451.261875 121.896433,458.117953 C138.661715,461.017539 155.99803,464.013835 174.074447,466.666463 C210.988085,472.08052 248.491734,467.7061 285.53821,453.653731 C363.064268,424.252036 432.3595,359.765182 489.920071,300.559408 C501.516718,288.624306 513.285884,276.281639 524.66861,264.346537 C603.098661,182.096051 684.199287,97.0461439 791.265571,55.9148566 C888.776093,18.4585653 978.148949,0.795097815 1064.37681,1.92108343 C1218.80786,3.59279212 1358.17638,62.4548988 1467.41984,172.141785 C1492.78341,197.578353 1517.11014,222.439839 1539.72723,246.037182 C1635.5833,346.167006 1720.19294,417.874329 1798.39182,465.260708 C1876.28879,512.464028 1947.70944,535.453477 2016.73555,535.545007 L2017.14269,535.545007 C2048.82731,535.545007 2080.1876,530.624864 2111.61862,520.661964 L2111.61862,518.848643 C2080.1807,528.871988 2048.82041,533.818035 2017.14269,533.818035" id="Fill-19" fill="#F5F5F5" mask="url(#mask-14)"></path>
                </g>
                <g id="Group-24" transform="translate(0.000000, 189.548621)">
                    <mask id="mask-16" fill="white">
                        <use xlink:href="#path-15"></use>
                    </mask>
                    <g id="Clip-23"></g>
                    <path d="M2018.57304,522.952916 C2017.69665,522.961554 2016.84096,522.96501 2015.96284,522.96501 C1879.97567,522.96501 1727.551,431.582463 1536.64106,235.681517 C1513.43741,211.902911 1488.63797,187.267357 1462.93454,162.460759 C1351.02051,54.3193314 1209.60593,-1.85920025 1053.72918,0.0585685453 C967.62726,0.899968007 878.240602,20.7566498 780.454052,60.7585424 C674.167549,104.240062 593.58275,190.118095 515.651276,273.16785 C504.956896,284.563888 493.900229,296.350392 483.010905,307.763708 C426.628631,366.839625 358.789449,431.466706 283.13521,462.880104 C247.108313,477.842156 210.519009,483.477978 174.378251,479.632074 C153.931439,477.455147 134.292011,474.758177 115.301249,472.151048 C77.6699374,466.981711 41.5705838,462.036977 0.000690071277,460.855217 L0.000690071277,462.584664 C41.4722486,463.766424 77.5025951,468.704247 115.066625,473.86149 C134.071188,476.472074 153.724418,479.170773 174.195382,481.349427 C210.629421,485.22643 247.498204,479.547415 283.795953,464.476517 C359.745198,432.938723 427.751722,368.163058 484.258208,308.95929 C495.150983,297.537335 506.211101,285.750832 516.908931,274.351338 C594.712742,191.434617 675.168152,105.69653 781.107895,62.3584108 C878.687423,22.4394487 967.86706,2.62595992 1053.74643,1.78628818 C1209.00902,-0.147030091 1350.15447,55.8846454 1461.73555,163.702989 C1487.43035,188.499221 1512.21598,213.122682 1535.40928,236.889193 C1633.0975,337.131486 1719.0752,408.752376 1798.25398,455.843102 C1876.12852,502.156355 1947.35078,524.694457 2015.89901,524.692729 C2016.79265,524.692729 2017.69319,524.689274 2018.58684,524.680635 C2049.84189,524.412839 2080.72603,519.364442 2111.6188,509.405866 L2111.6188,507.58485 C2080.71568,517.603896 2049.82464,522.685119 2018.57304,522.952916" id="Fill-22" fill="#F5F5F5" mask="url(#mask-16)"></path>
                </g>
                <path d="M2020.39586,688.585495 C2018.52749,688.621702 2016.67637,688.637219 2014.80111,688.637219 C1878.90882,688.637219 1725.36106,597.922857 1532.31017,403.7475 C1508.62865,379.957695 1483.36514,355.619611 1457.22696,331.409114 C1342.95289,225.413621 1199.71479,172.254667 1043.05999,177.723667 C957.282401,180.497822 868.049285,202.454856 770.259284,244.853398 C665.099322,290.448512 585.158015,376.836986 507.847605,460.380614 C497.851922,471.180682 487.514655,482.351441 477.339554,493.194613 C421.982036,552.138087 355.409135,616.907459 281.343785,650.350772 C246.067341,666.283631 210.100826,673.20264 174.429317,670.885384 C150.718467,669.352616 127.892635,667.011222 105.81898,664.747414 C72.5420178,661.3336 38.416268,657.849095 0,656.9784 L0,658.700825 C38.3420853,659.57152 72.4160798,663.052576 105.641287,666.461218 C127.732193,668.72675 150.575278,671.071592 174.318905,672.606084 C210.271619,674.926789 246.514162,667.971572 282.054558,651.923196 C356.394211,618.35402 423.125829,553.441543 478.598934,494.372207 C488.77576,483.525587 499.114753,472.354827 509.113886,461.549587 C586.303533,378.136994 666.120628,291.886452 770.94763,246.434443 C868.532334,204.125557 957.560155,182.21335 1043.11864,179.447815 C1199.28695,173.999505 1342.12135,226.992941 1456.05384,332.671191 C1482.17649,356.867895 1507.42102,381.190461 1531.08702,404.963024 C1630.61082,505.067101 1717.9566,576.415825 1798.117,623.093704 C1877.9962,669.606065 1950.72626,691.571721 2020.42691,690.309644 C2051.11266,689.745847 2081.39126,684.599263 2111.61811,674.723339 L2111.61811,672.900914 C2081.37401,682.840631 2051.08505,688.021698 2020.39586,688.585495" id="Fill-25" fill="#F5F5F5"></path>
                <g id="Group-29" transform="translate(0.000000, 165.699595)" fill="#F5F5F5">
                    <path d="M2022.20367,502.006441 C1884.36884,505.86705 1727.27584,415.803434 1527.97808,218.496059 C1503.84973,194.63801 1478.1256,170.500132 1451.52163,146.754361 C1334.87888,42.4954477 1189.96564,-7.83584563 1032.39131,1.18433467 C946.867328,5.86370435 857.789477,30.0102192 760.065034,75.0040255 C656.002285,122.915313 576.688943,210.197908 499.985795,294.607933 C490.707787,304.819979 481.110621,315.380948 471.666995,325.649997 C417.316982,384.713004 351.989659,449.885621 279.552877,485.46714 C245.019985,502.429639 209.698687,510.646606 174.482625,509.86412 C146.379472,509.245731 120.400013,507.418203 92.8972227,505.48358 C63.4794842,503.412497 33.3337205,501.301685 -0.000172517819,500.743754 L-0.000172517819,502.471096 C33.2785148,503.030754 63.3915001,505.138112 92.7747351,507.207468 C120.301678,509.143818 146.300114,510.971346 174.444671,511.591462 C209.916059,512.37913 245.530638,504.101707 280.313681,487.018293 C353.004064,451.310678 418.476301,385.999874 472.936726,326.821135 C482.382077,316.546904 491.980969,305.985935 501.262427,295.768706 C577.848263,211.489959 657.042568,124.338642 760.786158,76.5724521 C858.308756,31.6719223 947.181311,7.57722768 1032.48792,2.9099494 C1189.58437,-6.08259343 1334.0784,44.0949664 1450.37266,148.042958 C1476.95593,171.769728 1502.65936,195.886878 1526.76527,219.724199 C1628.12639,320.075864 1716.84196,391.432365 1797.97709,437.875411 C1878.84654,484.162997 1952.19422,505.70468 2022.25198,503.732055 C2052.36841,502.88393 2082.04665,497.63972 2111.61793,487.809416 L2111.61793,485.983616 C2082.02423,495.876104 2052.33219,501.158316 2022.20367,502.006441" id="Fill-27"></path>
                </g>
                <g id="Group-32" transform="translate(0.000000, 152.813812)" fill="#F5F5F5">
                    <path d="M2023.99958,491.576104 C1885.48503,496.740933 1726.52193,407.373155 1523.65133,210.118785 C1499.07099,186.252163 1472.88278,162.37691 1445.81474,139.154165 C1386.04422,87.8079568 1318.72776,50.0263309 1245.7372,26.8605512 C1174.54254,4.26614806 1099.16606,-4.07663981 1021.72108,2.07385743 C936.374794,8.62828854 847.45221,34.9047042 749.872681,82.4049098 C646.877818,132.544495 568.180364,220.553744 492.072403,305.668132 C483.370604,315.398796 474.687782,325.107018 465.992884,334.737561 C412.634848,393.779227 348.542753,459.206156 277.760417,496.81516 C243.986604,514.760872 209.255316,524.249865 174.532655,525.019756 C140.55527,525.775837 108.820617,524.453558 75.231398,523.055326 C51.1824141,522.055848 26.5727472,521.039109 -0.000172517819,520.733569 L-0.000172517819,522.454603 C26.5468695,522.761869 51.1323839,523.782061 75.1589406,524.779813 C108.779213,526.179771 140.536293,527.502051 174.570609,526.745969 C209.565848,525.9709 244.555912,516.412858 278.569526,498.339407 C349.588211,460.606115 413.813145,395.046268 467.274692,335.892397 C475.971315,326.261855 484.654137,316.551906 493.357661,306.819517 C569.353485,221.829415 647.937077,133.947907 750.628309,83.9585016 C848.007717,36.5532377 936.726731,10.3320609 1021.85565,3.79489189 C1179.79571,-8.7425938 1326.02354,38.5176682 1444.69165,140.466087 C1471.73382,163.662939 1497.89442,187.514025 1522.44715,211.35648 C1625.64731,311.697795 1715.72922,382.879918 1797.83907,428.971534 C1879.69188,474.918147 1953.65889,495.958959 2024.06514,493.300591 C2053.61399,492.185457 2082.6936,486.816934 2111.61793,477.065556 L2111.61793,475.246128 C2082.66599,485.064828 2053.56569,490.459244 2023.99958,491.576104" id="Fill-30"></path>
                </g>
                <g id="Group-35" transform="translate(0.000000, 140.605645)">
                    <mask id="mask-18" fill="white">
                        <use xlink:href="#path-17"></use>
                    </mask>
                    <g id="Clip-34"></g>
                    <path d="M2025.78204,482.467048 C1886.69472,489.037516 1725.77355,400.141834 1519.31803,202.649432 C1494.28397,178.732791 1467.63341,155.082217 1440.10819,132.355966 C1379.21976,82.0105989 1310.91478,45.4523296 1237.0944,23.6953218 C1164.98713,2.44280421 1088.93265,-4.33153294 1011.05465,3.5589026 C925.804973,11.9745609 837.037654,40.422976 739.678948,90.5264642 C637.726092,142.995183 559.632451,231.915053 484.109325,317.908188 C476.171781,326.94582 468.251488,335.964448 460.320843,344.922607 C405.292835,407.031927 344.870194,469.958453 275.966577,509.510838 C242.953567,528.46205 208.843344,539.248122 174.57958,541.568432 C132.866496,544.394959 93.1994739,543.653773 51.2000109,542.864211 C34.6348499,542.553224 17.7160274,542.245693 0.000172517819,542.11957 L0.000172517819,543.847276 C17.7039511,543.973399 34.6106974,544.280931 51.1672325,544.591918 C93.2046495,545.38148 132.909626,546.124394 174.696892,543.292683 C209.221158,540.955096 243.581532,530.091277 276.825715,511.010487 C345.943254,471.333707 406.484933,408.286242 461.611277,346.069804 C469.543646,337.109918 477.465664,328.089562 485.404934,319.050202 C560.821099,233.178006 638.806054,144.382531 740.467354,92.064123 C837.62939,42.059114 926.194863,13.6711687 1011.22545,5.27797056 C1170.02292,-10.8104323 1317.95695,33.5968077 1439.00926,133.689756 C1466.50342,156.390091 1493.12119,180.011294 1518.12593,203.898564 C1623.16685,304.378518 1714.6151,375.48919 1797.69795,421.2976 C1874.74959,463.780175 1944.69349,484.547207 2010.98518,484.543751 C2015.9606,484.543751 2020.92739,484.427995 2025.86312,484.193027 C2054.84439,482.8195 2083.33053,477.340943 2111.61828,467.660603 L2111.61828,465.83269 C2083.29948,475.583865 2054.78573,481.093521 2025.78204,482.467048" id="Fill-33" fill="#F5F5F5" mask="url(#mask-18)"></path>
                </g>
                <g id="Group-38" transform="translate(0.000000, 127.938470)">
                    <mask id="mask-20" fill="white">
                        <use xlink:href="#path-19"></use>
                    </mask>
                    <g id="Clip-37"></g>
                    <path d="M2027.54931,472.186461 C1887.86336,480.134295 1725.02379,391.877779 1514.98679,194.490464 C1489.51799,170.584816 1462.40336,147.202234 1434.40199,124.98835 C1372.39046,75.7286983 1303.09868,40.4537127 1228.45367,20.1421985 C1155.43378,0.272614217 1078.69958,-4.9269677 1000.38512,4.68846101 C915.150962,14.939164 826.53891,45.5100126 729.483835,98.1462849 C628.538483,152.893808 551.036578,242.628027 476.084487,329.410292 C468.933623,337.6913 461.794836,345.958497 454.650873,354.179084 C400.602765,416.309945 341.332543,479.521463 274.174807,521.00073 C241.927776,540.918651 208.435166,552.983683 174.628575,556.857475 C122.988816,562.77692 74.6579488,562.568039 18.6862676,562.324632 C12.5394577,562.297011 6.31328959,562.272843 -0.000862589095,562.253854 L-0.000862589095,563.980143 C6.31156441,563.999132 12.5342821,564.0233 18.681092,564.050921 C74.6993531,564.292601 123.08025,564.501482 174.82352,558.573406 C208.885438,554.670267 242.616122,542.524099 275.08225,522.471528 C342.434932,480.867968 401.815565,417.545968 455.949932,355.31153 C463.097345,347.089216 470.239583,338.822019 477.390446,330.539285 C552.240753,243.874408 629.637422,154.261029 730.306745,99.6636928 C827.165149,47.1344504 915.577081,16.6274745 1000.59386,6.4026658 C1160.24875,-13.1958911 1309.88208,28.2781977 1433.33066,126.34176 C1461.2958,148.524571 1488.37247,171.877807 1513.80505,195.747202 C1620.68674,296.191317 1713.50305,367.110714 1797.55545,412.556993 C1881.37151,457.873801 1956.63759,477.929824 2027.64765,473.911024 C2056.06133,472.296944 2083.95919,466.736568 2111.61724,457.143581 L2111.61724,455.313715 C2083.92296,464.975753 2055.99232,470.570655 2027.54931,472.186461" id="Fill-36" fill="#F5F5F5" mask="url(#mask-20)"></path>
                </g>
                <g id="Group-41" transform="translate(0.000000, 114.004577)" fill="#F5F5F5">
                    <path d="M2029.30485,462.745435 C1889.07029,471.986105 1724.28127,384.445541 1510.65591,187.160584 C1484.75063,163.264558 1457.17193,140.144769 1428.69442,118.442906 C1365.55979,70.2679098 1295.28121,36.2721771 1219.81157,17.4027171 C1145.87733,-1.08379941 1068.46168,-4.7096889 989.715924,6.62337196 C904.411038,18.7016204 815.954251,51.3932748 719.290792,106.568204 C619.31154,163.637151 542.382394,254.256789 467.98581,341.890502 C461.64578,349.363077 455.314376,356.821852 448.977797,364.247853 C395.881988,426.43824 337.736582,489.96203 272.385107,533.310557 C240.914406,554.186158 208.042861,567.527086 174.677915,572.964195 C117.859171,582.222116 64.3027392,583.17775 0.000172517819,583.200174 L0.000172517819,584.928595 C64.3820974,584.911346 118.002361,583.947087 174.953943,574.666742 C208.56214,569.189958 241.663134,555.759332 273.337405,534.749183 C338.868299,491.283358 397.110314,427.65262 450.288932,365.36736 C456.625512,357.939634 462.958641,350.479133 469.302121,343.008283 C543.602095,255.486694 620.431181,164.984354 720.14648,108.065479 C816.61672,53.0009479 904.873386,20.3782924 989.960899,8.33109346 C1150.44905,-14.767996 1301.79893,23.7816606 1427.64896,119.814258 C1456.08334,141.485071 1483.61891,164.570361 1509.48796,188.428438 C1618.21042,288.837287 1712.39134,359.564557 1797.40985,404.648404 C1882.20236,449.614954 1958.09985,469.189927 2029.41699,464.465231 C2057.26654,462.624687 2084.58129,457.00128 2111.61828,447.505314 L2111.61828,445.67167 C2084.53816,455.23836 2057.18891,460.903165 2029.30485,462.745435" id="Fill-39"></path>
                </g>
                <g id="Group-44" transform="translate(0.000000, 100.070684)" fill="#F5F5F5">
                    <path d="M2031.04521,454.734547 C1890.27412,465.371519 1723.53737,378.282386 1506.32709,180.689999 C1479.99052,156.759402 1451.94947,133.854846 1422.98718,112.610266 C1358.72602,65.4140988 1287.45891,32.6274189 1211.1698,15.1588086 C1136.32122,-1.98160683 1058.22413,-4.04232592 979.050527,9.03365357 C893.578299,22.9646674 805.275053,57.8483406 709.098094,115.68148 C610.045263,175.24369 533.681976,266.998373 459.828823,355.733663 C454.318603,362.356293 448.811835,368.970285 443.305066,375.561823 C391.118426,437.993147 334.075409,501.99808 270.594027,547.23026 C239.899656,569.098411 207.644,583.746271 174.722424,590.767917 C120.474196,602.337654 67.4887983,605.628241 -0.000172517819,605.868341 L-0.000172517819,607.587047 C67.5819579,607.345219 120.700194,604.056359 175.082987,592.457257 C208.235736,585.388974 240.705315,570.644382 271.59463,548.636316 C335.233003,503.29186 392.367455,439.190195 444.630003,376.670776 C450.136771,370.077512 455.641815,363.461791 461.155485,356.839162 C534.915478,268.21615 611.185606,176.573743 709.988286,117.161813 C805.97375,59.4444046 894.07515,24.6315525 979.328281,10.7385402 C1140.64624,-15.9074386 1293.70578,19.8036314 1421.96588,114.002504 C1450.88331,135.212537 1478.87605,158.079092 1505.16777,181.968233 C1615.73616,282.549634 1711.27998,353.232472 1797.26286,398.053544 C1883.03355,442.760611 1959.55038,461.868469 2031.1746,456.456707 C2058.46002,454.397715 2085.19338,448.718214 2111.61793,439.300745 L2111.61793,437.459399 C2085.14507,446.949416 2058.37031,452.6721 2031.04521,454.734547" id="Fill-42"></path>
                </g>
                <g id="Group-47" transform="translate(0.000000, 86.136791)" fill="#F5F5F5">
                    <path d="M2032.77039,445.427548 C1891.45932,457.375363 1722.7921,371.037868 1501.99517,173.704879 C1475.22385,149.804074 1446.72218,127.179635 1417.27857,106.457671 C1351.89086,60.379155 1279.63695,28.8926005 1202.53011,12.8707652 C1126.75856,-2.86992484 1047.98347,-3.35977318 968.382025,11.4201931 C882.659646,27.1643328 794.511666,64.1427081 698.905741,124.468221 C600.741377,186.408164 524.924971,279.101614 451.604898,368.745585 C446.943467,374.442659 442.288936,380.134559 437.63268,385.81266 C386.294827,448.375262 330.309345,512.729951 268.805017,559.596708 C238.895603,582.38673 207.259285,598.299902 174.770729,606.896395 C123.929728,620.349976 71.6206001,626.431685 -0.000172517819,626.833567 L-0.000172517819,628.558385 C71.784492,628.154778 124.223008,622.057546 175.212375,608.564294 C207.920028,599.909157 239.761642,583.895946 269.84875,560.967939 C331.494542,513.994242 387.561108,449.549864 438.966243,386.906195 C443.624224,381.226369 448.278755,375.536194 452.938461,369.837395 C526.172275,280.302087 601.898972,187.715576 699.825261,125.927417 C795.243142,65.7209167 883.191001,28.8201582 968.697733,13.1156893 C1130.82653,-16.9858362 1285.60262,15.7788085 1416.28486,107.866847 C1445.675,128.55259 1474.12491,151.135634 1500.8462,174.989868 C1613.25708,275.458798 1710.16724,345.89347 1797.11105,390.31961 C1883.85128,434.640536 1960.96157,453.228901 2032.91703,447.145467 C2059.63659,444.885955 2085.79719,439.169908 2111.61793,429.866239 L2111.61793,428.036207 C2085.74544,437.414043 2059.53998,443.164587 2032.77039,445.427548" id="Fill-45"></path>
                </g>
                <g id="Group-50" transform="translate(0.000000, 72.202899)" fill="#F5F5F5">
                    <path d="M2034.48384,437.028243 C1892.62243,450.313596 1722.04544,364.547303 1497.66531,167.080837 C1470.46788,143.169617 1441.50041,120.777117 1411.57202,100.528085 C1345.05088,55.4721322 1271.81361,25.2202537 1193.88904,10.612923 C1117.20142,-3.75797053 1037.74143,-2.67933375 957.715594,13.8281235 C871.641278,31.4314757 783.648564,70.5782245 688.712009,133.499854 C591.401608,197.997156 516.125182,291.879975 443.327838,382.671853 L431.960639,396.840825 C384.8719,455.437552 329.407422,522.214661 267.014627,573.096978 C237.90052,596.839068 206.881816,614.050659 174.817654,624.2537 C123.108888,640.711109 68.1947412,648.572213 0.000172517819,649.058894 L0.000172517819,650.770907 C68.3638087,650.2825 123.466,642.407589 175.340383,625.898405 C207.613292,615.628058 238.82349,598.314643 268.10494,574.434488 C330.627123,523.446896 386.160608,456.588674 433.304553,397.922914 L444.673477,383.752215 C517.388013,293.062161 592.578179,199.286342 689.666032,134.939187 C784.412818,72.1400906 872.207137,33.0779069 958.062354,15.5177001 C1118.68334,-17.61457 1279.39749,13.0860214 1410.6042,101.957063 C1440.47566,122.166401 1469.38274,144.51403 1496.5267,168.376927 C1610.78352,268.930036 1709.05657,339.25888 1796.95958,383.381164 C1884.67109,427.405077 1962.42142,445.522723 2034.646,438.745433 C2060.80661,436.293044 2086.39272,430.504648 2111.61828,421.297404 L2111.61828,419.461133 C2086.33752,428.746038 2060.69619,434.570677 2034.48384,437.028243" id="Fill-48"></path>
                </g>
                <g id="Group-53" transform="translate(0.000000, 59.535723)">
                    <mask id="mask-22" fill="white">
                        <use xlink:href="#path-21"></use>
                    </mask>
                    <g id="Clip-52"></g>
                    <path d="M2035.73866,428.078796 C1963.57458,435.496665 1885.53755,417.939375 1797.17757,374.411785 C1708.47091,330.715175 1608.97732,260.66366 1493.01185,160.252521 C1465.39256,136.357016 1435.97086,114.225863 1405.56084,94.4747743 C1337.92265,50.4987658 1263.71124,21.5206147 1184.99119,8.34229952 C1107.40088,-4.64285101 1027.27856,-1.99546011 946.844058,16.2172095 C860.34859,35.6751014 772.531922,76.9381811 678.371425,142.367542 C581.877269,209.418106 507.13979,304.453403 434.863606,396.361846 L426.196466,407.377407 C379.763019,466.332301 325.200571,533.607074 265.16877,585.887439 C236.866462,610.536632 206.470243,629.025251 174.82699,640.837616 C122.411923,660.407613 66.22126,669.988236 0.000862401969,670.491844 L0.000862401969,672.201006 C66.423062,671.695674 122.824151,662.096079 175.428946,642.45537 C207.267102,630.567119 237.840977,611.973294 266.300242,587.187852 C326.444155,534.80918 381.07042,467.460245 427.550437,408.444987 L436.219301,397.429426 C508.416145,305.621014 583.072558,210.687474 679.356289,143.783508 C773.328781,78.4834985 860.948821,37.3066531 947.22179,17.898777 C1108.60135,-18.6403914 1271.03821,9.07011644 1404.62082,95.9217847 C1434.9653,115.629756 1464.32318,137.712618 1491.88383,161.556383 C1607.95968,262.064104 1707.57401,332.194955 1796.41349,375.958827 C1885.07358,419.633016 1963.41073,437.242046 2035.91631,429.794858 C2061.5124,427.166438 2086.52551,421.330105 2111.16088,412.234119 L2111.16088,410.39388 C2086.46686,419.567478 2061.39339,425.443478 2035.73866,428.078796" id="Fill-51" fill="#F5F5F5" mask="url(#mask-22)"></path>
                </g>
                <path d="M2037.86674,464.67136 C1965.392,472.782408 1886.73768,455.682881 1797.39588,412.415895 C1707.71766,368.986549 1606.84132,298.98212 1489.00475,198.405808 C1460.96543,174.487196 1431.07154,152.570438 1400.15807,133.263517 C1331.37004,90.2763409 1256.15745,62.5094717 1176.60776,50.7349788 C1098.08627,39.1124818 1017.2565,43.3338197 936.381868,63.2884502 C849.350078,84.6611324 761.667897,128.133658 668.327131,196.191505 C572.553863,266.023212 498.302194,362.500819 426.495102,455.798605 L420.61742,463.436394 C372.614337,525.751218 320.936624,591.069686 263.436435,644.582571 C235.79908,670.306133 206.015604,690.110495 174.914092,703.451581 C121.723398,726.499671 65.5205425,737.678271 0,738.053079 L0,739.763032 C65.7568919,739.383042 122.192646,728.180261 175.595537,705.0389 C206.878193,691.621816 236.827287,671.705185 264.611281,645.848627 C322.209806,592.242471 373.935823,526.863551 421.983761,464.491728 L427.861443,456.85394 C499.594352,363.651151 573.768389,267.273723 669.341535,197.587103 C762.497707,129.66398 849.981493,86.2847239 936.794185,64.9655857 C1098.98681,24.9475095 1263.22378,49.7245522 1399.24373,134.729931 C1430.08819,153.990217 1459.90962,175.856885 1487.88511,199.720226 C1605.83554,300.393263 1706.83092,370.475417 1796.64715,413.970397 C1886.28913,457.38247 1965.25571,474.525179 2038.05823,466.388222 C2063.10437,463.58839 2087.5605,457.710643 2111.61811,448.713528 L2111.61811,446.86367 C2087.49666,455.941965 2062.97671,461.864619 2037.86674,464.67136" id="Fill-54" fill="#F5F5F5"></path>
                <g id="Group-58" transform="translate(0.000000, 29.134503)">
                    <mask id="mask-24" fill="white">
                        <use xlink:href="#path-23"></use>
                    </mask>
                    <g id="Clip-57"></g>
                    <path d="M2039.53809,412.627248 C1894.1556,430.150502 1723.03517,348.725 1484.67248,148.603438 C1456.19841,124.704798 1425.84218,103.057817 1394.44911,84.2629364 C1324.52591,42.3734568 1248.32652,15.8884287 1167.96772,5.54460181 C1088.51981,-4.68189731 1007.01377,1.10857528 925.718196,22.7503803 C838.070518,46.0123444 750.545328,91.5855722 658.134433,162.071981 C563.070214,234.582294 489.318846,332.314635 417.996529,426.830815 L414.942964,430.876899 C363.177267,499.453279 315.910835,560.581069 261.648805,614.206781 C235.02413,640.684907 205.858268,661.760778 174.960326,676.846029 C121.861067,702.946291 64.3764043,715.917916 -0.000345035638,716.271625 L-0.000345035638,717.974603 C64.6489825,717.626071 122.385521,704.613036 175.72113,678.395446 C206.786414,663.225651 236.107542,642.042804 262.863331,615.431821 C317.204719,561.728466 364.51083,500.548914 416.321381,431.919046 L419.373221,427.871236 C490.626531,333.446504 564.303716,235.810785 659.179891,163.443681 C751.407917,93.0970305 838.738162,47.622151 926.161567,24.4171254 C1089.1357,-18.97346 1255.12717,2.80982855 1393.56409,85.741612 C1424.87953,104.491632 1455.15986,126.085125 1483.56319,149.923376 C1603.36129,250.502642 1705.71784,320.3541 1796.48291,363.472071 C1887.08927,406.512398 1966.66311,423.159144 2039.74339,414.338854 C2064.23229,411.386679 2088.13291,405.499583 2111.61776,396.629256 L2111.61776,394.776166 C2088.06563,403.731039 2064.09773,409.666446 2039.53809,412.627248" id="Fill-56" fill="#F5F5F5" mask="url(#mask-24)"></path>
                </g>
                <g id="Group-61" transform="translate(0.000000, 15.200610)">
                    <mask id="mask-26" fill="white">
                        <use xlink:href="#path-25"></use>
                    </mask>
                    <g id="Clip-60"></g>
                    <path d="M2041.19236,404.597513 C1968.15867,414.04712 1888.3019,397.939287 1797.04342,355.347006 C1705.46579,312.604539 1601.87229,242.952963 1480.34211,142.411496 C1451.44883,118.511276 1420.63197,97.1003387 1388.74377,78.7707948 C1317.67851,37.9168688 1240.49231,12.6736101 1159.32613,3.743611 C1078.96043,-5.10180085 996.772938,2.26074434 915.052972,25.6223678 C826.715223,50.8397324 739.343573,98.5797529 647.943633,171.576842 C553.522905,246.983806 480.252862,346.221938 409.396343,442.19224 L409.272131,442.361414 C365.166225,502.08866 315.177462,569.782645 259.863073,628.153041 C234.03198,655.50235 205.485457,677.878273 175.01536,694.659352 C122.254235,723.810888 63.4894902,738.665449 -0.000517553458,738.955462 L-0.000517553458,740.66447 C63.7810454,740.371004 122.830444,725.464656 175.846895,696.171565 C206.473984,679.304173 235.163697,656.817769 261.117278,629.338989 C316.500673,570.894363 366.52394,503.153769 410.659174,443.386819 L410.783387,443.219371 C481.574349,347.337109 554.775384,248.190469 649.018419,172.92506 C740.237216,100.074703 827.41392,52.4348067 915.527396,27.2830404 C1079.26406,-19.5299726 1247.02039,-0.711894068 1387.88464,80.2691979 C1419.6883,98.54868 1450.42579,119.904377 1479.2449,143.742451 C1600.88549,244.378863 1704.6032,314.106395 1796.3154,356.911007 C1887.88268,399.646568 1968.05171,415.799285 2041.41319,406.309974 C2065.35003,403.211318 2088.6986,397.324734 2111.61759,388.567362 L2111.61759,386.708168 C2088.62441,395.550128 2065.20512,401.490226 2041.19236,404.597513" id="Fill-59" fill="#F5F5F5" mask="url(#mask-26)"></path>
                </g>
                <g id="Group-64" fill="#F5F5F5">
                    <path d="M2042.83335,397.350303 C1969.53916,407.477913 1889.0803,391.847819 1796.86435,349.561941 C1704.33787,307.136168 1599.38665,237.61075 1476.01226,137.016852 C1395.14108,71.076856 1303.61175,28.3643879 1203.96718,10.0624986 C1105.95981,-7.94233258 1005.168,-1.4657746 904.388265,29.3056477 C815.275911,56.5123724 728.059528,106.423319 637.751625,181.893354 C543.915733,260.308063 471.108038,361.148935 400.700065,458.668627 C355.850608,520.78659 309.474368,585.016774 258.077859,642.903386 C188.849909,720.874235 99.0147046,761.975336 -0.000172517819,762.348386 L-0.000172517819,764.218815 C38.4902781,764.173911 75.5936855,757.997866 110.897732,745.716585 C166.777979,726.276548 216.730513,692.071687 259.368292,644.050168 C310.820007,586.099655 357.22385,521.831474 402.095734,459.680697 C472.445051,362.247359 545.188914,261.496296 638.857464,183.218026 C728.985948,107.899974 816.005662,58.0961067 904.890292,30.9567382 C1107.55042,-30.915979 1315.32226,8.22488321 1474.9254,138.357067 C1598.41365,239.042501 1703.48563,308.643911 1796.14495,351.131858 C1888.66626,393.559358 1969.4322,409.236082 2043.0697,399.060114 C2066.45622,395.827017 2089.2579,389.935939 2111.61793,381.298802 L2111.61793,379.454278 C2089.18027,388.176043 2066.30268,394.106843 2042.83335,397.350303" id="Fill-62"></path>
                </g>
            </g>
        </g>
    </g>
</svg>