<?xml version="1.0" encoding="UTF-8"?>
<svg width="1440px" height="414px" viewBox="0 0 1440 414" version="1.1" xmlns="http://www.w3.org/2000/svg" xmlns:xlink="http://www.w3.org/1999/xlink">
    <!-- Generator: Sketch 43.2 (39069) - http://www.bohemiancoding.com/sketch -->
    <title>middle_bg</title>
    <desc>Created with Sketch.</desc>
    <defs>
        <polygon id="path-1" points="861.370827 561.905697 0 561.905697 0 0.263925403 1722.74165 0.263925403 1722.74165 561.905697 861.370827 561.905697"></polygon>
        <polygon id="path-3" points="0 0.0586860731 0 509.74828 1729.10787 509.74828 1729.10787 0.0586860731 1.92152342e-20 0.0586860731"></polygon>
        <polygon id="path-5" points="0 0.386244666 0 492.293277 1730.89404 492.293277 1730.89404 0.386244666 0 0.386244666"></polygon>
        <polygon id="path-7" points="1735 0.261524968 1735 465.565072 0.000283496732 465.565072 0.000283496732 0.261524968 1735 0.261524968"></polygon>
        <polygon id="path-9" points="2.53054504e-13 449.400249 2.53054504e-13 0.583071017 1734.99943 0.583071017 1734.99943 449.400249 0 449.400249"></polygon>
        <polygon id="path-11" points="1735 0.18722899 1735 440.535476 0.000425245098 440.535476 0.000425245098 0.18722899"></polygon>
        <polygon id="path-13" points="0 425.619316 0 0.901913373 1734.99957 0.901913373 1734.99957 425.619316 7.55386846e-14 425.619316"></polygon>
        <polygon id="path-15" points="1735 0.158826365 1735 416.868964 0.000566993464 416.868964 0.000566993464 0.158826365 1735 0.158826365"></polygon>
        <polygon id="path-17" points="0 402.097743 0 0.243739403 1734.99972 0.243739403 1734.99972 402.097743 5.03591359e-14 402.097743"></polygon>
        <polygon id="path-19" points="0 395.476965 0 0.314071887 1734.99929 0.314071887 1734.99929 395.476965 1.57372069e-13 395.476965"></polygon>
        <polygon id="path-21" points="1735 0.275973212 1735 387.800761 0.000283496732 387.800761 0.000283496732 0.275973212 1735 0.275973212"></polygon>
        <polygon id="path-23" points="9.19054614e-14 373.976646 9.19054614e-14 0.27789319 1734.99943 0.27789319 1734.99943 373.976646 0 373.976646"></polygon>
        <polygon id="path-25" points="1735 0.000432016174 1735 367.499598 0.000425245098 367.499598 0.000425245098 0.000432016174 1735 0.000432016174"></polygon>
    </defs>
    <g id="Page-1" stroke="none" stroke-width="1" fill="none" fill-rule="evenodd" opacity="0.3">
        <g id="Spletnibit-home" transform="translate(0.000000, -1566.000000)">
            <g id="Group-5" transform="translate(719.500000, 1797.500000) scale(1, -1) translate(-719.500000, -1797.500000) translate(-148.000000, 1509.000000)">
                <g id="Page-1" transform="translate(867.500000, 288.500000) scale(1, -1) rotate(-180.000000) translate(-867.500000, -288.500000) ">
                    <g id="Group-3" transform="translate(0.000000, 14.097731)">
                        <mask id="mask-2" fill="white">
                            <use xlink:href="#path-1"></use>
                        </mask>
                        <g id="Clip-2"></g>
                        <path d="M1721.49573,0.263925403 C1565.98104,286.371833 1435.47547,430.360168 1285.12023,481.723457 C1133.67781,533.462769 961.532417,488.291794 752.230529,423.86136 C650.558313,392.563496 544.837919,382.42649 438.011929,393.742647 C352.556524,402.792734 266.205303,425.507346 181.357975,461.256468 C103.499991,494.06126 41.1217551,532.025368 -0.000708714736,560.188763 L-0.000708714736,561.905697 C41.0409616,533.735208 103.634647,495.542648 181.90652,462.564743 C315.030079,406.476338 521.967694,354.463168 751.812388,425.21646 C867.070665,460.6974 961.353821,486.77777 1046.856,498.74097 C1140.19232,511.80102 1216.04605,506.821911 1285.57806,483.065787 C1436.30042,431.57763 1567.03986,287.390642 1722.74165,0.94218531 L1721.49573,0.263925403 Z" id="Fill-1" fill="#F5F5F5" mask="url(#mask-2)"></path>
                    </g>
                    <path d="M1723.69719,12.0837696 C1565.68305,296.251755 1433.95876,438.784432 1283.24681,488.678383 C1131.44045,538.93525 959.841207,492.270691 751.285904,426.041238 C649.976759,393.869245 544.428915,382.787528 437.579692,393.103717 C352.105417,401.3544 265.610452,423.238558 180.497671,458.146602 C103.422824,489.758627 41.3577885,526.529455 0,554.149396 L0,555.853403 C41.295413,528.217868 103.584433,491.220217 181.080315,459.439493 C314.607821,404.680191 521.851821,354.671412 750.856363,427.39367 C865.703826,463.863957 959.676763,490.760901 1045.00502,503.484248 C1138.1529,517.374315 1213.993,513.100121 1283.69194,490.023726 C1434.77248,440.007858 1566.73351,297.278129 1724.93619,12.7727442 L1723.69719,12.0837696 Z" id="Fill-4" fill="#F5F5F5"></path>
                    <path d="M1725.717,10.069808 C1565.21974,292.660135 1432.29049,433.920554 1281.23916,482.411328 C1129.08772,531.253803 958.048665,483.03815 750.262183,414.925864 C649.325492,381.841863 543.964254,369.793267 437.098867,379.126107 C351.61478,386.588408 264.988052,407.670613 179.621631,441.781355 C103.305617,472.277234 41.5703391,507.929504 0,535.030334 L0,536.720768 C41.5051262,509.604338 103.450219,473.746437 180.146169,443.098815 C314.083383,389.577866 521.638786,341.477083 749.821287,416.274524 C864.24569,453.780315 957.89981,481.527821 1043.04649,495.028601 C1135.98894,509.766007 1211.81728,506.18518 1281.67155,483.761406 C1433.09431,435.154344 1566.26031,293.69822 1726.94896,10.7703737 L1725.717,10.069808 Z" id="Fill-6" fill="#F5F5F5"></path>
                    <g id="Group-10" transform="translate(0.000000, 8.055846)">
                        <mask id="mask-4" fill="white">
                            <use xlink:href="#path-3"></use>
                        </mask>
                        <g id="Clip-9"></g>
                        <path d="M1727.88144,0.0586860731 C1564.88724,281.139322 1430.74313,421.161706 1279.33688,468.256803 C1126.82615,515.698135 956.33586,465.91262 749.300899,395.900718 C648.72826,361.890194 543.543407,348.875152 436.655735,357.22595 C351.156089,363.903751 264.387482,384.185477 178.758813,417.509207 C103.189677,446.917923 41.7705249,481.483275 -0.000283566807,508.068187 L-0.000283566807,509.74828 C41.7123937,483.144921 103.328625,448.386585 179.273487,418.831712 C313.621769,366.547343 521.491834,320.361823 748.845775,397.244508 C862.856645,435.798662 956.199748,464.401388 1041.17196,478.685013 C1133.9295,494.274116 1209.73967,491.392133 1279.75798,469.611945 C1431.53286,422.401909 1565.91942,282.186542 1729.10787,0.771022653 L1727.88144,0.0586860731 Z" id="Fill-8" fill="#F5F5F5" mask="url(#mask-4)"></path>
                    </g>
                    <g id="Group-13" transform="translate(0.000000, 6.041885)">
                        <mask id="mask-6" fill="white">
                            <use xlink:href="#path-5"></use>
                        </mask>
                        <g id="Clip-12"></g>
                        <path d="M1729.67482,0.386244666 C1564.21863,279.476009 1428.88702,418.020908 1277.16119,463.641718 C1124.32957,509.597038 954.418989,458.330677 748.18001,386.540196 C647.994437,351.6662 543.000048,337.713201 436.118708,345.061062 C350.621859,350.940486 263.73,370.388791 177.858879,402.86736 C103.030175,431.168818 41.9445922,464.61548 -0.000708846809,490.629235 L-0.000708846809,492.293277 C41.8935553,466.256843 103.18045,432.627335 178.359325,404.194058 C313.089838,353.235275 521.228527,309.037546 747.715006,387.87965 C861.286442,427.412677 954.297067,456.823968 1039.07515,471.862706 C1131.6151,488.27775 1207.40074,486.099188 1277.56807,464.999599 C1429.66675,419.265395 1565.24079,280.531981 1730.89404,1.10912459 L1729.67482,0.386244666 Z" id="Fill-11" fill="#F5F5F5" mask="url(#mask-6)"></path>
                    </g>
                    <path d="M1731.77501,4.02792321 C1563.82879,281.760438 1427.28556,419.139537 1275.21167,463.391015 C1122.03049,507.966035 952.673546,455.105215 747.190907,381.370254 C647.374521,345.552156 542.55328,330.615296 435.660625,336.992481 C350.148485,342.08685 263.119293,360.747283 176.990407,392.454409 C102.874593,419.736955 42.1102592,452.163537 0,477.663763 L0,479.321207 C42.0762318,453.789761 103.048983,421.181542 177.52492,393.768444 C312.646096,344.035198 521.080607,301.739163 746.711688,382.705575 C859.866794,423.310109 952.562957,453.596771 1037.16345,469.424792 C1129.51367,486.704494 1205.28122,485.215917 1275.60724,464.754717 C1428.05401,420.393972 1564.84111,282.82756 1732.98724,4.76298817 L1731.77501,4.02792321 Z" id="Fill-14" fill="#F5F5F5"></path>
                    <path d="M1733.79341,2.01396161 C1563.36362,277.763005 1425.61669,413.669359 1273.19926,456.450256 C1119.67733,499.542999 950.879488,445.206822 746.166094,369.694945 C646.723787,333.013455 542.100657,317.132033 435.18061,322.515614 C349.657334,326.814824 262.495023,344.64386 176.111112,375.508022 C102.706197,401.734196 42.2590105,433.090222 0,458.015152 L0,459.658009 C42.2207286,434.706147 102.850818,403.187111 176.588927,376.841868 C312.122599,328.417992 520.869775,288.100671 745.675518,371.024539 C858.40733,412.607668 950.784492,443.698626 1035.20043,460.281699 C1127.3479,478.38289 1203.09652,477.597608 1273.5835,457.815287 C1426.3724,414.929497 1564.36604,278.837453 1735,2.75813745 L1733.79341,2.01396161 Z" id="Fill-16" fill="#F5F5F5"></path>
                    <g id="Group-20">
                        <mask id="mask-8" fill="white">
                            <use xlink:href="#path-7"></use>
                        </mask>
                        <g id="Clip-19"></g>
                        <path d="M1270.82258,449.785381 C1116.99583,491.449356 948.812816,435.575149 744.926219,358.203448 C645.885218,320.618979 541.470537,303.787828 434.575259,308.176344 C349.068392,311.684606 261.795341,328.704282 175.184254,358.7591 C102.484352,383.9874 42.3830449,414.331384 0.000283496732,438.707779 L0.000283496732,440.339298 C42.3504428,415.935971 102.63177,385.437482 175.649189,360.100036 C311.540512,312.943328 520.530051,274.567905 744.423012,359.528792 C856.699058,402.13539 948.729185,434.066951 1032.94047,451.421153 C1124.86287,470.367184 1200.57067,470.280717 1271.19254,451.153249 C1423.83144,409.813877 1562.63144,275.696219 1735.00028,2.90795919 L1735.00028,0.261524968 C1562.28132,273.999496 1423.44163,408.451679 1270.82258,449.785381" id="Fill-18" fill="#F5F5F5" mask="url(#mask-8)"></path>
                    </g>
                    <g id="Group-23" transform="translate(0.000000, 1.006981)" fill="#F5F5F5">
                        <path d="M1268.77247,442.834214 C1114.61545,483.122003 946.990924,425.631697 743.878273,346.284059 C645.214323,307.739518 540.973992,289.92942 434.081549,293.329323 C348.566178,296.053504 261.164135,312.285026 174.300737,341.575299 C102.282644,365.8587 42.5016883,395.256862 -0.000141748366,419.114387 L-0.000141748366,420.739811 C42.4747561,396.851054 102.42581,367.308095 174.751496,342.919645 C311.038298,296.964877 520.315585,260.471636 743.363727,347.607111 C855.21311,391.300481 946.921468,424.12126 1030.94706,442.273478 C1122.66676,462.092288 1198.35047,462.705548 1269.12968,444.208371 C1421.54036,404.377688 1561.06753,272.210174 1734.99986,2.71354048 L1734.99986,0.098667062 C1560.72449,270.512352 1421.15764,403.010628 1268.77247,442.834214" id="Fill-21"></path>
                    </g>
                    <g id="Group-26" transform="translate(0.000000, 1.006981)">
                        <mask id="mask-10" fill="white">
                            <use xlink:href="#path-9"></use>
                        </mask>
                        <g id="Clip-25"></g>
                        <path d="M1266.72237,435.59433 C1112.22515,474.413726 945.166198,415.43576 742.830328,334.302229 C644.542011,294.889975 540.483118,276.131286 433.58784,278.543847 C348.066798,280.474179 260.53293,295.88138 173.417219,324.337118 C102.065344,347.642939 42.6104093,376.044781 -0.000566993464,399.32649 L-0.000566993464,400.939119 C42.5962345,377.621952 102.243947,349.072605 173.903416,325.670338 C310.574355,281.034415 520.12947,246.529546 742.303024,335.618429 C853.727162,380.29832 945.113751,413.929505 1028.95366,432.839954 C1077.95181,443.890079 1122.4041,449.400249 1164.02,449.400249 C1200.13182,449.400249 1234.11174,445.251665 1267.06823,436.9701 C1419.26062,398.730796 1559.51354,268.799994 1734.99943,3.15732034 L1734.99943,0.583071017 C1559.17334,267.110776 1418.88498,397.363537 1266.72237,435.59433" id="Fill-24" fill="#F5F5F5" mask="url(#mask-10)"></path>
                    </g>
                    <g id="Group-29" transform="translate(0.000000, 3.020942)">
                        <mask id="mask-12" fill="white">
                            <use xlink:href="#path-11"></use>
                        </mask>
                        <g id="Clip-28"></g>
                        <path d="M1264.67368,427.669385 C1109.82634,465.028951 943.344306,404.559177 741.782382,321.625476 C643.871116,281.340639 540.053195,261.614902 433.09413,263.059113 C347.567419,264.198608 259.901724,278.783862 172.535119,306.410949 C101.835286,328.76858 42.706373,356.198665 0.000425245098,378.909199 L0.000425245098,380.512146 C42.6865282,357.770431 101.97987,330.208539 172.961781,307.763036 C310.039539,264.415452 519.902247,231.864725 741.242321,322.936463 C852.239796,368.606973 943.304616,403.052606 1026.95883,422.720235 C1077.54882,434.614069 1123.32221,440.535476 1166.18266,440.535476 C1200.68421,440.535476 1233.30051,436.696057 1265.00537,429.048401 C1416.99647,392.376217 1557.96664,264.637965 1735.00043,2.72274733 L1735.00043,0.18722899 C1557.63211,262.954234 1416.62509,391.007122 1264.67368,427.669385" id="Fill-27" fill="#F5F5F5" mask="url(#mask-12)"></path>
                    </g>
                    <path d="M1262.62357,424.028887 C1107.43888,460.014547 941.523832,397.915048 740.735854,312.996102 C644.208051,272.17318 541.680041,251.484229 435.920167,251.484229 C434.818783,251.484229 433.704641,251.485648 432.600421,251.489906 C347.068039,251.840494 259.270519,265.635494 171.651601,292.49451 C101.602394,313.966961 42.7895792,340.508035 0,362.694437 L0,364.291245 C42.7739869,342.073616 101.741307,315.410475 172.066924,293.852861 C309.538742,251.71275 519.694869,221.051202 740.18587,314.304775 C850.755266,361.067822 941.4969,396.404823 1024.96542,416.875188 C1077.12315,429.666683 1124.19779,436.022688 1168.28578,436.022688 C1201.21676,436.022688 1232.4822,432.474226 1262.94392,425.412787 C1414.74083,390.214886 1556.42824,264.35237 1735,5.51764004 L1735,3.02094241 C1556.09797,262.683174 1414.37795,388.842341 1262.62357,424.028887" id="Fill-30" fill="#F5F5F5"></path>
                    <g id="Group-34" transform="translate(0.000000, 3.020942)">
                        <mask id="mask-14" fill="white">
                            <use xlink:href="#path-13"></use>
                        </mask>
                        <g id="Clip-33"></g>
                        <path d="M1260.57346,414.490376 C1105.05566,449.004408 939.700522,385.435183 739.687908,298.747426 C642.527908,256.639231 539.044513,235.008056 432.108129,234.4565 C430.697732,234.449411 429.301511,234.446575 427.891115,234.446575 C343.681246,234.446575 257.192063,247.415922 170.769501,273.008653 C101.348239,293.567911 42.8628632,319.167732 -0.000425245098,340.776221 L-0.000425245098,342.361411 C42.8486883,320.72031 101.491405,295.004224 171.172067,274.3684 C309.036527,233.541968 519.486074,204.855423 739.12375,300.04904 C849.266482,347.784801 939.687765,383.925141 1022.9706,405.146548 C1076.67764,418.830507 1125.02801,425.620733 1170.33787,425.619315 C1201.72379,425.617898 1231.66105,422.358192 1260.88106,415.874227 C1412.49511,382.229356 1554.90261,258.516503 1734.99957,3.35768128 L1734.99957,0.901913373 C1554.57517,256.86042 1412.14074,380.855431 1260.57346,414.490376" id="Fill-32" fill="#F5F5F5" mask="url(#mask-14)"></path>
                    </g>
                    <g id="Group-37" transform="translate(0.000000, 4.027923)">
                        <mask id="mask-16" fill="white">
                            <use xlink:href="#path-15"></use>
                        </mask>
                        <g id="Clip-36"></g>
                        <path d="M1258.52477,406.561931 C1102.66111,439.609607 937.877213,374.562668 738.639962,286.087951 C641.857013,243.110105 538.559309,220.536641 431.614419,218.999441 C346.087708,217.759764 258.008108,229.919937 169.885984,255.114433 C101.086997,274.782093 42.9233897,299.472217 0.000566993464,320.509898 L0.000566993464,322.086768 C42.9262247,301.010834 101.25426,276.204534 170.322569,256.463202 C308.56975,216.946535 519.288618,190.230424 738.064464,287.382883 C847.780534,336.105749 937.880048,373.056637 1020.97719,395.030806 C1076.20944,409.636331 1125.81995,416.87038 1172.33893,416.868964 C1202.22091,416.868964 1230.83281,413.88382 1258.81819,407.948953 C1410.26073,375.832098 1553.38264,254.210531 1735.00057,2.58009352 L1735.00057,0.158826365 C1553.06087,252.559989 1409.91203,374.457827 1258.52477,406.561931" id="Fill-35" fill="#F5F5F5" mask="url(#mask-16)"></path>
                    </g>
                    <g id="Group-40" transform="translate(0.000000, 4.027923)" fill="#F5F5F5">
                        <path d="M1256.47467,400.217036 C1100.28923,431.882696 936.056739,365.209338 737.592017,274.765812 C641.187536,230.829939 538.075522,207.271131 431.12071,204.743325 C345.576988,202.736117 257.376902,214.075779 169.002466,238.491375 C100.82292,257.329343 42.9739939,281.173275 0.000141748366,301.680843 L0.000141748366,303.252565 C42.9669065,282.710952 100.956163,258.763469 169.380934,239.85883 C308.034933,201.550232 519.064231,176.734614 737.005179,276.056667 C846.296004,325.862383 936.072331,363.700031 1018.98379,386.474397 C1075.7214,402.059696 1126.5708,409.762268 1174.29322,409.762268 C1202.69676,409.762268 1230.00033,407.031614 1256.75675,401.607187 C1408.03627,370.943003 1551.86834,251.151681 1735.00014,2.48056892 L1735.00014,0.0846857464 C1551.55508,249.499104 1407.69749,369.565619 1256.47467,400.217036" id="Fill-38"></path>
                    </g>
                    <g id="Group-43" transform="translate(0.000000, 4.027923)">
                        <mask id="mask-18" fill="white">
                            <use xlink:href="#path-17"></use>
                        </mask>
                        <g id="Clip-42"></g>
                        <path d="M1254.42456,393.300451 C1097.89468,423.491544 934.232012,355.36213 736.544071,263.150695 C640.515223,218.357912 537.590317,193.864936 430.628417,190.351971 C345.057764,187.540465 256.745697,198.075109 168.121783,221.658313 C100.53758,239.64118 43.0175106,262.605116 -0.000283496732,282.542149 L-0.000283496732,284.100947 C43.0118407,264.134156 100.673658,241.07244 168.484659,223.027222 C307.536971,186.027014 518.855435,163.173611 735.94731,264.434579 C844.808638,315.213148 934.263197,353.852929 1016.99038,377.376616 C1075.21068,393.929639 1127.2862,402.09916 1176.20214,402.097743 C1203.15843,402.097743 1229.16075,399.616419 1254.69247,394.690616 C1405.82316,365.536833 1550.36113,247.824872 1734.99972,2.60744477 L1734.99972,0.243739403 C1550.05354,246.178214 1405.49005,364.158004 1254.42456,393.300451" id="Fill-41" fill="#F5F5F5" mask="url(#mask-18)"></path>
                    </g>
                    <g id="Group-46" transform="translate(0.000000, 4.027923)">
                        <mask id="mask-20" fill="white">
                            <use xlink:href="#path-19"></use>
                        </mask>
                        <g id="Clip-45"></g>
                        <path d="M1252.37587,387.366161 C1095.4987,416.169094 932.410121,346.400571 735.497543,252.190359 C639.844328,206.426409 537.105112,180.937339 430.134708,176.429918 C344.565472,172.820859 256.114491,182.5595 167.238266,205.371934 C100.247988,222.564283 43.0496875,244.72104 -0.00070874183,264.135876 L-0.00070874183,265.691334 C43.0468525,246.243855 100.378397,223.996269 167.589802,206.745732 C307.033339,170.958851 518.648058,150.014102 734.886607,253.470489 C843.32269,305.349829 932.454062,344.88769 1014.99697,369.218682 C1074.68863,386.814087 1127.96191,395.478384 1178.0728,395.476965 C1203.60451,395.475545 1228.32117,393.226092 1252.63244,388.761248 C1403.61713,361.03266 1548.86384,245.068747 1734.99929,2.64016237 L1734.99929,0.314071887 C1548.55625,243.440909 1403.29394,359.651765 1252.37587,387.366161" id="Fill-44" fill="#F5F5F5" mask="url(#mask-20)"></path>
                    </g>
                    <g id="Group-49" transform="translate(0.000000, 4.027923)">
                        <mask id="mask-22" fill="white">
                            <use xlink:href="#path-21"></use>
                        </mask>
                        <g id="Clip-48"></g>
                        <path d="M1250.32577,380.363517 C1093.11407,407.701449 930.588229,336.481367 734.449597,240.532837 C639.172016,193.923556 536.619908,167.508369 429.639581,162.018671 C344.070345,157.631732 255.484703,166.541683 166.354748,188.514651 C99.9555613,204.884526 43.0705245,226.189884 0.000283496732,245.031753 L0.000283496732,246.578167 C43.0705245,227.706532 100.0803,206.31471 166.694944,189.892391 C306.532542,155.417709 518.437845,136.436932 733.825904,241.805688 C841.835324,294.643147 930.646346,334.971806 1013.00215,360.043271 C1074.13963,378.655517 1128.60786,387.800761 1179.90518,387.800761 C1204.04067,387.800761 1227.47593,385.775257 1250.56816,381.759684 C1401.42102,355.524511 1547.37506,241.594491 1735.00028,2.56795413 L1735.00028,0.275973212 C1547.07455,239.974371 1401.1035,354.141101 1250.32577,380.363517" id="Fill-47" fill="#F5F5F5" mask="url(#mask-22)"></path>
                    </g>
                    <g id="Group-52" transform="translate(0.000000, 4.027923)" fill="#F5F5F5">
                        <path d="M1248.27566,374.430802 C1090.72802,400.391713 928.763502,327.508945 733.401652,229.548281 C638.499703,181.963452 536.136121,154.545994 429.147289,148.05967 C343.570965,142.872315 254.85208,150.988382 165.472648,172.184989 C99.6447071,187.796743 43.0871091,208.32754 -0.000141748366,226.65222 L-0.000141748366,228.192527 C43.0871091,209.838034 99.7708632,189.226318 165.800087,173.567716 C306.03458,140.30845 518.231884,123.244407 732.766619,230.818856 C840.349376,284.76366 928.838629,325.995611 1011.00874,351.878441 C1073.5793,371.590108 1129.21695,381.255 1181.70354,381.25358 C1204.45982,381.25358 1226.63068,379.435024 1248.50671,375.831985 C1399.232,351.006784 1545.89053,238.774505 1734.99986,2.4247408 L1734.99986,0.154740484 C1545.59711,237.153279 1398.92299,349.618379 1248.27566,374.430802" id="Fill-50"></path>
                    </g>
                    <g id="Group-55" transform="translate(0.000000, 4.027923)">
                        <mask id="mask-24" fill="white">
                            <use xlink:href="#path-23"></use>
                        </mask>
                        <g id="Clip-54"></g>
                        <path d="M1246.22697,367.753958 C1088.34197,392.240641 926.94161,317.924244 732.353706,218.233624 C637.830225,169.807524 535.650916,141.467282 428.654997,134.001189 C343.058828,128.02945 254.219458,135.325407 164.590548,155.686317 C99.331018,170.510749 43.0923538,190.222309 -0.000566993464,207.982989 L-0.000566993464,209.515622 C43.1065286,191.720915 99.4812712,171.928541 164.952007,157.058739 C305.570638,125.121559 518.040099,110.029164 731.708751,219.496877 C838.863428,274.393779 927.028077,316.41146 1009.01533,343.033338 C1073.00196,363.812496 1129.79344,373.978064 1183.4693,373.976646 C1204.86763,373.975228 1225.7826,372.358946 1246.44384,369.153318 C1397.05148,345.79945 1544.41308,235.571801 1734.99943,2.51942218 L1734.99943,0.27789319 C1544.12392,233.952683 1396.75239,344.411432 1246.22697,367.753958" id="Fill-53" fill="#F5F5F5" mask="url(#mask-24)"></path>
                    </g>
                    <g id="Group-58" transform="translate(0.000000, 4.027923)">
                        <mask id="mask-26" fill="white">
                            <use xlink:href="#path-25"></use>
                        </mask>
                        <g id="Clip-57"></g>
                        <path d="M1244.17828,361.82348 C1085.94883,384.915637 925.119719,308.941999 731.308595,207.226308 C637.15933,157.816958 535.167129,128.470705 428.161287,120.002681 C342.565119,113.23167 253.591087,119.725762 163.708448,139.310286 C99.0130764,153.406145 43.0890935,172.372927 0.000425245098,189.617135 L0.000425245098,191.146577 C43.1046859,173.868287 99.1590772,154.824819 164.057149,140.687778 C305.068424,109.968293 517.831304,96.795496 730.649465,208.484511 C837.378897,264.4973 925.221777,307.423918 1007.02192,334.864405 C1072.40619,356.796345 1130.343,367.501018 1185.20813,367.499598 C1205.27119,367.499598 1224.93169,366.066722 1244.3824,363.229373 C1394.88231,341.267611 1542.94131,232.702804 1735.00043,2.21861969 L1735.00043,0.000432016174 C1542.6564,231.085316 1394.58889,339.875919 1244.17828,361.82348" id="Fill-56" fill="#F5F5F5" mask="url(#mask-26)"></path>
                    </g>
                    <path d="M1242.12817,359.375077 C1083.55711,381.020178 923.297827,303.568883 730.259232,200.079617 C636.487018,149.808497 534.680507,119.528057 427.667578,110.078278 C342.064322,102.521293 252.958464,108.199673 162.824931,126.958761 C98.68096,140.307638 43.0801634,158.496334 0,175.190943 L0,176.709151 C43.0829984,159.987583 98.7943587,141.733618 163.11268,128.34785 C304.535025,98.9144855 517.604081,87.6868429 729.588762,201.329655 C835.891532,258.319199 923.412643,302.052094 1005.02852,330.239678 C1071.792,353.299408 1130.86563,364.528469 1186.9186,364.527051 C1205.66341,364.527051 1224.0751,363.271337 1242.31953,360.781192 C1392.7188,340.259848 1541.47237,233.61498 1735,6.22010162 L1735,4.02792321 C1541.19455,232.000289 1392.43389,338.866503 1242.12817,359.375077" id="Fill-59" fill="#F5F5F5"></path>
                </g>
            </g>
        </g>
    </g>
</svg>